<svg width="70.000000" height="70.000000" viewBox="0 0 70 70" fill="none" xmlns="http://www.w3.org/2000/svg" xmlns:xlink="http://www.w3.org/1999/xlink">
	<desc>
			Created with Pixso.
	</desc>
	<defs>
		<clipPath id="clip1_365">
			<rect id="astronaut 1" width="70.000000" height="70.000000" fill="white" fill-opacity="0"/>
		</clipPath>
	</defs>
	<rect id="astronaut 1" width="70.000000" height="70.000000" fill="#FFFFFF" fill-opacity="0"/>
	<g clip-path="url(#clip1_365)">
		<path id="Vector" d="M69.9432 9.89636C69.8055 9.47516 69.4416 9.16724 69.0017 9.10297L64.8227 8.49512L62.9525 4.70807C62.5605 3.91003 61.2527 3.91003 60.8607 4.70807L58.9905 8.49512L54.8113 9.10309C54.3715 9.16724 54.0076 9.47418 53.8687 9.89648C53.7322 10.3188 53.8453 10.7831 54.1638 11.0924L57.1891 14.0406L56.4751 18.2034C56.4005 18.6409 56.5801 19.0831 56.9383 19.3445C57.3012 19.6082 57.7748 19.6407 58.168 19.433L61.9061 17.4672L65.6441 19.433C65.8145 19.5229 66.0023 19.5672 66.1879 19.5672C66.4293 19.5672 66.6709 19.4926 66.874 19.3443C67.2332 19.0831 67.4129 18.6407 67.3372 18.2032L66.6232 14.0405L69.6484 11.0923C69.9653 10.7819 70.0798 10.3187 69.9432 9.89636ZM64.5556 12.7991C64.2815 13.0662 64.1554 13.4536 64.2207 13.8316L64.6384 16.2688L62.4498 15.1184C62.2794 15.0286 62.0928 14.9843 61.9061 14.9843C61.7195 14.9843 61.5339 15.0286 61.3623 15.1184L59.1736 16.2688L59.5912 13.8316C59.6566 13.4536 59.5305 13.0674 59.2564 12.7991L57.4843 11.0724L59.9319 10.7166C60.3123 10.6617 60.6402 10.4226 60.8105 10.0784L61.9048 7.86169L62.9991 10.0784C63.1695 10.4225 63.4974 10.6617 63.8777 10.7166L66.3254 11.0724L64.5556 12.7991Z" fill="#2196F3" fill-opacity="1.000000" fill-rule="nonzero"/>
		<path id="Vector" d="M54.8335 44.8923L57.1669 44.8923L57.1669 47.2257L54.8335 47.2257L54.8335 44.8923Z" fill="#2196F3" fill-opacity="1.000000" fill-rule="evenodd"/>
		<path id="Vector" d="M54.8335 49.5591L57.1669 49.5591L57.1669 51.8925L54.8335 51.8925L54.8335 49.5591Z" fill="#2196F3" fill-opacity="1.000000" fill-rule="evenodd"/>
		<path id="Vector" d="M57.167 47.2257L59.5004 47.2257L59.5004 49.5591L57.167 49.5591L57.167 47.2257Z" fill="#2196F3" fill-opacity="1.000000" fill-rule="evenodd"/>
		<path id="Vector" d="M52.5002 47.2257L54.8337 47.2257L54.8337 49.5591L52.5002 49.5591L52.5002 47.2257Z" fill="#2196F3" fill-opacity="1.000000" fill-rule="evenodd"/>
		<path id="Vector" d="M46.6669 57.7259L49.0003 57.7259L49.0003 60.0593L46.6669 60.0593L46.6669 57.7259Z" fill="#2196F3" fill-opacity="1.000000" fill-rule="evenodd"/>
		<path id="Vector" d="M46.6669 62.3926L49.0003 62.3926L49.0003 64.726L46.6669 64.726L46.6669 62.3926Z" fill="#2196F3" fill-opacity="1.000000" fill-rule="evenodd"/>
		<path id="Vector" d="M49.0002 60.0593L51.3336 60.0593L51.3336 62.3928L49.0002 62.3928L49.0002 60.0593Z" fill="#2196F3" fill-opacity="1.000000" fill-rule="evenodd"/>
		<path id="Vector" d="M44.3334 60.0593L46.6668 60.0593L46.6668 62.3928L44.3334 62.3928L44.3334 60.0593Z" fill="#2196F3" fill-opacity="1.000000" fill-rule="evenodd"/>
		<path id="Vector" d="M32.6666 53.0592L35 53.0592L35 55.3926L32.6666 55.3926L32.6666 53.0592Z" fill="#2196F3" fill-opacity="1.000000" fill-rule="evenodd"/>
		<path id="Vector" d="M32.6666 57.7259L35 57.7259L35 60.0593L32.6666 60.0593L32.6666 57.7259Z" fill="#2196F3" fill-opacity="1.000000" fill-rule="evenodd"/>
		<path id="Vector" d="M35 55.3925L37.3334 55.3925L37.3334 57.7259L35 57.7259L35 55.3925Z" fill="#2196F3" fill-opacity="1.000000" fill-rule="evenodd"/>
		<path id="Vector" d="M30.3331 55.3925L32.6665 55.3925L32.6665 57.7259L30.3331 57.7259L30.3331 55.3925Z" fill="#2196F3" fill-opacity="1.000000" fill-rule="evenodd"/>
		<path id="Vector" d="M10.4996 13.3918L12.833 13.3918L12.833 15.7252L10.4996 15.7252L10.4996 13.3918Z" fill="#2196F3" fill-opacity="1.000000" fill-rule="evenodd"/>
		<path id="Vector" d="M10.4996 18.0587L12.833 18.0587L12.833 20.3921L10.4996 20.3921L10.4996 18.0587Z" fill="#2196F3" fill-opacity="1.000000" fill-rule="evenodd"/>
		<path id="Vector" d="M12.8329 15.7252L15.1663 15.7252L15.1663 18.0587L12.8329 18.0587L12.8329 15.7252Z" fill="#2196F3" fill-opacity="1.000000" fill-rule="evenodd"/>
		<path id="Vector" d="M8.16626 15.7252L10.4997 15.7252L10.4997 18.0587L8.16626 18.0587L8.16626 15.7252Z" fill="#2196F3" fill-opacity="1.000000" fill-rule="evenodd"/>
		<path id="Vector" d="M54.0635 30.9739C53.4348 30.1257 52.5119 29.5797 51.4642 29.4326C50.4118 29.2833 49.3734 29.5598 48.5334 30.2026L45.7952 32.3015L45.7939 32.3027L41.6428 35.4025L38.6724 34.2195C43.9691 31.843 47.6711 26.545 47.6711 20.3943C47.6711 12.0315 40.8401 5.22742 32.4436 5.22742C24.047 5.22742 17.2161 12.0315 17.2161 20.3943C17.2161 23.4254 18.1226 26.244 19.6662 28.6158L13.6204 28.5634C13.6168 28.5634 13.6134 28.5634 13.6099 28.5634C13.5911 28.5634 13.5761 28.5726 13.5586 28.5739C13.4431 28.5785 13.3298 28.6019 13.2191 28.6415C13.1911 28.6521 13.162 28.658 13.1352 28.6707C13.1212 28.6766 13.1071 28.6776 13.0932 28.6846L6.02075 32.1765C6.01953 32.1765 6.01843 32.1765 6.01843 32.1776L1.87659 34.1693C1.83109 34.1891 1.78445 34.2159 1.73892 34.2463C0.0880127 35.3452 -0.474304 37.5037 0.429962 39.2676C0.911774 40.2057 1.73196 40.8964 2.73999 41.2125C3.12854 41.3337 3.52518 41.3934 3.91949 41.3934C4.55304 41.3934 5.18073 41.2382 5.7558 40.9314L8.79153 39.3167L13.7441 36.7593L16.7122 36.7418L4.80844 48.5884C4.80734 48.5897 4.80612 48.5897 4.8049 48.5908L1.87646 51.5074C1.18466 52.1958 0.804291 53.1093 0.804291 54.0835C0.804291 55.0566 1.18466 55.9723 1.87646 56.6619C2.58701 57.3689 3.52148 57.7236 4.45599 57.7236C5.39169 57.7236 6.32495 57.3689 7.03781 56.6619L9.91251 53.7989L13.7206 50.9556L15.6912 52.918L11.8376 56.7552C11.8365 56.7564 11.8352 56.7564 11.834 56.7575L8.90555 59.6742C8.21375 60.3625 7.8334 61.276 7.8334 62.2502C7.8334 63.2233 8.21375 64.139 8.90555 64.8287C9.61609 65.5356 10.5518 65.8903 11.4863 65.8903C12.4208 65.8903 13.3565 65.5356 14.0681 64.8287L16.9977 61.912L21.6842 57.2453C21.6854 57.2441 21.6854 57.243 21.6865 57.2418L23.8951 55.0543L23.8869 55.046C23.9008 55.0321 23.9207 55.0273 23.9348 55.0123L35.2353 42.6349L42.8281 43.7153C42.8829 43.7235 42.9377 43.7269 42.9926 43.7269C43.1338 43.7269 43.2702 43.6932 43.402 43.6429C43.4406 43.629 43.4743 43.6103 43.5106 43.5917C43.5526 43.5707 43.5969 43.559 43.6366 43.5322L50.6659 38.8655C50.6916 38.848 50.7055 38.82 50.73 38.8014C50.758 38.7792 50.793 38.77 50.8186 38.7454L53.5999 36.1401C55.0471 34.7841 55.2466 32.5629 54.0635 30.9739ZM4.66025 38.8723C4.2811 39.0753 3.85059 39.116 3.43878 38.9854C3.0304 38.8583 2.69913 38.5793 2.50537 38.2026C2.15305 37.5165 2.35718 36.6812 2.97433 36.2297L5.84793 34.8472L6.53973 36.869L6.83026 37.7183L4.66025 38.8723ZM12.3102 34.8741L8.92334 36.6241L8.36456 34.9907L7.96329 33.817L12.3967 31.6282L12.3102 34.8741ZM45.3402 20.392C45.3402 22.4009 44.8607 24.2957 44.03 25.9908L34.8832 21.8362C34.7875 20.5822 34.1366 19.4843 33.1589 18.8005L36.3615 8.16858C41.5626 9.823 45.3402 14.6752 45.3402 20.392ZM19.5519 20.392C19.5519 13.316 25.3363 7.55835 32.446 7.55835C32.9991 7.55835 33.5403 7.60498 34.0759 7.67267L30.9433 18.0714C30.9014 18.0701 30.8617 18.0585 30.8185 18.0585C28.5597 18.0585 26.7222 19.8902 26.7222 22.142C26.7222 24.3936 28.5597 26.2254 30.8185 26.2254C32.3375 26.2254 33.65 25.3867 34.3582 24.1592L42.8073 27.9976C40.4564 31.1616 36.6938 33.2255 32.4459 33.2255C25.3363 33.2255 19.5519 27.468 19.5519 20.392ZM32.5814 22.142C32.5814 23.1068 31.7903 23.892 30.8185 23.892C29.8467 23.892 29.0556 23.1068 29.0556 22.142C29.0556 21.1771 29.8467 20.392 30.8185 20.392C31.7903 20.392 32.5814 21.1771 32.5814 22.142ZM5.39185 55.0075C4.87503 55.5197 4.03842 55.5186 3.52286 55.0087C3.27429 54.7601 3.13785 54.4324 3.13785 54.0835C3.13785 53.7358 3.27429 53.408 3.52286 53.1619L5.62741 51.0652L7.48941 52.9192L5.39185 55.0075ZM12.4221 63.1744C11.9054 63.6865 11.0677 63.6877 10.5519 63.1756C10.3034 62.9271 10.167 62.5993 10.167 62.2504C10.167 61.9027 10.3034 61.5749 10.5519 61.3288L12.6579 59.2311L13.5388 60.1073L14.5211 61.085L12.4221 63.1744ZM20.0383 55.5862C20.0371 55.5873 20.036 55.5873 20.0348 55.5886L16.1742 59.4386L15.2933 58.5624L14.3109 57.5847L18.168 53.7451C18.168 53.7451 18.168 53.7451 18.168 53.744C18.1692 53.7428 18.1703 53.7428 18.1715 53.7417C18.259 53.6542 18.3139 53.5492 18.3676 53.4454C18.3828 53.4151 18.4119 53.3894 18.4247 53.358C18.461 53.2681 18.4667 53.1713 18.4808 53.0767C18.4878 53.0229 18.5112 52.973 18.5112 52.918C18.5112 52.8398 18.4831 52.764 18.4669 52.6869C18.4529 52.6169 18.4529 52.5457 18.426 52.4781C18.3817 52.3685 18.3058 52.2717 18.2265 52.1771C18.2043 52.1514 18.1962 52.1187 18.1717 52.0942C18.1717 52.0942 18.1717 52.0942 18.1704 52.0942C18.1692 52.0931 18.1692 52.0907 18.1681 52.0896L14.6529 48.5895C14.6156 48.5522 14.5677 48.537 14.5258 48.5056C14.464 48.4578 14.4045 48.4135 14.3356 48.3795C14.2691 48.3469 14.2014 48.327 14.1314 48.3083C14.0568 48.2872 13.9845 48.271 13.9062 48.2651C13.835 48.2604 13.7686 48.2674 13.6975 48.2756C13.6193 48.2849 13.5459 48.2955 13.47 48.3199C13.3964 48.3433 13.3312 48.3794 13.2635 48.418C13.2203 48.4424 13.1714 48.4506 13.1305 48.481L9.25134 51.3767L7.28076 49.4144L12.5285 44.1946L22.0674 53.576L20.0383 55.5862ZM34.9544 40.2372C34.9207 40.2326 34.8891 40.2455 34.8553 40.2432C34.7701 40.2385 34.6885 40.2444 34.6034 40.2583C34.5369 40.2699 34.4739 40.2828 34.4108 40.3049C34.3362 40.3306 34.2685 40.3656 34.1996 40.4076C34.1342 40.4473 34.0748 40.4893 34.0176 40.5417C33.9896 40.5662 33.9558 40.5779 33.9301 40.6058L23.6527 51.8621L14.185 42.5507L20.3824 36.386C20.8387 35.931 20.841 35.1924 20.386 34.735C20.1562 34.5052 19.854 34.392 19.5519 34.3932L19.5519 34.3922L14.6984 34.4213L14.7591 30.905L21.5492 30.9633C24.3166 33.7938 28.176 35.559 32.446 35.559C33.4026 35.559 34.3361 35.4598 35.2448 35.2905C35.3323 35.3605 35.4186 35.4318 35.5284 35.4761L40.7995 37.5761L41.1331 39.2351L41.5228 41.1718L34.9544 40.2372ZM43.7944 40.6269L43.1096 37.219L46.2736 34.8564L47.102 35.9554L48.3445 37.6051L43.7944 40.6269ZM52.0055 34.4341L50.1726 36.1515L48.1356 33.4471L49.9544 32.053C50.2939 31.7917 50.722 31.6855 51.1421 31.7404C51.5644 31.7998 51.9378 32.0203 52.1921 32.3621C52.6658 33.0004 52.5853 33.8905 52.0055 34.4341Z" fill="#212121" fill-opacity="1.000000" fill-rule="nonzero"/>
		<path id="Vector" d="M29.7545 40.5651L25.0668 35.8984C24.613 35.4446 23.8755 35.4446 23.4205 35.8984L18.734 40.5651C18.5147 40.7856 18.391 41.0818 18.391 41.3922C18.391 41.7026 18.5135 42.0001 18.734 42.2194L23.4205 46.8861C23.648 47.1124 23.9468 47.2256 24.2443 47.2256C24.5418 47.2256 24.8404 47.1124 25.0668 46.8861L29.7545 42.2194C29.9738 42.0001 30.0987 41.7026 30.0987 41.3922C30.0987 41.0818 29.9749 40.7844 29.7545 40.5651ZM24.2443 44.4128L21.2108 41.3922L24.2443 38.3716L27.2788 41.3922L24.2443 44.4128Z" fill="#212121" fill-opacity="1.000000" fill-rule="nonzero"/>
		<path id="Vector" d="M37.5468 11.0923L36.9833 13.358C37.1385 13.3966 40.7844 14.3463 40.7844 18.0586L43.1178 18.0586C43.1177 13.6461 39.4742 11.5718 37.5468 11.0923Z" fill="#212121" fill-opacity="1.000000" fill-rule="nonzero"/>
		<path id="Vector" d="M40.7844 20.3919L43.1178 20.3919L43.1178 22.7253L40.7844 22.7253L40.7844 20.3919Z" fill="#212121" fill-opacity="1.000000" fill-rule="evenodd"/>
	</g>
</svg>
