<svg width="70.000000" height="70.000000" viewBox="0 0 70 70" fill="none" xmlns="http://www.w3.org/2000/svg" xmlns:xlink="http://www.w3.org/1999/xlink">
	<desc>
			Created with Pixso.
	</desc>
	<defs>
		<clipPath id="clip1_344">
			<rect id="clock 1" width="70.000000" height="70.000000" fill="white" fill-opacity="0"/>
		</clipPath>
	</defs>
	<rect id="clock 1" width="70.000000" height="70.000000" fill="#FFFFFF" fill-opacity="0"/>
	<g clip-path="url(#clip1_344)">
		<path id="Vector" d="M68.4614 33.4716C68.4576 14.9819 53.4656 -0.00372314 34.9755 0C16.4858 0.00372314 1.50012 14.9963 1.50391 33.486C1.50708 48.0502 10.9252 60.9413 24.7996 65.3713C24.932 65.413 25.0697 65.4343 25.208 65.4338C25.4719 65.4333 25.7303 65.3628 25.9574 65.2288C26.2527 65.0541 26.4733 64.7764 26.5769 64.449L35.0315 37.6521C37.3429 37.6404 39.2068 35.7568 39.1945 33.4459C39.1827 31.1345 37.2997 29.2706 34.9883 29.2824C34.3666 29.285 33.7529 29.4282 33.1943 29.7011L22.025 18.5302C21.4707 17.9951 20.5879 18.0106 20.0529 18.5644C19.5305 19.1053 19.5305 19.962 20.0529 20.503L31.2162 31.6793C30.3596 33.4277 30.8494 35.5383 32.3895 36.7303L24.3339 62.2647C8.41357 56.4002 0.261719 38.7405 6.12622 22.8203C11.9907 6.90002 29.6504 -1.25183 45.5706 4.61267C61.4908 10.4772 69.6427 28.1374 63.7783 44.0571C60.913 51.8351 55.0261 58.1252 47.4548 61.4989L46.5842 57.3989C46.4251 56.6454 45.6843 56.1636 44.9308 56.3233C44.6932 56.3741 44.4726 56.4857 44.291 56.6475L35.8977 64.1409C35.322 64.653 35.2708 65.5347 35.7834 66.1105C35.9501 66.2974 36.1637 66.4362 36.403 66.5126L47.1188 69.9327C47.8521 70.1682 48.6377 69.765 48.8732 69.0312C48.948 68.7994 48.9603 68.5527 48.9101 68.3145L48.0545 64.2914C60.4452 59.0679 68.4902 46.918 68.4614 33.4716ZM34.9829 32.0765C35.7531 32.0765 36.3779 32.7014 36.3779 33.4716C36.3779 34.2422 35.7531 34.8665 34.9829 34.8665C34.2123 34.8665 33.588 34.2422 33.588 33.4716C33.588 32.7014 34.2123 32.0765 34.9829 32.0765ZM39.5774 64.5916L44.3551 60.3298L45.6737 66.543L39.5774 64.5916Z" fill="#212121" fill-opacity="1.000000" fill-rule="nonzero"/>
		<path id="Vector" d="M33.5879 6.96729L33.5879 9.7572C33.5879 10.5278 34.2122 11.1522 34.9829 11.1522C35.7529 11.1522 36.3778 10.5278 36.3778 9.7572L36.3778 6.96729C36.3778 6.19714 35.7529 5.57233 34.9829 5.57233C34.2122 5.57233 33.5879 6.19714 33.5879 6.96729Z" fill="#2196F3" fill-opacity="1.000000" fill-rule="nonzero"/>
		<path id="Vector" d="M8.47864 32.0765C7.70801 32.0765 7.08374 32.7014 7.08374 33.4715C7.08374 34.2421 7.70801 34.8665 8.47864 34.8665L11.2686 34.8665C12.0393 34.8665 12.6636 34.2421 12.6636 33.4715C12.6636 32.7014 12.0393 32.0765 11.2686 32.0765L8.47864 32.0765Z" fill="#2196F3" fill-opacity="1.000000" fill-rule="nonzero"/>
		<path id="Vector" d="M61.4865 34.8665C62.2571 34.8665 62.8815 34.2421 62.8815 33.4715C62.8815 32.7014 62.2571 32.0765 61.4865 32.0765L58.6966 32.0765C57.9265 32.0765 57.3016 32.7014 57.3016 33.4715C57.3016 34.2421 57.9265 34.8665 58.6966 34.8665L61.4865 34.8665Z" fill="#2196F3" fill-opacity="1.000000" fill-rule="nonzero"/>
	</g>
</svg>
