<svg width="84.436462" height="40.623169" viewBox="0 0 84.4365 40.6232" fill="none" xmlns="http://www.w3.org/2000/svg" xmlns:xlink="http://www.w3.org/1999/xlink">
	<desc>
			Created with Pixso.
	</desc>
	<defs/>
	<path id="Vector" d="M13.1433 12.4028L13.1462 12.4028C15.5443 12.4028 17.4882 14.1304 17.4882 16.2615L17.4882 16.264C17.4882 18.3951 15.5443 20.1227 13.1462 20.1227L13.1433 20.1227C10.7452 20.1227 8.80127 18.3951 8.80127 16.264L8.80127 16.2615C8.80127 14.1304 10.7452 12.4028 13.1433 12.4028Z" fill="#AFB1B8" fill-opacity="1.000000" fill-rule="evenodd"/>
	<path id="Vector" d="M45.195 11.1693C45.1882 8.20935 43.8623 5.37231 41.5074 3.27905C39.1525 1.18567 35.9604 0.00671387 32.6297 0L32.6297 0C29.298 0.00537109 26.1045 1.18384 23.7484 3.27722C21.3923 5.37061 20.0656 8.2085 20.0587 11.1693L20.0587 27.4922C20.0587 27.4922 45.1921 25.0045 45.195 11.1719L45.195 11.1693Z" fill="#AFB1B8" fill-opacity="1.000000" fill-rule="nonzero"/>
	<path id="Vector" d="M0 32.8495C0.00604248 34.9091 0.929138 36.8828 2.56763 38.3395C4.20605 39.796 6.4267 40.6171 8.7442 40.623C11.0612 40.6171 13.2814 39.7964 14.9197 38.3403C16.5581 36.8843 17.4816 34.9113 17.4883 32.8521L17.4883 21.4944C17.4883 21.4944 0 23.2267 0 32.8495ZM8.7442 34.8845C8.29132 34.8845 7.84857 34.7651 7.47205 34.5415C7.09546 34.3179 6.802 34.0001 6.62866 33.6283C6.45538 33.2565 6.41003 32.8473 6.49835 32.4525C6.58673 32.0577 6.80481 31.6952 7.12506 31.4105C7.44525 31.126 7.85327 30.9321 8.29749 30.8536C8.74164 30.7751 9.20203 30.8154 9.62042 30.9695C10.0389 31.1234 10.3965 31.3843 10.6481 31.719C10.8997 32.0536 11.034 32.447 11.034 32.8495C11.0351 33.1174 10.9767 33.3828 10.8622 33.6306C10.7476 33.8784 10.5791 34.1036 10.3663 34.2933C10.1536 34.4832 9.90082 34.6338 9.62244 34.7365C9.34406 34.8392 9.04559 34.8921 8.7442 34.8921L8.7442 34.8845Z" fill="#AFB1B8" fill-opacity="1.000000" fill-rule="nonzero"/>
	<path id="FOSTER PETERS" d="M30.4197 34.5754Q30.6423 34.1008 30.6423 33.4709L30.6423 33.2805Q30.6423 32.6536 30.4153 32.1746Q30.2436 31.8123 29.9646 31.5774Q29.8747 31.5017 29.7737 31.4392Q29.6878 31.3861 29.5969 31.344Q29.2487 31.1829 28.8259 31.1829Q28.4032 31.1829 28.055 31.344Q27.964 31.3861 27.8782 31.4392Q27.7771 31.5017 27.6872 31.5774Q27.4083 31.8123 27.2366 32.1746Q27.0095 32.6536 27.0095 33.2834L27.0095 33.4944Q27.0125 34.1096 27.241 34.5828Q27.4077 34.9281 27.6744 35.1571Q27.7731 35.2419 27.8855 35.3108Q27.9784 35.3677 28.0771 35.412Q28.42 35.5657 28.8318 35.5657Q29.2619 35.5657 29.6138 35.3997Q29.7005 35.3588 29.7825 35.3079Q29.8995 35.2351 30.0012 35.1451Q30.2599 34.9161 30.4197 34.5754ZM33.4185 34.1129Q33.4929 34.2259 33.4929 34.3879Q33.4929 34.5163 33.4374 34.6128Q33.3942 34.688 33.3171 34.7439Q33.1414 34.8713 32.8279 34.8713Q32.3316 34.8713 32.1272 34.6271Q31.9841 34.4561 31.9841 34.1653L31.1023 34.1653Q31.1023 34.4741 31.221 34.7273Q31.2611 34.8127 31.3147 34.8918Q31.3187 34.8977 31.3228 34.9036Q31.5347 35.2087 31.9314 35.3855Q32.3357 35.5657 32.8279 35.5657Q33.5369 35.5657 33.9558 35.2507Q34.1366 35.1149 34.2393 34.9345Q34.3748 34.6969 34.3748 34.3821Q34.3748 34.1003 34.265 33.871Q34.1808 33.6951 34.032 33.55Q33.6892 33.2161 32.9392 32.9905Q32.532 32.8674 32.3225 32.7268Q32.1737 32.6269 32.1306 32.493Q32.113 32.4384 32.113 32.3782Q32.113 32.2694 32.1557 32.1813Q32.2003 32.089 32.2917 32.0193Q32.4705 31.8831 32.7927 31.8831Q33.1267 31.8831 33.3113 32.0457Q33.3578 32.0866 33.3926 32.1359Q33.4958 32.2821 33.4958 32.5012L34.3748 32.5012Q34.3748 32.2376 34.2815 32.0127Q34.2389 31.9102 34.177 31.8157Q34.1342 31.7504 34.0839 31.6914Q33.9019 31.4781 33.6218 31.3484Q33.2644 31.1829 32.8074 31.1829Q32.3533 31.1829 31.9885 31.3352Q31.6238 31.4875 31.429 31.7585Q31.3497 31.8688 31.3027 31.9914Q31.2341 32.1702 31.2341 32.3752Q31.2341 32.5754 31.2999 32.7508Q31.4528 33.1584 31.9607 33.4329Q32.2273 33.5764 32.6843 33.7244Q33.1414 33.8723 33.3171 34.0056Q33.3785 34.0522 33.4185 34.1129ZM67.7369 34.1129Q67.8113 34.2259 67.8113 34.3879Q67.8113 34.5163 67.7558 34.6128Q67.7125 34.688 67.6355 34.7439Q67.4597 34.8713 67.1462 34.8713Q66.65 34.8713 66.4456 34.6271Q66.3025 34.4561 66.3025 34.1653L65.4207 34.1653Q65.4207 34.4741 65.5394 34.7273Q65.5795 34.8127 65.6331 34.8918Q65.6371 34.8977 65.6411 34.9036Q65.8531 35.2087 66.2498 35.3855Q66.6541 35.5657 67.1462 35.5657Q67.8552 35.5657 68.2742 35.2507Q68.4549 35.1149 68.5577 34.9345Q68.6931 34.6969 68.6931 34.3821Q68.6931 34.1003 68.5834 33.871Q68.4992 33.6951 68.3503 33.55Q68.0076 33.2161 67.2576 32.9905Q66.8503 32.8674 66.6409 32.7268Q66.492 32.6269 66.4489 32.493Q66.4314 32.4384 66.4314 32.3782Q66.4314 32.2694 66.474 32.1813Q66.5187 32.089 66.6101 32.0193Q66.7888 31.8831 67.1111 31.8831Q67.4451 31.8831 67.6296 32.0457Q67.6761 32.0866 67.7109 32.1359Q67.8142 32.2821 67.8142 32.5012L68.6931 32.5012Q68.6931 32.2376 68.5998 32.0127Q68.5573 31.9102 68.4954 31.8157Q68.4526 31.7504 68.4023 31.6914Q68.2203 31.4781 67.9402 31.3484Q67.5828 31.1829 67.1257 31.1829Q66.6716 31.1829 66.3069 31.3352Q65.9421 31.4875 65.7473 31.7585Q65.6681 31.8688 65.621 31.9914Q65.5525 32.1702 65.5525 32.3752Q65.5525 32.5754 65.6183 32.7508Q65.7711 33.1584 66.2791 33.4329Q66.5457 33.5764 67.0027 33.7244Q67.4597 33.8723 67.6355 34.0056Q67.6969 34.0522 67.7369 34.1129ZM24.7302 33.7639L26.4177 33.7639L26.4177 33.0549L24.7302 33.0549L24.7302 31.9534L26.6287 31.9534L26.6287 31.2415L23.8513 31.2415L23.8513 35.5071L24.7302 35.5071L24.7302 33.7639ZM36.8738 31.9534L38.1804 31.9534L38.1804 31.2415L34.7058 31.2415L34.7058 31.9534L35.9949 31.9534L35.9949 35.5071L36.8738 35.5071L36.8738 31.9534ZM39.5603 33.6584L41.2478 33.6584L41.2478 32.97L39.5603 32.97L39.5603 31.9534L41.5349 31.9534L41.5349 31.2415L38.6814 31.2415L38.6814 35.5071L41.5408 35.5071L41.5408 34.801L39.5603 34.801L39.5603 33.6584ZM42.9353 33.9456L43.6355 33.9456L44.4353 35.5071L45.3787 35.5071L45.3787 35.4661L44.4558 33.7229Q44.8396 33.55 45.0286 33.2585Q45.2175 32.967 45.2175 32.5305Q45.2175 32.1017 45.0183 31.8081Q44.9317 31.6805 44.8074 31.5784Q44.3972 31.2415 43.6414 31.2415L42.0564 31.2415L42.0564 35.5071L42.9353 35.5071L42.9353 33.9456ZM48.2585 35.5071L48.2585 34.0042L49.0291 34.0042Q49.7878 34.0042 50.217 33.6423Q50.3659 33.5168 50.4632 33.3594Q50.6462 33.063 50.6462 32.6536Q50.6462 32.3258 50.5226 32.0542Q50.4905 31.9836 50.45 31.9167Q50.392 31.8212 50.3195 31.7386Q50.1461 31.5412 49.8889 31.4172Q49.5242 31.2415 49.0437 31.2415L47.3796 31.2415L47.3796 35.5071L48.2585 35.5071ZM52.1287 33.6584L53.8162 33.6584L53.8162 32.97L52.1287 32.97L52.1287 31.9534L54.1033 31.9534L54.1033 31.2415L51.2498 31.2415L51.2498 35.5071L54.1091 35.5071L54.1091 34.801L52.1287 34.801L52.1287 33.6584ZM56.5876 31.9534L57.8943 31.9534L57.8943 31.2415L54.4197 31.2415L54.4197 31.9534L55.7087 31.9534L55.7087 35.5071L56.5876 35.5071L56.5876 31.9534ZM59.2742 33.6584L60.9617 33.6584L60.9617 32.97L59.2742 32.97L59.2742 31.9534L61.2488 31.9534L61.2488 31.2415L58.3953 31.2415L58.3953 35.5071L61.2546 35.5071L61.2546 34.801L59.2742 34.801L59.2742 33.6584ZM62.6492 33.9456L63.3494 33.9456L64.1492 35.5071L65.0925 35.5071L65.0925 35.4661L64.1697 33.7229Q64.5535 33.55 64.7424 33.2585Q64.9314 32.967 64.9314 32.5305Q64.9314 32.1017 64.7322 31.8081Q64.6455 31.6805 64.5212 31.5784Q64.1111 31.2415 63.3552 31.2415L61.7703 31.2415L61.7703 35.5071L62.6492 35.5071L62.6492 33.9456ZM29.5115 32.2581Q29.7517 32.6067 29.7517 33.2776L29.7517 33.4856Q29.7488 34.1506 29.5115 34.4978Q29.4066 34.6512 29.2616 34.7369Q29.0786 34.845 28.8318 34.845Q28.5855 34.845 28.4021 34.7376Q28.2495 34.6483 28.1404 34.4846Q27.9001 34.1243 27.9001 33.4709L27.9001 33.2629Q27.9031 32.5979 28.1433 32.2537Q28.2487 32.1026 28.3931 32.0178Q28.5777 31.9094 28.8259 31.9094Q29.0745 31.9094 29.2592 32.0181Q29.4053 32.104 29.5115 32.2581ZM43.6443 33.2336L42.9353 33.2336L42.9353 31.9534L43.6414 31.9534Q43.9958 31.9534 44.1672 32.1262Q44.1937 32.1529 44.216 32.1826Q44.3386 32.3456 44.3386 32.6008Q44.3386 32.8275 44.2321 32.9793Q44.1995 33.0258 44.157 33.0652Q44.1525 33.0693 44.148 33.0733Q43.9673 33.2336 43.6443 33.2336ZM49.0437 33.2922L48.2585 33.2922L48.2585 31.9534L49.0642 31.9534Q49.3284 31.9581 49.4998 32.0867Q49.5394 32.1163 49.574 32.1526Q49.6152 32.1958 49.6473 32.245Q49.7585 32.416 49.7585 32.6594Q49.7585 32.9043 49.6402 33.0584Q49.6114 33.096 49.5754 33.1282Q49.3923 33.2922 49.0437 33.2922ZM63.3582 33.2336L62.6492 33.2336L62.6492 31.9534L63.3552 31.9534Q63.7097 31.9534 63.8811 32.1262Q63.9075 32.1529 63.9299 32.1826Q64.0525 32.3456 64.0525 32.6008Q64.0525 32.8275 63.9459 32.9793Q63.9134 33.0258 63.8708 33.0652Q63.8664 33.0693 63.8619 33.0733Q63.6811 33.2336 63.3582 33.2336Z" fill="#AFB1B8" fill-opacity="1.000000" fill-rule="evenodd"/>
</svg>
