<svg width="43.460022" height="41.181519" viewBox="0 0 43.46 41.1815" fill="none" xmlns="http://www.w3.org/2000/svg" xmlns:xlink="http://www.w3.org/1999/xlink">
	<desc>
			Created with Pixso.
	</desc>
	<defs/>
	<path id="Vector" d="M6.7262 40.4014C6.74213 40.4017 6.75781 40.4049 6.77234 40.4105C6.7868 40.4163 6.79987 40.4244 6.81073 40.4346L7.02887 40.6431C6.85956 40.8118 6.65027 40.9468 6.41541 41.0387C6.14032 41.139 5.84387 41.1875 5.54565 41.1808C5.26544 41.1859 4.987 41.1407 4.72772 41.0482C4.49384 40.9631 4.28369 40.8356 4.11151 40.6738C3.93585 40.5061 3.80048 40.3096 3.7135 40.0957C3.61816 39.8574 3.57117 39.6064 3.5744 39.3541C3.57056 39.1002 3.6214 38.8479 3.72437 38.6102C3.81964 38.395 3.96332 38.1985 4.14697 38.0321C4.33313 37.869 4.55585 37.7407 4.80133 37.6554C5.06989 37.5649 5.35583 37.5199 5.6438 37.5227C5.91132 37.5171 6.17743 37.5582 6.42633 37.6436C6.64227 37.725 6.84052 37.838 7.01251 37.9777L6.82983 38.2003C6.8172 38.2161 6.80151 38.2296 6.78351 38.2406C6.7619 38.2534 6.7359 38.2593 6.70984 38.2572C6.68158 38.2555 6.6543 38.2473 6.6308 38.2335L6.53265 38.1743L6.3963 38.0985C6.33746 38.0703 6.27643 38.0458 6.21362 38.025C6.13275 37.9999 6.04987 37.9801 5.96552 37.9658C5.85852 37.9486 5.74988 37.9407 5.64111 37.9421C5.43372 37.9398 5.22791 37.9736 5.03583 38.0416C4.85669 38.1045 4.69495 38.1998 4.5614 38.3212C4.42548 38.4502 4.32068 38.6017 4.2533 38.7666C4.17651 38.9552 4.13867 39.1541 4.14154 39.3541C4.13824 39.5574 4.17609 39.7594 4.2533 39.9512C4.31982 40.1146 4.42267 40.2653 4.55597 40.3943C4.68085 40.5145 4.83563 40.6085 5.00854 40.6691C5.18652 40.7332 5.37756 40.7654 5.57019 40.7638C5.68146 40.7654 5.79272 40.759 5.90283 40.7449C6.08264 40.7258 6.25507 40.6715 6.40723 40.5862C6.48352 40.5424 6.5556 40.4933 6.62262 40.4392C6.65063 40.416 6.6875 40.4026 6.7262 40.4014Z" fill="#AFB1B8" fill-opacity="1.000000" fill-rule="nonzero"/>
	<path id="Vector" d="M13.0243 39.3538C13.0277 39.6051 12.9778 39.8549 12.8771 40.0905C12.7883 40.3043 12.6483 40.4993 12.4664 40.6626C12.2845 40.8259 12.0649 40.9539 11.822 41.0381C11.2881 41.2151 10.6981 41.2151 10.1643 41.0381C9.92291 40.9526 9.70471 40.8243 9.52356 40.6615C9.3418 40.4951 9.20081 40.2985 9.10913 40.0834C8.91278 39.6062 8.91278 39.0847 9.10913 38.6075C9.20215 38.3923 9.34296 38.1951 9.52356 38.0271C9.70624 37.8693 9.92432 37.746 10.1643 37.6646C10.6974 37.4845 11.2888 37.4845 11.822 37.6646C12.0641 37.7501 12.2833 37.8783 12.4654 38.0413C12.6449 38.2059 12.7849 38.4 12.8771 38.6122C12.9781 38.8495 13.028 39.1008 13.0243 39.3538ZM12.4518 39.3538C12.4561 39.1526 12.421 38.9524 12.3481 38.7615C12.287 38.5979 12.1877 38.4471 12.0565 38.3185C11.9286 38.1968 11.7712 38.1012 11.5956 38.0389C11.2078 37.9094 10.7784 37.9094 10.3906 38.0389C10.215 38.1012 10.0576 38.1968 9.92981 38.3185C9.79669 38.4463 9.69629 38.5974 9.63538 38.7615C9.49664 39.1471 9.49664 39.5603 9.63538 39.946C9.6969 40.1099 9.79718 40.2607 9.92981 40.389C10.0578 40.51 10.2152 40.6047 10.3906 40.6661C10.7791 40.7925 11.2071 40.7925 11.5956 40.6661C11.7711 40.6047 11.9285 40.51 12.0565 40.389C12.1872 40.26 12.2864 40.1093 12.3481 39.946C12.4213 39.7551 12.4564 39.5548 12.4518 39.3538Z" fill="#AFB1B8" fill-opacity="1.000000" fill-rule="nonzero"/>
	<path id="Vector" d="M17.3214 39.9749L17.3786 40.1075C17.4004 40.0602 17.4195 40.0175 17.4413 39.9749C17.4621 39.9303 17.4857 39.8868 17.5121 39.8446L18.9054 37.644C18.9327 37.6061 18.9572 37.5824 18.9844 37.5753C19.0215 37.5656 19.0603 37.5615 19.099 37.5635L19.5107 37.5635L19.5107 41.1427L19.0226 41.1427L19.0226 38.511C19.0226 38.4778 19.0226 38.4399 19.0226 38.3997C19.02 38.3586 19.02 38.3175 19.0226 38.2765L17.6212 40.5078C17.6035 40.5413 17.575 40.5696 17.5392 40.5892C17.5034 40.609 17.4619 40.6194 17.4195 40.6191L17.3404 40.6191C17.298 40.6198 17.2562 40.6095 17.2204 40.5897C17.1846 40.5699 17.1561 40.5415 17.1387 40.5078L15.6964 38.2622C15.6964 38.3049 15.6964 38.3475 15.6964 38.3901C15.6964 38.4329 15.6964 38.4707 15.6964 38.5039L15.6964 41.1356L15.2247 41.1356L15.2247 37.5635L15.6364 37.5635C15.675 37.5615 15.7138 37.5656 15.7509 37.5753C15.7847 37.5898 15.8116 37.6141 15.8272 37.644L17.2504 39.8469C17.2784 39.8877 17.3021 39.9305 17.3214 39.9749Z" fill="#AFB1B8" fill-opacity="1.000000" fill-rule="nonzero"/>
	<path id="Vector" d="M22.5643 39.797L22.5643 41.1377L22.019 41.1377L22.019 37.5634L23.235 37.5634C23.4645 37.5596 23.6934 37.5858 23.9139 37.6415C24.0903 37.6849 24.254 37.7609 24.3937 37.8641C24.5148 37.9609 24.6082 38.0811 24.6664 38.2147C24.7308 38.3606 24.7622 38.5157 24.7591 38.6719C24.7615 38.8286 24.7272 38.9843 24.6582 39.129C24.5927 39.2662 24.4919 39.3885 24.3638 39.4867C24.2239 39.5944 24.0594 39.675 23.8812 39.7236C23.6689 39.7826 23.4469 39.8105 23.2241 39.8065L22.5643 39.797ZM22.5643 39.4133L23.2241 39.4133C23.3674 39.4149 23.5101 39.3965 23.6467 39.3589C23.7593 39.3259 23.8632 39.2736 23.952 39.2048C24.0339 39.1393 24.0974 39.0582 24.1375 38.968C24.1821 38.8726 24.2043 38.7703 24.2029 38.6671C24.2092 38.5677 24.1906 38.4684 24.1482 38.376C24.1058 38.2836 24.0407 38.2002 23.9575 38.1318C23.7492 37.9906 23.4875 37.9221 23.2241 37.9399L22.5643 37.9399L22.5643 39.4133Z" fill="#AFB1B8" fill-opacity="1.000000" fill-rule="nonzero"/>
	<path id="Vector" d="M29.8931 41.1426L29.4623 41.1426C29.4191 41.144 29.3766 41.1323 29.3423 41.1094C29.3114 41.087 29.2871 41.0586 29.2715 41.0265L28.9006 40.1617L27.0385 40.1617L26.6541 41.0265C26.6399 41.0581 26.6164 41.0859 26.5859 41.1071C26.5512 41.1312 26.5077 41.1439 26.4632 41.1426L26.0324 41.1426L27.6683 37.563L28.2354 37.563L29.8931 41.1426ZM27.1939 39.8136L28.7316 39.8136L28.0827 38.3566C28.0331 38.2469 27.9921 38.1346 27.96 38.0203L27.8973 38.2074C27.8782 38.2642 27.8564 38.3163 27.8373 38.359L27.1939 39.8136Z" fill="#AFB1B8" fill-opacity="1.000000" fill-rule="nonzero"/>
	<path id="Vector" d="M32.2488 37.5796C32.2814 37.5952 32.3094 37.6171 32.3306 37.6436L34.7162 40.3419C34.7162 40.2992 34.7162 40.2566 34.7162 40.2163C34.7162 40.176 34.7162 40.1357 34.7162 40.0979L34.7162 37.5631L35.2043 37.5631L35.2043 41.1426L34.9316 41.1426C34.8929 41.1436 34.8545 41.1362 34.8198 41.1212C34.7861 41.1042 34.7565 41.0817 34.7326 41.0549L32.3497 38.359C32.3523 38.4 32.3523 38.4412 32.3497 38.4822C32.3497 38.5225 32.3497 38.558 32.3497 38.5912L32.3497 41.1426L31.8616 41.1426L31.8616 37.5631L32.1506 37.5631C32.1844 37.5623 32.2179 37.5679 32.2488 37.5796Z" fill="#AFB1B8" fill-opacity="1.000000" fill-rule="nonzero"/>
	<path id="Vector" d="M39.223 39.7189L39.223 41.1403L38.6777 41.1403L38.6777 39.7189L37.17 37.5631L37.658 37.5631C37.7001 37.5609 37.7416 37.5719 37.7753 37.5939C37.8049 37.6168 37.8298 37.6442 37.8489 37.6744L38.7922 39.0651C38.8304 39.1243 38.8632 39.1787 38.8904 39.2308C38.9177 39.283 38.9395 39.3328 38.9586 39.3824L39.0294 39.2285C39.0559 39.1721 39.0869 39.1176 39.1221 39.0651L40.0519 37.6649C40.0714 37.637 40.0953 37.6116 40.1228 37.5891C40.1551 37.5646 40.1971 37.5519 40.24 37.5536L40.7335 37.5536L39.223 39.7189Z" fill="#AFB1B8" fill-opacity="1.000000" fill-rule="nonzero"/>
	<path id="Vector" d="M17.0513 31.5563C17.2885 31.5824 17.5284 31.6036 17.7711 31.6227C21.45 30.1927 24.5621 27.8525 26.7186 24.8944C28.8751 21.9362 29.9802 18.4915 29.8958 14.9906L25.8415 11.468C26.6658 15.1953 26.2802 19.0483 24.7278 22.5961C23.1754 26.1438 20.5175 29.2463 17.0513 31.5563Z" fill="#AFB1B8" fill-opacity="1.000000" fill-rule="nonzero"/>
	<path id="Vector" d="M15.6036 31.3925L15.7127 31.4114C19.4166 29.1096 22.2405 25.8953 23.8192 22.1841C25.3979 18.4729 25.6589 14.4355 24.5682 10.5941L18.7936 5.5769C21.1293 9.70093 22.0695 14.3163 21.5048 18.8864C20.9401 23.4563 18.8937 27.7932 15.6036 31.3925Z" fill="#AFB1B8" fill-opacity="1.000000" fill-rule="nonzero"/>
	<path id="Vector" d="M35.1879 19.1267C34.2068 22.9733 31.824 26.4424 28.3935 29.019C27.3916 29.7756 26.3109 30.4497 25.1653 31.0326C27.9588 30.3192 30.5264 29.058 32.6702 27.3461C34.8139 25.6343 36.4766 23.5176 37.5299 21.1592L35.1879 19.1267Z" fill="#AFB1B8" fill-opacity="1.000000" fill-rule="nonzero"/>
	<path id="Vector" d="M34.269 18.5602L30.9346 15.6631C30.8708 18.9662 29.79 22.1942 27.8046 25.0115C25.819 27.8289 23.0013 30.1328 19.6442 31.6838L19.6606 31.6838C20.4087 31.6836 21.1562 31.6449 21.899 31.5677C25.0364 30.4552 27.808 28.6851 29.9664 26.4154C32.1249 24.1458 33.603 21.447 34.269 18.5602Z" fill="#AFB1B8" fill-opacity="1.000000" fill-rule="nonzero"/>
	<path id="Vector" d="M16.0862 3.46094L12.1083 0C8.55219 1.19397 5.49377 3.29285 3.33331 6.02209C1.17291 8.75122 0.0111084 11.9835 0 15.2959L0 15.2959C0.0133057 18.9561 1.43121 22.5077 4.02924 25.3888C6.62726 28.27 10.257 30.316 14.344 31.2031C17.9924 27.3411 20.1285 22.5688 20.4418 17.5798C20.7551 12.5908 19.2294 7.64502 16.0862 3.46094Z" fill="#AFB1B8" fill-opacity="1.000000" fill-rule="nonzero"/>
	<path id="Vector" d="M43.46 18.0275C43.4456 13.6851 41.4538 9.52393 37.9196 6.45337C34.3855 3.38269 29.5963 1.6521 24.5983 1.63965C22.2888 1.63757 19.9988 2.00781 17.8448 2.73169L42.2004 23.8928C43.0343 22.0222 43.4614 20.0334 43.46 18.0275Z" fill="#AFB1B8" fill-opacity="1.000000" fill-rule="nonzero"/>
</svg>
