<svg width="93.793579" height="43.925537" viewBox="0 0 93.7936 43.9255" fill="none" xmlns="http://www.w3.org/2000/svg" xmlns:xlink="http://www.w3.org/1999/xlink">
	<desc>
			Created with Pixso.
	</desc>
	<defs/>
	<path id="Vector" d="M47.425 20.6415C46.9819 20.0516 46.7699 19.3546 46.8203 18.653L46.8203 15.7697C46.8203 14.8859 47.0207 14.2142 47.4216 13.7548C47.8224 13.2952 48.511 13.0664 49.4871 13.0684C50.4044 13.0684 51.0555 13.2639 51.4405 13.655C51.8605 14.1539 52.0648 14.7642 52.018 15.3796L52.018 16.0571L50.3772 16.0571L50.3772 15.3708C50.383 15.1461 50.3671 14.9215 50.3296 14.6991C50.306 14.5471 50.2234 14.4065 50.0952 14.3003C49.9267 14.1858 49.7144 14.1302 49.5007 14.1448C49.2759 14.1304 49.0529 14.189 48.8756 14.3091C48.7327 14.4268 48.6374 14.5809 48.6038 14.749C48.5567 14.9844 48.5351 15.2229 48.5393 15.4618L48.5393 18.9608C48.5134 19.2985 48.5858 19.6362 48.7499 19.9435C48.8315 20.0474 48.9449 20.1298 49.0774 20.1815C49.2099 20.2333 49.3564 20.2524 49.5007 20.2367C49.7109 20.2517 49.9195 20.1948 50.0816 20.0784C50.2153 19.9639 50.3013 19.8143 50.3262 19.6531C50.3645 19.4209 50.3816 19.1865 50.3772 18.952L50.3772 18.2423L52.018 18.2423L52.018 18.8905C52.0641 19.532 51.8648 20.1689 51.4507 20.7031C51.0736 21.1313 50.4315 21.3455 49.4871 21.3455C48.5427 21.3455 47.8293 21.1167 47.425 20.6415Z" fill="#AFB1B8" fill-opacity="1.000000" fill-rule="nonzero"/>
	<path id="Vector" d="M54.2569 20.6709C53.8425 20.222 53.6353 19.568 53.6353 18.7028L53.6353 15.67C53.6353 14.8136 53.8425 14.1653 54.2569 13.7253C54.6714 13.2854 55.3644 13.0664 56.336 13.0684C57.3008 13.0684 57.9904 13.2874 58.4049 13.7253C58.8193 14.1653 59.03 14.8136 59.03 15.67L59.03 18.7028C59.03 19.5592 58.8193 20.2162 58.3981 20.668C57.9768 21.1196 57.2906 21.3455 56.336 21.3455C55.3814 21.3455 54.6748 21.1167 54.2569 20.6709ZM57.1004 19.9435C57.2488 19.6624 57.3164 19.3545 57.2974 19.0459L57.2974 15.3326C57.3165 15.0302 57.25 14.7281 57.1038 14.4528C57.0205 14.3467 56.9044 14.2628 56.7686 14.2109C56.6329 14.1592 56.483 14.1412 56.336 14.1594C56.1886 14.1417 56.0384 14.1598 55.9022 14.2115C55.766 14.2634 55.6492 14.3469 55.5648 14.4528C55.4155 14.7274 55.3477 15.0298 55.3678 15.3326L55.3678 19.0635C55.3472 19.3721 55.4149 19.6804 55.5648 19.9611C55.6605 20.0557 55.7785 20.1315 55.9109 20.1835C56.0434 20.2354 56.1872 20.2623 56.3326 20.2623C56.4781 20.2623 56.6219 20.2354 56.7543 20.1835C56.8867 20.1315 57.0047 20.0557 57.1004 19.9611L57.1004 19.9435Z" fill="#AFB1B8" fill-opacity="1.000000" fill-rule="nonzero"/>
	<path id="Vector" d="M61.0035 13.157L62.7701 13.157L64.0984 18.7526L65.4573 13.157L67.1763 13.157L67.3496 21.2336L66.079 21.2336L65.9431 15.6205L64.6318 21.2336L63.6126 21.2336L62.2537 15.6L62.128 21.2336L60.8439 21.2336L61.0035 13.157Z" fill="#AFB1B8" fill-opacity="1.000000" fill-rule="nonzero"/>
	<path id="Vector" d="M69.3303 13.157L72.082 13.157C73.6673 13.157 74.46 13.9214 74.46 15.4503C74.46 16.9148 73.6254 17.646 71.9563 17.644L71.0186 17.644L71.0186 21.2336L69.3201 21.2336L69.3303 13.157ZM71.6811 16.6088C71.8489 16.6272 72.0194 16.6139 72.1807 16.5698C72.342 16.5258 72.4903 16.452 72.6153 16.3536C72.8101 16.0808 72.896 15.7605 72.8599 15.4415C72.8688 15.1952 72.8414 14.9489 72.7784 14.7084C72.7542 14.6281 72.7117 14.5527 72.6533 14.4868C72.595 14.4208 72.522 14.3656 72.4387 14.3242C72.2029 14.2266 71.9422 14.1821 71.6811 14.1952L71.0221 14.1952L71.0221 16.6088L71.6811 16.6088Z" fill="#AFB1B8" fill-opacity="1.000000" fill-rule="nonzero"/>
	<path id="Vector" d="M76.9095 13.157L78.7337 13.157L80.6056 21.2336L79.0225 21.2336L78.6522 19.3715L77.0249 19.3715L76.6445 21.2336L75.0376 21.2336L76.9095 13.157ZM78.4688 18.4359L77.8335 15.0457L77.1982 18.4359L78.4688 18.4359Z" fill="#AFB1B8" fill-opacity="1.000000" fill-rule="nonzero"/>
	<path id="Vector" d="M82.1173 13.157L83.3063 13.157L85.5825 17.7643L85.5825 13.157L86.9923 13.157L86.9923 21.2336L85.8611 21.2336L83.5713 16.4241L83.5713 21.2336L82.1139 21.2336L82.1173 13.157Z" fill="#AFB1B8" fill-opacity="1.000000" fill-rule="nonzero"/>
	<path id="Vector" d="M90.2945 18.1541L88.4022 13.1682L89.9955 13.1682L91.1505 16.3708L92.2343 13.1682L93.7936 13.1682L91.9251 18.1541L91.9251 21.2336L90.2945 21.2336L90.2945 18.1541Z" fill="#AFB1B8" fill-opacity="1.000000" fill-rule="nonzero"/>
	<path id="Vector" d="M50.0477 24.7649L50.0477 25.1873L48.6617 25.1873L48.6617 28.4692L48.0807 28.4692L48.0807 25.1873L46.6879 25.1873L46.6879 24.7649L50.0477 24.7649Z" fill="#AFB1B8" fill-opacity="1.000000" fill-rule="nonzero"/>
	<path id="Vector" d="M54.3927 28.4695L53.9442 28.4695C53.8987 28.4719 53.8538 28.4594 53.8185 28.4343C53.7846 28.4127 53.7587 28.3832 53.7438 28.3492L53.3429 27.4694L51.4201 27.4694L51.0192 28.3492C51.0078 28.386 50.9869 28.4202 50.958 28.449C50.9225 28.4735 50.8778 28.486 50.8324 28.4841L50.3839 28.4841L52.0826 24.78L52.6737 24.78L54.3927 28.4695ZM51.5797 27.094L53.1833 27.094L52.5038 25.5865C52.4537 25.4725 52.4117 25.356 52.3781 25.2375C52.3543 25.308 52.334 25.3754 52.3136 25.4341L52.2524 25.5895L51.5797 27.094Z" fill="#AFB1B8" fill-opacity="1.000000" fill-rule="nonzero"/>
	<path id="Vector" d="M57.3212 28.1057C57.4275 28.1106 57.5341 28.1106 57.6405 28.1057C57.7323 28.0975 57.8232 28.0829 57.9123 28.0618C57.9955 28.0442 58.0772 28.0216 58.1569 27.9943C58.2316 27.9679 58.3064 27.9357 58.3845 27.9033L58.3845 27.0703L57.705 27.0703C57.6882 27.0712 57.6714 27.069 57.6556 27.064C57.6399 27.0588 57.6255 27.051 57.6133 27.041C57.6022 27.0327 57.5933 27.0223 57.5875 27.0106C57.5816 26.9989 57.5788 26.9862 57.5793 26.9735L57.5793 26.689L58.8975 26.689L58.8975 28.1086C58.7899 28.1752 58.6763 28.234 58.5577 28.2847C58.4366 28.3363 58.3104 28.3785 58.1807 28.4108C58.0417 28.446 57.8997 28.4716 57.756 28.4871C57.5913 28.5028 57.4257 28.5107 57.26 28.5105C56.967 28.5127 56.6763 28.4658 56.4039 28.3727C56.1496 28.2844 55.9185 28.1527 55.7245 27.9855C55.5353 27.8167 55.3864 27.6173 55.2862 27.3988C55.1791 27.1533 55.1262 26.8927 55.1299 26.6304C55.1264 26.3663 55.1782 26.104 55.2828 25.856C55.3806 25.6365 55.5298 25.4368 55.7211 25.2694C55.9149 25.1027 56.1461 24.9719 56.4005 24.8851C56.6914 24.7906 57.0002 24.7439 57.311 24.7472C57.4691 24.7471 57.627 24.7578 57.7832 24.7795C57.9213 24.799 58.0567 24.8303 58.1874 24.8734C58.3063 24.9119 58.4202 24.9611 58.5272 25.02C58.6313 25.0779 58.7301 25.1426 58.8227 25.2136L58.6597 25.4424C58.6469 25.4633 58.6279 25.4808 58.6046 25.4933C58.5813 25.5056 58.5545 25.5123 58.5272 25.5128C58.4896 25.5117 58.4531 25.5016 58.4219 25.4835C58.3709 25.46 58.3166 25.4307 58.2554 25.3955C58.1832 25.3563 58.107 25.323 58.0278 25.2958C57.9265 25.2607 57.822 25.2332 57.7152 25.2136C57.5729 25.191 57.4285 25.1802 57.2838 25.1814C57.0597 25.1792 56.8371 25.2141 56.6281 25.2841C56.4391 25.3495 56.2687 25.4496 56.1287 25.5774C55.9879 25.7104 55.8804 25.8673 55.8128 26.0378C55.661 26.4391 55.661 26.8716 55.8128 27.2727C55.8871 27.4469 56.0029 27.6058 56.1525 27.7391C56.2918 27.8662 56.4609 27.9662 56.6485 28.0325C56.8645 28.0964 57.0935 28.1215 57.3212 28.1057Z" fill="#AFB1B8" fill-opacity="1.000000" fill-rule="nonzero"/>
	<path id="Vector" d="M62.7363 28.0469L64.5912 28.0469L64.5912 28.4692L62.1689 28.4692L62.1689 24.7649L62.7499 24.7649L62.7363 28.0469Z" fill="#AFB1B8" fill-opacity="1.000000" fill-rule="nonzero"/>
	<path id="Vector" d="M66.5208 28.4692L65.9398 28.4692L65.9398 24.7649L66.5208 24.7649L66.5208 28.4692Z" fill="#AFB1B8" fill-opacity="1.000000" fill-rule="nonzero"/>
	<path id="Vector" d="M68.6814 24.7827C68.7159 24.7998 68.746 24.8228 68.7697 24.8502L71.2531 27.6426C71.2497 27.5986 71.2497 27.5544 71.2531 27.5105C71.2531 27.4695 71.2531 27.4285 71.2531 27.3903L71.2531 24.7505L71.7592 24.7505L71.7592 28.4697L71.4671 28.4697C71.4238 28.4728 71.3804 28.4656 71.3414 28.4491C71.3061 28.4307 71.275 28.4069 71.2496 28.3788L68.7697 25.5894C68.7697 25.6333 68.7697 25.6744 68.7697 25.7155C68.7697 25.7566 68.7697 25.7947 68.7697 25.8298L68.7697 28.4697L68.2839 28.4697L68.2839 24.7651L68.5863 24.7651C68.6191 24.7653 68.6515 24.7712 68.6814 24.7827Z" fill="#AFB1B8" fill-opacity="1.000000" fill-rule="nonzero"/>
	<path id="Vector" d="M76.0364 24.7649L76.0364 25.1726L73.9777 25.1726L73.9777 26.3956L75.6457 26.3956L75.6457 26.7887L73.9777 26.7887L73.9777 28.0527L76.0364 28.0527L76.0364 28.4604L73.3798 28.4604L73.3798 24.7649L76.0364 24.7649Z" fill="#AFB1B8" fill-opacity="1.000000" fill-rule="nonzero"/>
	<path id="Vector" d="M15.1618 1.88879L40.9568 8.21204L40.9568 30.3701L15.1618 24.0497L15.1618 1.88879ZM13.5073 0L13.5073 25.1261L42.6079 32.2618L42.6079 7.13867L13.5073 0Z" fill="#AFB1B8" fill-opacity="1.000000" fill-rule="nonzero"/>
	<path id="Vector" d="M29.1039 43.9255L0 36.7838L0 11.6604L29.1039 18.7992L29.1039 43.9255Z" fill="#AFB1B8" fill-opacity="1.000000" fill-rule="nonzero"/>
	<path id="Vector" d="M13.9897 1.60425L39.4484 7.84827L28.6215 17.1981L3.15939 10.9512L13.9897 1.60425ZM13.5073 0L0 11.661L29.1039 18.7994L42.6078 7.13855L13.5073 0Z" fill="#AFB1B8" fill-opacity="1.000000" fill-rule="nonzero"/>
	<path id="Vector" d="M30.7415 42.5121L42.6078 32.2648L30.7415 29.3525L30.7415 42.5121Z" fill="#AFB1B8" fill-opacity="1.000000" fill-rule="nonzero"/>
</svg>
