<svg width="48.000000" height="59.999268" viewBox="0 0 48 59.9993" fill="none" xmlns="http://www.w3.org/2000/svg" xmlns:xlink="http://www.w3.org/1999/xlink">
	<desc>
			Created with Pixso.
	</desc>
	<defs>
		<filter id="filter_73601_15_dd" x="0.000000" y="0.000000" width="48.000000" height="59.999268" filterUnits="userSpaceOnUse" color-interpolation-filters="sRGB">
			<feFlood flood-opacity="0" result="BackgroundImageFix"/>
			<feColorMatrix in="SourceAlpha" type="matrix" values="0 0 0 0 0 0 0 0 0 0 0 0 0 0 0 0 0 0 127 0" result="hardAlpha"/>
			<feOffset dx="0" dy="4"/>
			<feGaussianBlur stdDeviation="1.33333"/>
			<feComposite in2="hardAlpha" operator="out" k2="-1" k3="1"/>
			<feColorMatrix type="matrix" values="0 0 0 0 0 0 0 0 0 0 0 0 0 0 0 0 0 0 0.25 0"/>
			<feBlend mode="normal" in2="BackgroundImageFix" result="effect_dropShadow_1"/>
			<feBlend mode="normal" in="SourceGraphic" in2="effect_dropShadow_1" result="shape"/>
		</filter>
	</defs>
	<g filter="url(#filter_73601_15_dd)">
		<path id="Union" d="M20.9771 2.93457L21.1136 2.93457C21.3666 2.93457 21.6398 2.95996 21.9105 2.98279C23.1031 3.06689 24.2874 3.24548 25.4521 3.51685L25.4521 0.653564C24.2528 0.352661 23.0297 0.157837 21.7966 0.071167C21.3286 0.0356445 20.8303 0.0126953 20.3193 0L19.8917 0C17.4169 0.00927734 14.9526 0.327026 12.5555 0.945923C9.82532 1.62683 7.20471 2.69275 4.77161 4.11194L4.77161 32.5085C7.11438 31.2357 9.60718 30.2643 12.1913 29.6173C14.2317 29.0967 16.3175 28.7765 18.4194 28.6611L18.5029 28.6611C18.8546 28.6433 19.2062 28.6332 19.568 28.6306L19.568 25.7216C16.8368 25.7567 14.1194 26.1178 11.4729 26.7972C10.4939 27.0515 9.54773 27.3262 8.65979 27.6312L7.64795 27.9746L7.64795 5.8335L8.08044 5.62488C11.3817 4.05957 14.9523 3.14868 18.5966 2.94214C18.6268 2.93994 18.6573 2.93994 18.6876 2.94214C19.0898 2.92175 19.4946 2.91162 19.8917 2.91162L20.3472 2.91162C20.5571 2.91675 20.7671 2.92175 20.9771 2.93457ZM26.1528 5.86133C26.7877 5.90967 27.4454 5.93262 28.1108 5.93262C30.7125 5.9231 33.3031 5.59082 35.824 4.94336C38.4069 4.29395 40.8986 3.32178 43.2411 2.04956L43.2411 29.9402C40.8066 31.3585 38.1853 32.4243 35.4546 33.1061C33.0571 33.7227 30.593 34.0396 28.1184 34.0496C26.2433 34.0647 24.3737 33.8442 22.553 33.3934L22.553 5.32227C22.983 5.42151 23.4258 5.51306 23.876 5.58923C24.6147 5.71387 25.3938 5.80542 26.1528 5.86133ZM40.347 6.07751L39.3352 6.41833C38.4042 6.73108 37.4657 7.01074 36.5221 7.26001C33.7749 7.96594 30.9514 8.32812 28.1158 8.33813C27.4556 8.33813 26.8485 8.32043 26.2616 8.28223L25.4546 8.22888L25.4546 31.0057L26.1477 31.0668C26.7903 31.1227 27.453 31.1506 28.1208 31.1506C30.3544 31.1411 32.5781 30.8533 34.7412 30.2937C36.5223 29.8469 38.2552 29.2242 39.9144 28.4348L40.347 28.2263L40.347 6.07751Z" clip-rule="evenodd" fill="#AFB1B8" fill-opacity="1.000000" fill-rule="evenodd"/>
		<path id="Vector" d="M6.73718 42.2125C6.59167 42.0616 6.41626 41.9431 6.22241 41.8647C6.02844 41.7864 5.82031 41.7498 5.61145 41.7573C5.38879 41.7544 5.16785 41.7959 4.9613 41.8794C4.77185 41.9548 4.59973 42.0681 4.45532 42.2125C4.3125 42.3573 4.20129 42.5305 4.12903 42.7211C4.04968 42.9208 4.01013 43.1342 4.01257 43.3492L4.01257 47.1432C4.00354 47.4105 4.05457 47.6765 4.16187 47.9214C4.25146 48.1157 4.38074 48.2891 4.54138 48.4299C4.69299 48.5576 4.87097 48.6497 5.0625 48.6995C5.24695 48.7513 5.4375 48.7778 5.62915 48.7783C5.84045 48.7804 6.04956 48.7352 6.24133 48.6461C6.43091 48.5631 6.60278 48.444 6.74719 48.2952C6.88818 48.1477 7.00049 47.9753 7.07861 47.7866C7.15967 47.5952 7.20105 47.3893 7.20007 47.1814L7.20007 46.7567L6.20837 46.7567L6.20837 47.0948C6.21143 47.2103 6.19165 47.3253 6.15027 47.4331C6.11792 47.5139 6.06873 47.5867 6.0061 47.6467C5.94458 47.6963 5.87415 47.7335 5.79858 47.7561C5.73169 47.7783 5.66174 47.7904 5.59119 47.7916C5.50269 47.802 5.41296 47.7886 5.33118 47.7528C5.24951 47.7172 5.17859 47.6603 5.12573 47.5883C5.03223 47.4358 4.98645 47.2585 4.99414 47.0796L4.99414 43.5425C4.98804 43.3463 5.02966 43.1516 5.1156 42.9753C5.16711 42.8953 5.23987 42.8314 5.32581 42.7909C5.41162 42.7505 5.50708 42.7351 5.60132 42.7465C5.68677 42.7435 5.77173 42.7614 5.84875 42.7986C5.9259 42.8357 5.99292 42.8912 6.04395 42.9601C6.15491 43.1058 6.21301 43.2853 6.20837 43.4688L6.20837 43.7968L7.18994 43.7968L7.18994 43.4103C7.19189 43.1832 7.15076 42.958 7.06848 42.7465C6.99524 42.5477 6.88257 42.3661 6.73718 42.2125Z" fill="#AFB1B8" fill-opacity="1.000000" fill-rule="nonzero"/>
		<path id="Vector" d="M12.6289 42.1689C12.3127 41.902 11.9136 41.7545 11.5006 41.752C11.2987 41.7528 11.0984 41.7889 10.9087 41.8588C10.7162 41.9277 10.5385 42.0331 10.385 42.1689C10.2208 42.3167 10.0897 42.4978 10.0005 42.7004C9.90063 42.9323 9.85144 43.1829 9.85632 43.4353L9.85632 47.0742C9.84949 47.3302 9.89868 47.5846 10.0005 47.8193C10.0903 48.015 10.2216 48.1886 10.385 48.3279C10.5366 48.4688 10.7147 48.5776 10.9087 48.6483C11.0984 48.7181 11.2987 48.7543 11.5006 48.7551C11.7026 48.7548 11.9031 48.7186 12.0927 48.6483C12.2899 48.5767 12.4719 48.4679 12.6289 48.3279C12.7871 48.186 12.9146 48.0129 13.0033 47.8193C13.1051 47.5846 13.1543 47.3302 13.1475 47.0742L13.1475 43.4353C13.1523 43.1829 13.1033 42.9323 13.0033 42.7004C12.915 42.5 12.7877 42.3192 12.6289 42.1689ZM12.166 47.0742C12.1743 47.1713 12.1609 47.2689 12.1268 47.36C12.0927 47.451 12.0386 47.5333 11.9686 47.6007C11.8376 47.7104 11.6725 47.7706 11.502 47.7706C11.3313 47.7706 11.1661 47.7104 11.0352 47.6007C10.9652 47.5333 10.9113 47.451 10.8771 47.36C10.8429 47.2689 10.8295 47.1713 10.8379 47.0742L10.8379 43.4353C10.8295 43.3384 10.8429 43.2407 10.8771 43.1497C10.9113 43.0586 10.9652 42.9763 11.0352 42.9089C11.1661 42.7991 11.3313 42.739 11.502 42.739C11.6725 42.739 11.8376 42.7991 11.9686 42.9089C12.0386 42.9763 12.0927 43.0586 12.1268 43.1497C12.1609 43.2407 12.1743 43.3384 12.166 43.4353L12.166 47.0742Z" fill="#AFB1B8" fill-opacity="1.000000" fill-rule="nonzero"/>
		<path id="Vector" d="M20.3673 48.6993L20.3673 41.8105L19.4136 41.8105L18.1614 45.457L18.1437 45.457L16.8813 41.8105L15.9377 41.8105L15.9377 48.6993L16.9218 48.6993L16.9218 44.5085L16.9396 44.5085L17.9033 47.4711L18.3942 47.4711L19.3655 44.5085L19.3832 44.5085L19.3832 48.6993L20.3673 48.6993Z" fill="#AFB1B8" fill-opacity="1.000000" fill-rule="nonzero"/>
		<path id="Vector" d="M25.958 42.2936C25.8065 42.1235 25.6152 41.9941 25.4015 41.9172C25.1713 41.8423 24.9302 41.8062 24.6881 41.8104L23.226 41.8104L23.226 48.6991L24.2075 48.6991L24.2075 46.0088L24.7134 46.0088C25.0197 46.0227 25.3245 45.9579 25.5989 45.8206C25.822 45.6967 26.0081 45.5149 26.1377 45.2942C26.2512 45.111 26.3278 44.907 26.3628 44.6941C26.4015 44.4348 26.4192 44.173 26.4159 43.9109C26.4254 43.5801 26.3932 43.2494 26.3198 42.9268C26.2543 42.6884 26.1299 42.4706 25.958 42.2936ZM25.4521 44.394C25.4479 44.5187 25.4167 44.641 25.3611 44.7526C25.3049 44.8585 25.2162 44.9432 25.108 44.9941C24.9626 45.0591 24.8041 45.0887 24.6451 45.0806L24.1974 45.0806L24.1974 42.7385L24.7034 42.7385C24.8557 42.7311 25.0076 42.7607 25.146 42.8251C25.2476 42.8833 25.3281 42.9723 25.3762 43.0793C25.4298 43.2003 25.4591 43.3308 25.4623 43.4633C25.4623 43.6083 25.4623 43.7609 25.4623 43.921C25.4623 44.0812 25.4723 44.2465 25.4623 44.394L25.4521 44.394Z" fill="#AFB1B8" fill-opacity="1.000000" fill-rule="nonzero"/>
		<path id="Vector" d="M30.6077 41.8105L29.8032 41.8105L28.2854 48.6993L29.267 48.6993L29.5553 47.2194L30.8936 47.2194L31.1819 48.6993L32.1635 48.6993L30.6077 41.8105ZM29.702 46.281L30.1852 43.7838L30.2029 43.7838L30.6836 46.281L29.702 46.281Z" fill="#AFB1B8" fill-opacity="1.000000" fill-rule="nonzero"/>
		<path id="Vector" d="M36.9497 45.9606L36.932 45.9606L35.4496 41.8105L34.506 41.8105L34.506 48.6993L35.4875 48.6993L35.4875 44.5569L35.5078 44.5569L37.0079 48.6993L37.9313 48.6993L37.9313 41.8105L36.9497 41.8105L36.9497 45.9606Z" fill="#AFB1B8" fill-opacity="1.000000" fill-rule="nonzero"/>
		<path id="Vector" d="M42.9476 41.8105L42.1583 44.5493L42.1381 44.5493L41.3488 41.8105L40.3091 41.8105L41.6575 45.7877L41.6575 48.6993L42.6389 48.6993L42.6389 45.7877L43.9873 41.8105L42.9476 41.8105Z" fill="#AFB1B8" fill-opacity="1.000000" fill-rule="nonzero"/>
		<path id="Vector" d="M4 50.6447L4.47302 50.6447L4.47302 51.972L4.79431 51.972L4.79431 50.6447L5.26489 50.6447L5.26489 50.3726L4 50.3726L4 50.6447Z" fill="#AFB1B8" fill-opacity="1.000000" fill-rule="nonzero"/>
		<path id="Vector" d="M7.97668 50.3726L7.35693 51.972L7.69849 51.972L7.82996 51.6084L8.46753 51.6084L8.60413 51.972L8.95325 51.972L8.31824 50.3726L7.97668 50.3726ZM7.92615 51.3389L8.14368 50.7463L8.36121 51.3389L7.92615 51.3389Z" fill="#AFB1B8" fill-opacity="1.000000" fill-rule="nonzero"/>
		<path id="Vector" d="M11.908 51.3821L12.2772 51.3821L12.2772 51.5881C12.1694 51.6746 12.0358 51.722 11.8978 51.7229C11.8333 51.7264 11.7688 51.7145 11.7098 51.688C11.6509 51.6615 11.5991 51.6211 11.5588 51.5703C11.474 51.4485 11.4321 51.3018 11.4399 51.1533C11.4399 50.7972 11.5942 50.6193 11.9004 50.6193C11.981 50.6112 12.0616 50.6324 12.1281 50.6791C12.1943 50.7257 12.2419 50.7947 12.2621 50.8735L12.5782 50.8125C12.51 50.4998 12.2849 50.342 11.9004 50.342C11.6947 50.3365 11.4948 50.4103 11.3413 50.5481C11.2607 50.6277 11.1984 50.7239 11.1586 50.8302C11.1188 50.9365 11.1027 51.0502 11.1111 51.1635C11.1018 51.3823 11.1749 51.5966 11.3159 51.7635C11.3943 51.8444 11.4893 51.9071 11.594 51.9475C11.6989 51.9879 11.8112 52.0049 11.9231 51.9976C12.1733 52.0045 12.4165 51.9133 12.6011 51.7432L12.6011 51.1125L11.908 51.1125L11.908 51.3821Z" fill="#AFB1B8" fill-opacity="1.000000" fill-rule="nonzero"/>
		<path id="Vector" d="M15.9226 50.3726L15.5988 50.3726L15.5988 51.972L16.7195 51.972L16.7195 51.7L15.9226 51.7L15.9226 50.3726Z" fill="#AFB1B8" fill-opacity="1.000000" fill-rule="nonzero"/>
		<path id="Vector" d="M18.9937 50.3726L19.3175 50.3726L19.3175 51.972L18.9937 51.972L18.9937 50.3726Z" fill="#AFB1B8" fill-opacity="1.000000" fill-rule="evenodd"/>
		<path id="Vector" d="M22.6365 51.4406L21.9813 50.3726L21.6676 50.3726L21.6676 51.972L21.9686 51.972L21.9686 50.9269L22.6112 51.972L22.9325 51.972L22.9325 50.3726L22.6365 50.3726L22.6365 51.4406Z" fill="#AFB1B8" fill-opacity="1.000000" fill-rule="nonzero"/>
		<path id="Vector" d="M25.6368 51.2677L26.4337 51.2677L26.4337 50.9956L25.6368 50.9956L25.6368 50.6447L26.4944 50.6447L26.4944 50.3726L25.313 50.3726L25.313 51.972L26.5272 51.972L26.5272 51.7L25.6368 51.7L25.6368 51.2677Z" fill="#AFB1B8" fill-opacity="1.000000" fill-rule="nonzero"/>
		<path id="Vector" d="M32.9122 51.0032L32.2823 51.0032L32.2823 50.3726L31.9611 50.3726L31.9611 51.972L32.2823 51.972L32.2823 51.2727L32.9122 51.2727L32.9122 51.972L33.2335 51.972L33.2335 50.3726L32.9122 50.3726L32.9122 51.0032Z" fill="#AFB1B8" fill-opacity="1.000000" fill-rule="nonzero"/>
		<path id="Vector" d="M35.9302 51.2677L36.7295 51.2677L36.7295 50.9956L35.9302 50.9956L35.9302 50.6447L36.7903 50.6447L36.7903 50.3726L35.6089 50.3726L35.6089 51.972L36.8207 51.972L36.8207 51.7L35.9302 51.7L35.9302 51.2677Z" fill="#AFB1B8" fill-opacity="1.000000" fill-rule="nonzero"/>
		<path id="Vector" d="M40.0232 51.2676C40.3015 51.2244 40.4432 51.0769 40.4432 50.8226C40.4513 50.7545 40.4409 50.6855 40.4133 50.6229C40.3857 50.5603 40.3419 50.5063 40.2864 50.4666C40.1415 50.3938 39.9799 50.3613 39.8184 50.3726L39.1404 50.3726L39.1404 51.972L39.4617 51.972L39.4617 51.3032L39.5249 51.3032C39.5934 51.299 39.6619 51.3112 39.7247 51.3389C39.7717 51.3678 39.8108 51.408 39.8386 51.4558L40.1877 51.9644L40.5723 51.9644L40.3774 51.6516C40.2913 51.4972 40.1699 51.3656 40.0232 51.2676ZM39.6995 51.0464L39.4617 51.0464L39.4617 50.6447L39.7146 50.6447C39.8248 50.6356 39.9357 50.6486 40.041 50.6827C40.0643 50.7034 40.0828 50.7291 40.095 50.7579C40.1072 50.7867 40.1127 50.8179 40.1112 50.8491C40.1099 50.8804 40.1013 50.911 40.0865 50.9385C40.0718 50.9661 40.051 50.9899 40.0258 51.0082C39.9202 51.0406 39.8096 51.0536 39.6995 51.0464Z" fill="#AFB1B8" fill-opacity="1.000000" fill-rule="nonzero"/>
		<path id="Vector" d="M43.1096 51.2677L43.9064 51.2677L43.9064 50.9956L43.1096 50.9956L43.1096 50.6447L43.9697 50.6447L43.9697 50.3726L42.7858 50.3726L42.7858 51.972L44 51.972L44 51.7L43.1096 51.7L43.1096 51.2677Z" fill="#AFB1B8" fill-opacity="1.000000" fill-rule="nonzero"/>
	</g>
</svg>
