<svg width="62.539978" height="45.433472" viewBox="0 0 62.54 45.4335" fill="none" xmlns="http://www.w3.org/2000/svg" xmlns:xlink="http://www.w3.org/1999/xlink">
	<desc>
			Created with Pixso.
	</desc>
	<defs/>
	<path id="Vector" d="M4.7569 37.9685C5.00055 38.2446 5.13037 38.5905 5.1236 38.9454C5.13599 39.177 5.09137 39.4082 4.99304 39.6218C4.89471 39.8354 4.74512 40.026 4.55542 40.1796C4.08203 40.5068 3.49554 40.6669 2.90369 40.6302L0 40.6302L0 34.4387L2.84424 34.4387C3.40564 34.4045 3.96265 34.5499 4.41992 34.8501C4.60364 34.9908 4.74908 35.1688 4.84479 35.3699C4.94055 35.5708 4.98395 35.7896 4.97162 36.0085C4.98828 36.3501 4.87115 36.6858 4.6413 36.9552C4.42059 37.2013 4.1156 37.3718 3.77582 37.4392C4.16101 37.5035 4.50873 37.6912 4.7569 37.9685ZM1.35107 37.0339L2.56677 37.0339C2.84302 37.0526 3.11743 36.9796 3.33972 36.8282C3.43103 36.7524 3.50201 36.6586 3.5473 36.5536C3.59253 36.4487 3.61084 36.3357 3.60071 36.2233C3.60931 36.1113 3.59064 35.9989 3.54608 35.8943C3.50153 35.7897 3.43219 35.6954 3.34302 35.6184C3.11407 35.4628 2.83118 35.3885 2.54694 35.4097L1.35107 35.4097L1.35107 37.0339ZM3.45868 39.4082C3.55621 39.3307 3.63293 39.2336 3.6828 39.1245C3.7326 39.0154 3.75427 38.8972 3.74603 38.7792C3.75348 38.6597 3.73083 38.5403 3.67987 38.4302C3.62891 38.3201 3.55096 38.222 3.45203 38.1439C3.21423 37.9825 2.92169 37.9032 2.62622 37.9202L1.35107 37.9202L1.35107 39.623L2.6427 39.623C2.93347 39.6383 3.22125 39.5626 3.45868 39.4082Z" fill="#AFB1B8" fill-opacity="1.000000" fill-rule="nonzero"/>
	<path id="Vector" d="M10.5709 40.6302L8.98859 38.2104L8.39398 38.2104L8.39398 40.6302L7.03296 40.6302L7.03296 34.4387L9.60962 34.4387C10.2591 34.3972 10.9012 34.5857 11.4034 34.9651C11.7635 35.301 11.9808 35.7439 12.0159 36.2136C12.051 36.6833 11.9017 37.149 11.595 37.527C11.2771 37.8604 10.8428 38.0828 10.3661 38.156L12.0508 40.6302L10.5709 40.6302ZM8.39398 37.3666L9.5072 37.3666C10.2802 37.3666 10.6667 37.0541 10.6667 36.429C10.6746 36.3013 10.6534 36.1736 10.6045 36.0538C10.5556 35.9341 10.48 35.825 10.3826 35.7333C10.1383 35.5472 9.82373 35.457 9.5072 35.4823L8.38074 35.4823L8.39398 37.3666Z" fill="#AFB1B8" fill-opacity="1.000000" fill-rule="nonzero"/>
	<path id="Vector" d="M18.0101 39.384L15.298 39.384L14.819 40.6302L13.392 40.6302L15.8828 34.5083L17.4254 34.5083L19.9062 40.6302L18.4792 40.6302L18.0101 39.384ZM17.6467 38.4464L16.6557 35.8331L15.6647 38.4464L17.6467 38.4464Z" fill="#AFB1B8" fill-opacity="1.000000" fill-rule="nonzero"/>
	<path id="Vector" d="M27.3223 40.6301L25.9713 40.6301L22.942 36.4199L22.942 40.6301L21.5942 40.6301L21.5942 34.4387L22.942 34.4387L25.9713 38.6732L25.9713 34.4387L27.3223 34.4387L27.3223 40.6301Z" fill="#AFB1B8" fill-opacity="1.000000" fill-rule="nonzero"/>
	<path id="Vector" d="M35.0326 39.1482C34.7532 39.6156 34.3276 39.9958 33.8103 40.2401C33.2222 40.5121 32.5695 40.6461 31.9109 40.6302L29.506 40.6302L29.506 34.4387L31.9109 34.4387C32.5684 34.4231 33.2202 34.5538 33.8103 34.8198C34.3275 35.0585 34.7536 35.4349 35.0326 35.8997C35.3107 36.4032 35.4556 36.9596 35.4556 37.5239C35.4556 38.0883 35.3107 38.6445 35.0326 39.1482ZM33.4866 39C33.8722 38.5886 34.0842 38.0645 34.0842 37.5225C34.0842 36.9803 33.8722 36.4562 33.4866 36.0448C33.0205 35.6724 32.4127 35.4832 31.7952 35.5186L30.8571 35.5186L30.8571 39.5262L31.7952 39.5262C32.4127 39.5616 33.0205 39.3724 33.4866 39Z" fill="#AFB1B8" fill-opacity="1.000000" fill-rule="nonzero"/>
	<path id="Vector" d="M18.8558 0C18.8558 0 36.2945 6.02808 35.9245 14.7512L35.9245 29.5055C35.9245 29.5055 18.4991 23.4744 18.8624 14.7512L18.8558 0Z" fill="#AFB1B8" fill-opacity="1.000000" fill-rule="nonzero"/>
	<path id="Vector" d="M51.4603 26.0515C54.7538 23.9762 58.5633 22.6908 62.5399 22.313L62.5399 17.6943C57.9579 19.3113 54.0709 22.2433 51.4603 26.0515Z" fill="#AFB1B8" fill-opacity="1.000000" fill-rule="nonzero"/>
	<path id="Vector" d="M49.4816 27.4427C52.1773 22.4729 56.8505 18.6378 62.54 16.7264L62.54 3.41797C62.54 3.41797 37.705 12.005 38.2303 24.4272L38.2303 45.4335C38.2303 45.4335 39.3369 45.0493 41.0778 44.3295C41.0778 43.658 41.0778 42.9805 41.157 42.2999C41.6711 36.5328 44.6653 31.1888 49.4816 27.4427Z" fill="#AFB1B8" fill-opacity="1.000000" fill-rule="nonzero"/>
	<path id="Vector" d="M47.1197 35.2463C47.2502 33.7896 47.5413 32.3485 47.9885 30.9453C44.9896 34.1804 43.1735 38.1947 42.7955 42.4238C42.7592 42.8231 42.7394 43.2224 42.7295 43.6338C44.1401 43.0137 45.7819 42.2394 47.5062 41.329C47.0662 39.3281 46.936 37.2805 47.1197 35.2463Z" fill="#AFB1B8" fill-opacity="1.000000" fill-rule="nonzero"/>
	<path id="Vector" d="M48.1074 35.322C47.9421 37.1624 48.0454 39.0145 48.4146 40.8298C55.1998 37.1125 62.824 31.3688 62.53 24.4272L62.53 23.8223C57.6823 24.319 53.1468 26.2593 49.6204 29.3453C48.7947 31.2577 48.2848 33.272 48.1074 35.322Z" fill="#AFB1B8" fill-opacity="1.000000" fill-rule="nonzero"/>
</svg>
