<svg width="70.000000" height="70.000000" viewBox="0 0 70 70" fill="none" xmlns="http://www.w3.org/2000/svg" xmlns:xlink="http://www.w3.org/1999/xlink">
	<desc>
			Created with Pixso.
	</desc>
	<defs>
		<clipPath id="clip1_354">
			<rect id="diagram 1" width="70.000000" height="70.000000" fill="white" fill-opacity="0"/>
		</clipPath>
	</defs>
	<rect id="diagram 1" width="70.000000" height="70.000000" fill="#FFFFFF" fill-opacity="0"/>
	<g clip-path="url(#clip1_354)">
		<path id="Vector" d="M32.6496 32.7351L34.9817 32.7351L34.9817 43.2296L32.6496 43.2296L32.6496 32.7351Z" fill="#2196F3" fill-opacity="1.000000" fill-rule="nonzero"/>
		<path id="Vector" d="M41.978 37.3993L44.3101 37.3993L44.3101 43.2296L41.978 43.2296L41.978 37.3993Z" fill="#2196F3" fill-opacity="1.000000" fill-rule="nonzero"/>
		<path id="Vector" d="M23.3211 40.8975L25.6532 40.8975L25.6532 43.2296L23.3211 43.2296L23.3211 40.8975Z" fill="#2196F3" fill-opacity="1.000000" fill-rule="nonzero"/>
		<path id="Vector" d="M16.3248 39.7314L18.6569 39.7314L18.6569 43.2296L16.3248 43.2296L16.3248 39.7314Z" fill="#2196F3" fill-opacity="1.000000" fill-rule="nonzero"/>
		<path id="Vector" d="M3.49817 61.8865L59.4689 61.8865C61.4007 61.8865 62.967 60.3202 62.967 58.3884L62.967 53.7241C62.967 51.7922 61.4007 50.226 59.4689 50.226L58.3028 50.226L58.3028 21.1469L64.9262 14.8725C66.4635 15.6303 68.3242 15.1702 69.3302 13.7816C70.3369 12.3934 70.1957 10.4821 68.9966 9.25684C67.7975 8.03156 65.8901 7.84882 64.4798 8.8241C63.0701 9.79999 62.569 11.6498 63.2933 13.2037L58.3028 17.9345L58.3028 15.2443C58.3028 13.3124 56.7365 11.7461 54.8046 11.7461L8.16241 11.7461C6.23053 11.7461 4.66425 13.3124 4.66425 15.2443L4.66425 50.226L3.49817 50.226C1.56635 50.226 0 51.7922 0 53.7241L0 58.3884C0 60.3202 1.56635 61.8865 3.49817 61.8865ZM66.4652 10.58C67.1091 10.58 67.6312 11.1022 67.6312 11.7461C67.6312 12.39 67.1091 12.9122 66.4652 12.9122C65.8212 12.9122 65.2991 12.39 65.2991 11.7461C65.2991 11.1022 65.8212 10.58 66.4652 10.58ZM6.99634 15.2443C6.99634 14.6003 7.51843 14.0782 8.16241 14.0782L54.8046 14.0782C55.4486 14.0782 55.9707 14.6003 55.9707 15.2443L55.9707 20.1414L53.6385 22.3573L53.6385 17.5764C53.6385 16.9324 53.1165 16.4103 52.4725 16.4103L10.4945 16.4103C9.85052 16.4103 9.32843 16.9324 9.32843 17.5764L9.32843 46.7278C9.32843 47.3717 9.85052 47.8939 10.4945 47.8939L52.4725 47.8939C53.1165 47.8939 53.6385 47.3717 53.6385 46.7278L53.6385 25.5651L55.9707 23.3554L55.9707 50.226L6.99634 50.226L6.99634 15.2443ZM17.4908 30.403C15.9131 30.3984 14.5279 31.4495 14.1083 32.9703C13.6887 34.491 14.3383 36.104 15.6951 36.9091C17.0513 37.7142 18.7793 37.5121 19.9129 36.4149L23.9662 38.4487C24.4371 38.6844 25.0081 38.5739 25.3583 38.1805L33.9745 28.4871L42.4443 34.8338C42.8987 35.1743 43.533 35.1378 43.9452 34.7478L51.3065 27.7748L51.3065 45.5617L11.6606 45.5617L11.6606 18.7424L51.3065 18.7424L51.3065 24.5619L43.0564 32.3747L34.5154 25.9716C34.0303 25.6084 33.3476 25.6767 32.9445 26.1293L24.2099 35.9572L20.9446 34.3242C20.9685 34.1841 20.9833 34.0429 20.989 33.9012C20.989 31.9693 19.4227 30.403 17.4908 30.403ZM18.6569 33.9012C18.6569 34.5451 18.1348 35.0672 17.4908 35.0672C16.8469 35.0672 16.3248 34.5451 16.3248 33.9012C16.3248 33.2572 16.8469 32.7351 17.4908 32.7351C18.1348 32.7351 18.6569 33.2572 18.6569 33.9012ZM25.6533 52.558L37.3138 52.558L37.3138 53.7241C37.3138 54.368 36.7917 54.8902 36.1477 54.8902L26.8193 54.8902C26.1754 54.8902 25.6533 54.368 25.6533 53.7241L25.6533 52.558ZM2.33209 53.7241C2.33209 53.0802 2.85425 52.558 3.49817 52.558L23.3211 52.558L23.3211 53.7241C23.3211 55.6559 24.8875 57.2223 26.8193 57.2223L36.1477 57.2223C38.0796 57.2223 39.6459 55.6559 39.6459 53.7241L39.6459 52.558L59.4689 52.558C60.1128 52.558 60.6349 53.0802 60.6349 53.7241L60.6349 58.3884C60.6349 59.0323 60.1128 59.5544 59.4689 59.5544L3.49817 59.5544C2.85425 59.5544 2.33209 59.0323 2.33209 58.3884L2.33209 53.7241Z" fill="#212121" fill-opacity="1.000000" fill-rule="nonzero"/>
	</g>
</svg>
