<svg width="20.000000" height="20.000000" viewBox="0 0 20 20" fill="none" xmlns="http://www.w3.org/2000/svg" xmlns:xlink="http://www.w3.org/1999/xlink">
	<desc>
			Created with Pixso.
	</desc>
	<defs>
		<clipPath id="clip1_492">
			<rect id="instagram 2" width="20.000000" height="20.000000" fill="white" fill-opacity="0"/>
		</clipPath>
	</defs>
	<rect id="instagram 2" width="20.000000" height="20.000000" fill="#FFFFFF" fill-opacity="0"/>
	<g clip-path="url(#clip1_492)">
		<path id="Vector" d="M19.9805 5.88007C19.9336 4.81738 19.7617 4.08679 19.5156 3.45374C19.2616 2.78174 18.8708 2.18011 18.359 1.67999C17.8589 1.17212 17.2533 0.777405 16.5891 0.527466C15.9524 0.28125 15.2256 0.109436 14.163 0.062561C13.0924 0.0117798 12.7524 0 10.0371 0C7.32178 0 6.98181 0.0117798 5.91516 0.0585938C4.85254 0.105469 4.12195 0.277466 3.48901 0.523499C2.81689 0.777405 2.21533 1.16815 1.71521 1.67999C1.20728 2.18011 0.812744 2.78571 0.562622 3.44995C0.316406 4.08679 0.144531 4.81342 0.0977783 5.8761C0.046875 6.94672 0.0351562 7.28656 0.0351562 10.002C0.0351562 12.7173 0.046875 13.0572 0.09375 14.1238C0.140625 15.1865 0.312622 15.9171 0.558838 16.5502C0.812744 17.2222 1.20728 17.8238 1.71521 18.3239C2.21533 18.8318 2.82092 19.2265 3.48511 19.4764C4.12195 19.7227 4.84851 19.8945 5.91138 19.9413C6.97791 19.9883 7.31787 19.9999 10.0333 19.9999C12.7487 19.9999 13.0885 19.9883 14.1552 19.9413C15.2179 19.8945 15.9485 19.7227 16.5813 19.4764C17.9254 18.9568 18.9882 17.8941 19.5078 16.5502C19.7538 15.9133 19.9258 15.1865 19.9727 14.1238C20.0195 13.0572 20.0312 12.7173 20.0312 10.002C20.0312 7.28656 20.0273 6.94672 19.9805 5.88007ZM18.1794 14.0457C18.1364 15.0225 17.9723 15.5499 17.8356 15.9016C17.4995 16.7728 16.808 17.4644 15.9366 17.8004C15.5851 17.9371 15.0538 18.1012 14.0808 18.1441C13.026 18.1911 12.7096 18.2027 10.041 18.2027C7.37256 18.2027 7.05225 18.1911 6.0011 18.1441C5.02441 18.1012 4.49695 17.9371 4.14526 17.8004C3.71167 17.6401 3.31702 17.3862 2.9967 17.0541C2.66455 16.7298 2.41064 16.3391 2.25037 15.9055C2.11365 15.5539 1.94958 15.0225 1.90674 14.0497C1.85974 12.9948 1.84814 12.6783 1.84814 10.0098C1.84814 7.34119 1.85974 7.02087 1.90674 5.96997C1.94958 4.99316 2.11365 4.46576 2.25037 4.11414C2.41064 3.68036 2.66455 3.28589 3.00061 2.96533C3.32483 2.63324 3.71558 2.37933 4.14929 2.21924C4.50085 2.08246 5.03235 1.9184 6.00513 1.87537C7.05994 1.82849 7.37646 1.81677 10.0449 1.81677C12.7174 1.81677 13.0337 1.82849 14.0848 1.87537C15.0615 1.9184 15.589 2.08246 15.9407 2.21924C16.3743 2.37933 16.7689 2.63324 17.0892 2.96533C17.4214 3.28967 17.6753 3.68036 17.8356 4.11414C17.9723 4.46576 18.1364 4.99701 18.1794 5.96997C18.2262 7.02484 18.238 7.34119 18.238 10.0098C18.238 12.6783 18.2262 12.9908 18.1794 14.0457Z" fill="#AFB1B8" fill-opacity="1.000000" fill-rule="nonzero"/>
		<path id="Vector" d="M10.0371 4.86426C7.20068 4.86426 4.89941 7.16541 4.89941 10.002C4.89941 12.8385 7.20068 15.1397 10.0371 15.1397C12.8737 15.1397 15.1748 12.8385 15.1748 10.002C15.1748 7.16541 12.8737 4.86426 10.0371 4.86426ZM10.0371 13.3347C8.19702 13.3347 6.70447 11.8422 6.70447 10.002C6.70447 8.16174 8.19702 6.66925 10.0371 6.66925C11.8774 6.66925 13.3699 8.16174 13.3699 10.002C13.3699 11.8422 11.8774 13.3347 10.0371 13.3347Z" fill="#AFB1B8" fill-opacity="1.000000" fill-rule="nonzero"/>
		<path id="Vector" d="M16.5775 4.66107C16.5775 5.32349 16.0404 5.86053 15.3779 5.86053C14.7156 5.86053 14.1785 5.32349 14.1785 4.66107C14.1785 3.9986 14.7156 3.46167 15.3779 3.46167C16.0404 3.46167 16.5775 3.9986 16.5775 4.66107Z" fill="#AFB1B8" fill-opacity="1.000000" fill-rule="nonzero"/>
	</g>
</svg>
