<svg width="20.000000" height="20.000000" viewBox="0 0 20 20" fill="none" xmlns="http://www.w3.org/2000/svg" xmlns:xlink="http://www.w3.org/1999/xlink">
	<desc>
			Created with Pixso.
	</desc>
	<defs>
		<clipPath id="clip1_448">
			<rect id="linkedin 1" width="20.000000" height="20.000000" fill="white" fill-opacity="0"/>
		</clipPath>
	</defs>
	<rect id="linkedin 1" width="20.000000" height="20.000000" fill="#FFFFFF" fill-opacity="0"/>
	<g clip-path="url(#clip1_448)">
		<path id="Vector" d="M19.9951 20.0001L19.9951 19.9993L20.0001 19.9993L20.0001 12.6642C20.0001 9.07593 19.2275 6.31177 15.0326 6.31177C13.0159 6.31177 11.6626 7.41846 11.1101 8.46759L11.0518 8.46759L11.0518 6.64679L7.07422 6.64679L7.07422 19.9993L11.2159 19.9993L11.2159 13.3876C11.2159 11.6468 11.5459 9.96344 13.7018 9.96344C15.8259 9.96344 15.8575 11.9501 15.8575 13.4993L15.8575 20.0001L19.9951 20.0001Z" fill="#AFB1B8" fill-opacity="1.000000" fill-rule="nonzero"/>
		<path id="Vector" d="M0.330078 6.64746L4.47681 6.64746L4.47681 19.9999L0.330078 19.9999L0.330078 6.64746Z" fill="#AFB1B8" fill-opacity="1.000000" fill-rule="nonzero"/>
		<path id="Vector" d="M2.40161 0C1.07581 0 0 1.07581 0 2.40167C0 3.72748 1.07581 4.82581 2.40161 4.82581C3.72754 4.82581 4.80334 3.72748 4.80334 2.40167C4.80249 1.07581 3.72668 0 2.40161 0L2.40161 0Z" fill="#AFB1B8" fill-opacity="1.000000" fill-rule="nonzero"/>
	</g>
</svg>
