<svg width="16.000000" height="12.000000" viewBox="0 0 16 12" fill="none" xmlns="http://www.w3.org/2000/svg" xmlns:xlink="http://www.w3.org/1999/xlink">
	<desc>
			Created with Pixso.
	</desc>
	<defs/>
	<path d="M14.5 0L1.5 0C0.672852 0 0 0.672852 0 1.5L0 10.5C0 11.3271 0.672852 12 1.5 12L14.5 12C15.3271 12 16 11.3271 16 10.5L16 1.5C16 0.672852 15.3271 0 14.5 0ZM14.5 1C14.5679 1 14.6326 1.01404 14.6917 1.0387L8 6.83838L1.30835 1.0387C1.36743 1.01416 1.43201 1 1.5 1L14.5 1ZM14.5 11L1.5 11C1.22412 11 1 10.7759 1 10.5L1 2.09521L7.67236 7.87793C7.7666 7.95947 7.8833 8 8 8C8.1167 8 8.2334 7.95947 8.32764 7.87793L15 2.09521L15 10.5C15 10.7759 14.7759 11 14.5 11Z" fill="#757575" fill-opacity="1.000000" fill-rule="nonzero"/>
</svg>
