<svg width="10.000000" height="16.000000" viewBox="0 0 10 16" fill="none" xmlns="http://www.w3.org/2000/svg" xmlns:xlink="http://www.w3.org/1999/xlink">
	<desc>
			Created with Pixso.
	</desc>
	<defs/>
	<path id="Vector" d="M8.5 0L1.5 0C0.672852 0 0 0.672852 0 1.5L0 14.5C0 15.3271 0.672852 16 1.5 16L8.5 16C9.32715 16 10 15.3271 10 14.5L10 1.5C10 0.672852 9.32715 0 8.5 0ZM1.5 1L8.5 1C8.77588 1 9 1.22412 9 1.5L9 12L1 12L1 1.5C1 1.22412 1.22412 1 1.5 1ZM8.5 15L1.5 15C1.22412 15 1 14.7759 1 14.5L1 13L9 13L9 14.5C9 14.7759 8.77588 15 8.5 15Z" fill="#757575" fill-opacity="1.000000" fill-rule="nonzero"/>
</svg>
