<svg aria-hidden="true" style="position: absolute; width: 0; height: 0; overflow: hidden;" version="1.1" xmlns="http://www.w3.org/2000/svg" xmlns:xlink="http://www.w3.org/1999/xlink">
<defs>
<symbol id="antenna" viewBox="0 0 32 32">
<path  d="M30.773 22.098l-8.443-8.505 0.937-4.615c0.242 0.094 0.499 0.144 0.758 0.146h0.006c1.192 0.014 2.17-0.941 2.184-2.133s-0.941-2.17-2.133-2.184c-1.192-0.014-2.17 0.941-2.184 2.133-0.003 0.255 0.039 0.509 0.125 0.749l-4.96 0.605-8.091-8.133c-0.099-0.101-0.235-0.159-0.377-0.16-0.14 0.001-0.274 0.056-0.373 0.155l-1.513 1.504c-0.208 0.208-0.208 0.546 0 0.754l0.814 0.826c-3.153 5.798-2.129 12.978 2.519 17.663 0.043 0.041 0.092 0.074 0.146 0.098-0.034 0.18-0.051 0.364-0.052 0.547v6.187h-6.4c-1.472 0.002-2.665 1.195-2.667 2.667v1.067c0 0.295 0.239 0.533 0.533 0.533h24.533c0.294 0 0.533-0.239 0.533-0.533v-1.067c-0.002-1.472-1.195-2.665-2.667-2.667h-6.4v-2.742c1.003 0.21 2.024 0.317 3.049 0.32 2.458-0.003 4.877-0.615 7.040-1.783l0.818 0.823c0.099 0.101 0.235 0.159 0.377 0.16 0.14-0.001 0.274-0.056 0.373-0.155l1.513-1.504c0.208-0.208 0.208-0.546 0-0.754zM23.28 6.233c0.418-0.415 1.093-0.414 1.508 0.004s0.414 1.093-0.004 1.508c-0.2 0.199-0.47 0.31-0.752 0.31h-0.003c-0.589-0.003-1.064-0.483-1.061-1.072 0.002-0.282 0.115-0.552 0.314-0.751h-0.002zM22.024 9.738l-0.598 2.946-1.175-1.182 1.774-1.763zM21.418 8.836l-1.92 1.909-1.485-1.493 3.405-0.415zM24.004 28.8c0.884 0 1.6 0.716 1.6 1.6v0.533h-23.467v-0.533c0-0.884 0.716-1.6 1.6-1.6h20.267zM16.537 26.667v1.067h-5.333v-1.067h5.333zM11.204 25.6v-4.053c0-1.294 1.196-2.347 2.667-2.347s2.667 1.053 2.667 2.347v4.053h-5.333zM17.604 23.904v-2.357c0-1.882-1.675-3.413-3.733-3.413-1.331-0.020-2.576 0.657-3.281 1.786-4.058-4.274-4.971-10.645-2.279-15.887l18.602 18.708c-2.872 1.461-6.165 1.873-9.309 1.163zM28.893 23.22l-21.057-21.181 0.755-0.752 7.935 7.98c0.004 0 0.006 0.007 0.010 0.010l13.115 13.192-0.757 0.752z"></path>
<path fill="#2196f3" style="fill: var(--color2, #2196f3)" d="M13.876 20.267h-0.005c-0.884-0.001-1.601 0.714-1.602 1.598s0.714 1.601 1.598 1.602h0.005c0.884 0.001 1.601-0.714 1.602-1.598s-0.714-1.601-1.598-1.602zM14.249 22.245c-0.1 0.1-0.236 0.156-0.378 0.155-0.295-0.002-0.532-0.242-0.531-0.536 0.001-0.141 0.057-0.276 0.157-0.375s0.233-0.154 0.373-0.155c0.295 0.002 0.532 0.242 0.53 0.536-0.001 0.141-0.057 0.276-0.157 0.375h0.005z"></path>
</symbol>
<symbol id="astronaut" viewBox="0 0 32 32">
<path fill="#2196f3" style="fill: var(--color2, #2196f3)" d="M31.974 4.524c-0.063-0.193-0.229-0.333-0.43-0.363l-1.91-0.278-0.855-1.731c-0.179-0.365-0.777-0.365-0.956 0l-0.855 1.731-1.91 0.278c-0.201 0.029-0.367 0.17-0.431 0.363-0.062 0.193-0.011 0.405 0.135 0.547l1.383 1.348-0.326 1.903c-0.034 0.2 0.048 0.402 0.212 0.522 0.166 0.121 0.382 0.135 0.562 0.040l1.709-0.899 1.709 0.899c0.078 0.041 0.164 0.061 0.249 0.061 0.11 0 0.221-0.034 0.314-0.102 0.164-0.119 0.246-0.322 0.212-0.522l-0.326-1.903 1.383-1.348c0.145-0.142 0.197-0.354 0.135-0.547zM29.511 5.851c-0.125 0.122-0.183 0.299-0.153 0.472l0.191 1.114-1-0.526c-0.078-0.041-0.163-0.061-0.249-0.061s-0.17 0.020-0.249 0.061l-1.001 0.526 0.191-1.114c0.030-0.173-0.028-0.349-0.153-0.472l-0.81-0.789 1.119-0.163c0.174-0.025 0.324-0.134 0.402-0.292l0.5-1.013 0.5 1.013c0.078 0.157 0.228 0.267 0.402 0.292l1.119 0.163-0.809 0.789z"></path>
<path fill="#2196f3" style="fill: var(--color2, #2196f3)" d="M25.067 20.522h1.067v1.067h-1.067v-1.067z"></path>
<path fill="#2196f3" style="fill: var(--color2, #2196f3)" d="M25.067 22.656h1.067v1.067h-1.067v-1.067z"></path>
<path fill="#2196f3" style="fill: var(--color2, #2196f3)" d="M26.134 21.589h1.067v1.067h-1.067v-1.067z"></path>
<path fill="#2196f3" style="fill: var(--color2, #2196f3)" d="M24 21.589h1.067v1.067h-1.067v-1.067z"></path>
<path fill="#2196f3" style="fill: var(--color2, #2196f3)" d="M21.333 26.389h1.067v1.067h-1.067v-1.067z"></path>
<path fill="#2196f3" style="fill: var(--color2, #2196f3)" d="M21.333 28.522h1.067v1.067h-1.067v-1.067z"></path>
<path fill="#2196f3" style="fill: var(--color2, #2196f3)" d="M22.4 27.456h1.067v1.067h-1.067v-1.067z"></path>
<path fill="#2196f3" style="fill: var(--color2, #2196f3)" d="M20.267 27.456h1.067v1.067h-1.067v-1.067z"></path>
<path fill="#2196f3" style="fill: var(--color2, #2196f3)" d="M14.933 24.256h1.067v1.067h-1.067v-1.067z"></path>
<path fill="#2196f3" style="fill: var(--color2, #2196f3)" d="M14.933 26.389h1.067v1.067h-1.067v-1.067z"></path>
<path fill="#2196f3" style="fill: var(--color2, #2196f3)" d="M16 25.322h1.067v1.067h-1.067v-1.067z"></path>
<path fill="#2196f3" style="fill: var(--color2, #2196f3)" d="M13.867 25.322h1.067v1.067h-1.067v-1.067z"></path>
<path fill="#2196f3" style="fill: var(--color2, #2196f3)" d="M4.8 6.122h1.067v1.067h-1.067v-1.067z"></path>
<path fill="#2196f3" style="fill: var(--color2, #2196f3)" d="M4.8 8.255h1.067v1.067h-1.067v-1.067z"></path>
<path fill="#2196f3" style="fill: var(--color2, #2196f3)" d="M5.866 7.189h1.067v1.067h-1.067v-1.067z"></path>
<path fill="#2196f3" style="fill: var(--color2, #2196f3)" d="M3.733 7.189h1.067v1.067h-1.067v-1.067z"></path>
<path fill="#212121" style="fill: var(--color1, #212121)" d="M24.715 14.159c-0.287-0.388-0.709-0.637-1.188-0.705-0.481-0.068-0.956 0.058-1.34 0.352l-1.252 0.96-1.898 1.417-1.358-0.541c2.421-1.086 4.114-3.508 4.114-6.32 0-3.823-3.123-6.933-6.961-6.933s-6.961 3.11-6.961 6.933c0 1.386 0.414 2.674 1.12 3.758l-2.764-0.024c-0.002 0-0.003 0-0.005 0-0.009 0-0.015 0.004-0.023 0.005-0.053 0.002-0.105 0.013-0.155 0.031-0.013 0.005-0.026 0.008-0.038 0.013-0.006 0.003-0.013 0.003-0.019 0.006l-3.233 1.596c-0.001 0-0.001 0-0.001 0.001l-1.893 0.911c-0.021 0.009-0.042 0.021-0.063 0.035-0.755 0.502-1.012 1.489-0.598 2.295 0.22 0.429 0.595 0.745 1.056 0.889 0.178 0.055 0.359 0.083 0.539 0.083 0.29 0 0.577-0.071 0.839-0.211l1.388-0.738 2.264-1.169 1.357-0.008-5.442 5.416c-0.001 0.001-0.001 0.001-0.002 0.001l-1.339 1.333c-0.316 0.315-0.49 0.732-0.49 1.178s0.174 0.863 0.49 1.179c0.325 0.323 0.752 0.485 1.179 0.485s0.854-0.162 1.18-0.485l1.314-1.309 1.741-1.3 0.901 0.897-1.762 1.754c-0 0.001-0.001 0.001-0.002 0.001l-1.339 1.333c-0.316 0.315-0.49 0.732-0.49 1.178s0.174 0.863 0.49 1.179c0.325 0.323 0.753 0.485 1.18 0.485s0.855-0.162 1.18-0.485l3.482-3.467c0.001-0.001 0.001-0.001 0.001-0.002l1.010-1-0.004-0.004c0.006-0.006 0.015-0.009 0.022-0.015l5.166-5.658 3.471 0.494c0.025 0.004 0.050 0.005 0.075 0.005 0.065 0 0.127-0.015 0.187-0.038 0.018-0.006 0.033-0.015 0.050-0.023 0.019-0.010 0.039-0.015 0.058-0.027l3.213-2.133c0.012-0.008 0.018-0.021 0.029-0.029 0.013-0.010 0.029-0.014 0.041-0.026l1.271-1.191c0.662-0.62 0.753-1.635 0.212-2.362zM2.13 17.77c-0.173 0.093-0.37 0.111-0.558 0.052-0.187-0.058-0.338-0.186-0.427-0.358-0.161-0.314-0.068-0.695 0.214-0.902l1.314-0.632 0.449 1.312-0.992 0.528zM5.628 15.942l-1.548 0.8-0.439-1.283 2.027-1.001-0.040 1.484zM20.727 9.322c0 0.918-0.219 1.785-0.599 2.559l-4.181-1.899c-0.044-0.573-0.341-1.075-0.788-1.388l1.464-4.86c2.378 0.756 4.105 2.974 4.105 5.588zM8.938 9.322c0-3.235 2.644-5.867 5.894-5.867 0.253 0 0.5 0.021 0.745 0.052l-1.432 4.754c-0.019-0.001-0.037-0.006-0.057-0.006-1.033 0-1.873 0.837-1.873 1.867s0.84 1.867 1.873 1.867c0.694 0 1.294-0.383 1.618-0.945l3.862 1.755c-1.075 1.446-2.795 2.39-4.737 2.39-3.25 0-5.894-2.632-5.894-5.867zM14.894 10.122c0 0.441-0.362 0.8-0.806 0.8s-0.806-0.359-0.806-0.8c0-0.441 0.362-0.8 0.806-0.8s0.806 0.359 0.806 0.8zM2.465 25.146c-0.236 0.234-0.619 0.234-0.854 0.001-0.114-0.114-0.176-0.263-0.176-0.423s0.062-0.309 0.176-0.421l0.962-0.959 0.851 0.848-0.959 0.955zM5.679 28.88c-0.236 0.234-0.619 0.235-0.855 0.001-0.114-0.114-0.176-0.263-0.176-0.423s0.062-0.309 0.176-0.421l0.963-0.959 0.852 0.848-0.96 0.955zM9.16 25.411c-0.001 0-0.001 0-0.002 0.001l-1.765 1.76-0.852-0.848 1.763-1.755c0 0 0 0 0-0s0.001-0.001 0.002-0.001c0.040-0.040 0.065-0.088 0.090-0.135 0.007-0.014 0.020-0.026 0.026-0.040 0.017-0.041 0.019-0.085 0.026-0.129 0.003-0.025 0.014-0.047 0.014-0.073 0-0.036-0.013-0.070-0.020-0.106-0.006-0.032-0.006-0.065-0.019-0.095-0.020-0.050-0.055-0.094-0.091-0.138-0.010-0.012-0.014-0.027-0.025-0.038 0 0 0 0-0.001 0s-0.001-0.002-0.001-0.002l-1.607-1.6c-0.017-0.017-0.039-0.024-0.058-0.038-0.028-0.022-0.055-0.042-0.087-0.058-0.030-0.015-0.061-0.024-0.093-0.033-0.034-0.010-0.067-0.017-0.103-0.020-0.033-0.002-0.063 0.001-0.095 0.005-0.036 0.004-0.069 0.009-0.104 0.020-0.034 0.011-0.063 0.027-0.094 0.045-0.020 0.011-0.042 0.015-0.061 0.029l-1.773 1.324-0.901-0.897 2.399-2.386 4.361 4.289-0.928 0.919zM15.979 18.394c-0.015-0.002-0.030 0.004-0.045 0.003-0.039-0.002-0.076 0.001-0.115 0.007-0.030 0.005-0.059 0.011-0.088 0.021-0.034 0.012-0.065 0.028-0.097 0.047-0.030 0.018-0.057 0.037-0.083 0.061-0.013 0.011-0.028 0.017-0.040 0.029l-4.698 5.146-4.328-4.257 2.833-2.818c0.209-0.208 0.21-0.546 0.002-0.755-0.105-0.105-0.243-0.157-0.381-0.156v-0l-2.219 0.013 0.028-1.607 3.104 0.027c1.265 1.294 3.029 2.101 4.981 2.101 0.437 0 0.864-0.045 1.279-0.123 0.040 0.032 0.079 0.065 0.13 0.085l2.41 0.96 0.152 0.758 0.178 0.885-3.003-0.427zM20.020 18.572l-0.313-1.558 1.446-1.080 0.947 1.257-2.080 1.381zM23.774 15.741l-0.838 0.785-0.931-1.236 0.831-0.637c0.155-0.119 0.351-0.168 0.543-0.143 0.193 0.027 0.364 0.128 0.48 0.284 0.217 0.292 0.18 0.699-0.085 0.947z"></path>
<path fill="#212121" style="fill: var(--color1, #212121)" d="M13.602 18.544l-2.143-2.133c-0.207-0.207-0.545-0.207-0.753 0l-2.142 2.133c-0.1 0.101-0.157 0.236-0.157 0.378s0.056 0.278 0.157 0.378l2.142 2.133c0.104 0.103 0.241 0.155 0.377 0.155s0.273-0.052 0.376-0.155l2.143-2.133c0.1-0.1 0.157-0.236 0.157-0.378s-0.057-0.278-0.157-0.378zM11.083 20.303l-1.387-1.381 1.387-1.381 1.387 1.381-1.387 1.381z"></path>
<path fill="#212121" style="fill: var(--color1, #212121)" d="M17.164 5.071l-0.258 1.036c0.071 0.018 1.738 0.452 1.738 2.149h1.067c-0-2.017-1.666-2.965-2.547-3.185z"></path>
<path fill="#212121" style="fill: var(--color1, #212121)" d="M18.644 9.322h1.067v1.067h-1.067v-1.067z"></path>
</symbol>
<symbol id="clock" viewBox="0 0 32 32">
<path fill="#212121" style="fill: var(--color1, #212121)" d="M31.297 15.301c-0.002-8.452-6.855-15.303-15.308-15.301s-15.303 6.855-15.301 15.308c0.001 6.658 4.307 12.551 10.649 14.576 0.061 0.019 0.123 0.029 0.187 0.029 0.121-0 0.239-0.032 0.343-0.094 0.135-0.080 0.236-0.207 0.283-0.356l3.865-12.25c1.057-0.005 1.909-0.866 1.903-1.923s-0.866-1.909-1.923-1.903c-0.284 0.001-0.565 0.067-0.82 0.191l-5.106-5.107c-0.253-0.245-0.657-0.238-0.902 0.016-0.239 0.247-0.239 0.639 0 0.886l5.103 5.109c-0.392 0.799-0.168 1.764 0.536 2.309l-3.683 11.673c-7.278-2.681-11.004-10.754-8.323-18.032s10.754-11.004 18.032-8.323 11.004 10.754 8.324 18.032c-1.31 3.556-4.001 6.431-7.462 7.973l-0.398-1.874c-0.073-0.344-0.411-0.565-0.756-0.492-0.109 0.023-0.209 0.074-0.292 0.148l-3.837 3.426c-0.263 0.234-0.287 0.637-0.052 0.9 0.076 0.085 0.174 0.149 0.283 0.184l4.899 1.563c0.335 0.108 0.694-0.077 0.802-0.412 0.034-0.106 0.040-0.219 0.017-0.328l-0.391-1.839c5.664-2.388 9.342-7.942 9.329-14.089zM15.992 14.664c0.352 0 0.638 0.286 0.638 0.638s-0.286 0.638-0.638 0.638c-0.352 0-0.638-0.285-0.638-0.638s0.285-0.638 0.638-0.638zM18.093 29.528l2.184-1.948 0.603 2.84-2.787-0.892z"></path>
<path fill="#2196f3" style="fill: var(--color2, #2196f3)" d="M15.354 3.185v1.275c0 0.352 0.285 0.638 0.638 0.638s0.638-0.285 0.638-0.638v-1.275c0-0.352-0.286-0.638-0.638-0.638s-0.638 0.286-0.638 0.638z"></path>
<path fill="#2196f3" style="fill: var(--color2, #2196f3)" d="M3.876 14.664c-0.352 0-0.638 0.286-0.638 0.638s0.285 0.638 0.638 0.638h1.275c0.352 0 0.638-0.285 0.638-0.638s-0.285-0.638-0.638-0.638h-1.275z"></path>
<path fill="#2196f3" style="fill: var(--color2, #2196f3)" d="M28.108 15.939c0.352 0 0.638-0.285 0.638-0.638s-0.285-0.638-0.638-0.638h-1.275c-0.352 0-0.638 0.286-0.638 0.638s0.286 0.638 0.638 0.638h1.275z"></path>
</symbol>
<symbol id="company1" viewBox="0 0 28 32">
<path  d="M4.111 0l4.802 4.546-8.913-0.005v22.054h23.296v-8.432l4.796 4.541v-22.703h-23.982zM23.086 4.74v12.889l-13.615-12.889h13.615zM18.859 23.369h-15.172v-14.833h1.072v13.828h14.1v1.004zM10.874 30.8c-0.061 0.094-0.092 0.197-0.092 0.309 0 0.205 0.072 0.372 0.216 0.5 0.145 0.127 0.338 0.191 0.579 0.191q0.271 0 0.485-0.11 0.072-0.037 0.137-0.086l0.137 0.162h0.472l-0.358-0.423q0.211-0.288 0.211-0.738h-0.353c0 0.164-0.034 0.313-0.102 0.447l-0.47-0.555 0.166-0.12c0.117-0.085 0.201-0.17 0.253-0.254 0.051-0.086 0.077-0.18 0.077-0.281q0-0.115-0.043-0.212t-0.128-0.175c-0.113-0.105-0.258-0.157-0.435-0.157-0.196 0-0.352 0.056-0.468 0.167-0.116 0.11-0.174 0.261-0.174 0.452 0 0.078 0.018 0.159 0.055 0.243 0.038 0.084 0.104 0.185 0.199 0.304-0.181 0.129-0.302 0.242-0.363 0.336zM15.501 31.583c0.167-0.146 0.263-0.349 0.288-0.609h-0.422c-0.022 0.174-0.075 0.298-0.159 0.373s-0.209 0.112-0.375 0.112c-0.182 0-0.32-0.069-0.415-0.207q-0.141-0.207-0.141-0.602v-0.216c0.002-0.26 0.052-0.457 0.151-0.59 0.099-0.135 0.241-0.202 0.425-0.202 0.158 0 0.278 0.039 0.36 0.117 0.083 0.077 0.134 0.203 0.154 0.378h0.422c-0.027-0.267-0.122-0.473-0.286-0.619s-0.38-0.219-0.649-0.219c-0.2 0-0.376 0.047-0.529 0.142-0.152 0.095-0.268 0.23-0.35 0.405s-0.122 0.377-0.122 0.607v0.228c0.003 0.224 0.045 0.421 0.125 0.59s0.194 0.301 0.341 0.393c0.148 0.091 0.319 0.137 0.514 0.137 0.278 0 0.5-0.073 0.667-0.217zM17.988 31.242c0.083-0.181 0.124-0.39 0.124-0.629v-0.135c-0.001-0.238-0.044-0.446-0.127-0.624q-0.097-0.208-0.256-0.34-0.047-0.039-0.1-0.072c-0.153-0.096-0.328-0.144-0.527-0.144s-0.375 0.049-0.529 0.146q-0.041 0.026-0.079 0.056-0.173 0.137-0.277 0.361c-0.084 0.182-0.125 0.391-0.125 0.629v0.137c0.001 0.233 0.043 0.439 0.127 0.617 0.085 0.178 0.204 0.316 0.358 0.413 0.155 0.096 0.331 0.144 0.529 0.144 0.2 0 0.376-0.048 0.529-0.144 0.154-0.097 0.272-0.235 0.355-0.415zM7.269 29.332l-0.56 1.154-0.56-1.154h-0.47l0.818 1.539v0.897h0.425v-0.897l0.816-1.539h-0.468zM7.973 31.767l0.197-0.567h0.944l0.199 0.567h0.442l-0.922-2.436h-0.38l-0.92 2.436h0.44zM11.536 30.26c-0.115-0.142-0.172-0.259-0.172-0.353 0-0.081 0.023-0.149 0.070-0.202s0.11-0.080 0.189-0.080c0.074 0 0.134 0.023 0.182 0.069 0.048 0.045 0.072 0.099 0.072 0.162 0 0.096-0.035 0.175-0.104 0.236l-0.052 0.042-0.186 0.127zM17.535 29.865c0.103 0.144 0.154 0.351 0.154 0.621v0.127c0 0.274-0.051 0.483-0.152 0.626-0.1 0.143-0.244 0.214-0.432 0.214-0.185 0-0.33-0.073-0.435-0.219-0.104-0.146-0.156-0.353-0.156-0.621v-0.141c0.002-0.262 0.055-0.464 0.157-0.607 0.104-0.144 0.247-0.216 0.43-0.216 0.187 0 0.332 0.072 0.433 0.216zM8.642 29.848l0.353 1.010h-0.706l0.353-1.010zM11.973 31.339c-0.119 0.091-0.248 0.137-0.385 0.137q-0.148 0-0.248-0.070-0.023-0.016-0.043-0.036c-0.072-0.070-0.109-0.162-0.109-0.274 0-0.13 0.067-0.247 0.201-0.348l0.052-0.037 0.532 0.627z"></path>
</symbol>
<symbol id="company2" viewBox="0 0 25 32">
<path d="M10.447 1.806h0.084c0.156 0 0.324 0.016 0.49 0.030 0.734 0.052 1.463 0.162 2.179 0.329v-1.762c-0.738-0.185-1.491-0.305-2.25-0.358-0.288-0.022-0.595-0.036-0.909-0.044h-0.263c-1.523 0.006-3.039 0.201-4.515 0.582-1.68 0.419-3.293 1.075-4.79 1.948v17.475c1.442-0.783 2.976-1.381 4.566-1.779 1.256-0.32 2.539-0.517 3.833-0.588h0.051c0.216-0.011 0.433-0.017 0.655-0.019v-1.79c-1.681 0.022-3.353 0.244-4.982 0.662-0.602 0.157-1.185 0.326-1.731 0.513l-0.623 0.211v-13.625l0.266-0.128c2.032-0.963 4.229-1.524 6.471-1.651 0.019-0.001 0.037-0.001 0.056 0 0.248-0.013 0.497-0.019 0.741-0.019h0.28c0.129 0.003 0.258 0.006 0.388 0.014zM13.633 3.607c0.391 0.030 0.795 0.044 1.205 0.044 1.601-0.006 3.195-0.21 4.747-0.609 1.589-0.4 3.123-0.998 4.564-1.781v17.163c-1.498 0.873-3.111 1.529-4.792 1.948-1.475 0.379-2.992 0.574-4.515 0.581-1.154 0.009-2.304-0.126-3.425-0.404v-17.275c0.265 0.061 0.537 0.117 0.814 0.164 0.455 0.077 0.934 0.133 1.401 0.167zM22.367 3.74l-0.623 0.21c-0.573 0.192-1.15 0.365-1.731 0.518-1.691 0.434-3.428 0.657-5.173 0.663-0.406 0-0.78-0.011-1.141-0.034l-0.497-0.033v14.017l0.427 0.038c0.395 0.034 0.803 0.052 1.214 0.052 1.375-0.006 2.743-0.183 4.074-0.527 1.096-0.275 2.162-0.658 3.183-1.144l0.266-0.128v-13.63z"></path>
<path  d="M1.68 25.975c-0.086-0.092-0.197-0.166-0.314-0.215-0.123-0.049-0.246-0.074-0.375-0.068-0.142 0-0.277 0.025-0.4 0.074-0.117 0.049-0.228 0.117-0.314 0.209-0.086 0.086-0.154 0.197-0.203 0.314-0.049 0.123-0.068 0.252-0.068 0.382v2.338c-0.006 0.166 0.025 0.326 0.092 0.48 0.055 0.117 0.135 0.222 0.234 0.308 0.092 0.080 0.203 0.135 0.32 0.166 0.111 0.037 0.228 0.049 0.345 0.049 0.135 0.006 0.258-0.025 0.382-0.080 0.117-0.049 0.222-0.123 0.308-0.215s0.16-0.197 0.203-0.314c0.049-0.117 0.080-0.246 0.080-0.369v-0.265h-0.615v0.209c0.006 0.074-0.006 0.142-0.031 0.209-0.025 0.049-0.055 0.092-0.092 0.129-0.037 0.031-0.080 0.055-0.129 0.068-0.037 0.012-0.080 0.025-0.123 0.025-0.055 0.006-0.111-0.006-0.16-0.025-0.055-0.025-0.098-0.055-0.129-0.105-0.055-0.092-0.086-0.203-0.080-0.314v-2.172c-0.006-0.123 0.018-0.24 0.074-0.351 0.031-0.049 0.074-0.086 0.129-0.111s0.111-0.037 0.172-0.031c0.049 0 0.105 0.012 0.148 0.031 0.049 0.025 0.092 0.062 0.123 0.105 0.068 0.086 0.105 0.197 0.098 0.308v0.203h0.603v-0.234c0.006-0.142-0.018-0.283-0.074-0.412-0.043-0.123-0.111-0.234-0.203-0.326z"></path>
<path  d="M5.305 25.945c-0.191-0.16-0.437-0.252-0.689-0.252-0.129 0-0.252 0.018-0.369 0.062s-0.228 0.111-0.32 0.191c-0.098 0.092-0.185 0.203-0.234 0.332-0.062 0.142-0.092 0.295-0.092 0.449v2.24c-0.006 0.16 0.025 0.314 0.092 0.455 0.055 0.123 0.135 0.228 0.234 0.314 0.092 0.086 0.203 0.154 0.32 0.197s0.24 0.068 0.369 0.068c0.123 0 0.246-0.025 0.363-0.068s0.234-0.111 0.326-0.197c0.098-0.086 0.178-0.191 0.234-0.314 0.062-0.142 0.092-0.295 0.086-0.455v-2.24c0.006-0.154-0.025-0.308-0.086-0.449-0.055-0.123-0.135-0.24-0.234-0.332zM5.022 28.966c0.006 0.062 0 0.117-0.025 0.178-0.018 0.055-0.055 0.105-0.098 0.148-0.080 0.068-0.178 0.105-0.283 0.105s-0.209-0.037-0.289-0.105c-0.043-0.043-0.074-0.092-0.098-0.148-0.018-0.062-0.031-0.117-0.025-0.178v-2.24c-0.006-0.062 0.006-0.117 0.025-0.178 0.025-0.055 0.055-0.105 0.098-0.148 0.080-0.068 0.185-0.105 0.289-0.105s0.203 0.037 0.283 0.105c0.043 0.043 0.080 0.092 0.098 0.148 0.025 0.062 0.031 0.117 0.025 0.178v2.24z"></path>
<path  d="M10.068 29.963v-4.234h-0.585l-0.769 2.24h-0.012l-0.775-2.24h-0.585v4.234h0.609v-2.578h0.006l0.597 1.828h0.302l0.597-1.828h0.012v2.578h0.603z"></path>
<path  d="M13.508 26.025c-0.092-0.105-0.209-0.185-0.338-0.234-0.142-0.043-0.289-0.068-0.443-0.062h-0.898v4.234h0.603v-1.655h0.314c0.185 0.012 0.375-0.031 0.542-0.111 0.142-0.080 0.252-0.191 0.332-0.326 0.074-0.111 0.117-0.24 0.142-0.369 0.025-0.16 0.031-0.32 0.031-0.48 0.006-0.203-0.012-0.412-0.062-0.609-0.037-0.148-0.117-0.277-0.222-0.388zM13.2 27.317c-0.006 0.074-0.025 0.154-0.055 0.222-0.037 0.062-0.092 0.117-0.16 0.148-0.086 0.037-0.185 0.055-0.283 0.055h-0.277v-1.446h0.314c0.092 0 0.185 0.018 0.271 0.055 0.062 0.037 0.111 0.092 0.142 0.154 0.031 0.080 0.049 0.16 0.055 0.24 0 0.086 0 0.185 0 0.283s0.006 0.197 0 0.289h-0.006z"></path>
<path  d="M16.369 25.729h-0.492l-0.935 4.234h0.603l0.178-0.911h0.825l0.178 0.911h0.603l-0.96-4.234zM15.815 28.48l0.295-1.538h0.012l0.295 1.538h-0.603z"></path>
<path  d="M20.271 28.283h-0.006l-0.917-2.554h-0.578v4.234h0.603v-2.548h0.012l0.923 2.548h0.572v-4.234h-0.609v2.554z"></path>
<path  d="M23.963 25.729l-0.486 1.68h-0.012l-0.486-1.68h-0.64l0.831 2.443v1.791h0.603v-1.791l0.831-2.443h-0.64z"></path>
<path fill="#afb1b8" style="fill: var(--color1, #afb1b8)" d="M0 31.163h0.289v0.818h0.197v-0.818h0.289v-0.166h-0.775v0.166z"></path>
<path  d="M2.443 30.997l-0.382 0.985h0.209l0.080-0.228h0.394l0.086 0.228h0.215l-0.394-0.985h-0.209zM2.412 31.588l0.135-0.363 0.135 0.363h-0.271z"></path>
<path d="M4.862 31.618h0.228v0.123c-0.068 0.055-0.148 0.086-0.234 0.086-0.037 0-0.080-0.006-0.117-0.025-0.031-0.012-0.068-0.037-0.092-0.068-0.049-0.080-0.074-0.166-0.074-0.258 0-0.222 0.098-0.332 0.289-0.332 0.049 0 0.098 0.012 0.135 0.037 0.043 0.031 0.074 0.074 0.086 0.123l0.191-0.037c-0.037-0.197-0.178-0.289-0.412-0.289-0.129-0.006-0.252 0.043-0.345 0.123-0.049 0.049-0.092 0.111-0.117 0.178-0.025 0.062-0.031 0.135-0.025 0.203-0.006 0.135 0.037 0.265 0.123 0.369 0.049 0.049 0.105 0.086 0.172 0.111 0.062 0.025 0.135 0.037 0.203 0.031 0.154 0.006 0.302-0.049 0.418-0.154v-0.388h-0.431v0.166z"></path>
<path  d="M7.335 30.997h-0.203v0.985h0.689v-0.166h-0.486v-0.818z"></path>
<path  d="M9.225 30.997h0.197v0.985h-0.197v-0.985z"></path>
<path  d="M11.465 31.655l-0.4-0.658h-0.197v0.985h0.185v-0.646l0.4 0.646h0.197v-0.985h-0.185v0.658z"></path>
<path  d="M13.311 31.545h0.492v-0.166h-0.492v-0.215h0.529v-0.166h-0.726v0.985h0.745v-0.166h-0.548v-0.271z"></path>
<path  d="M17.791 31.385h-0.388v-0.388h-0.197v0.985h0.197v-0.431h0.388v0.431h0.197v-0.985h-0.197v0.388z"></path>
<path  d="M19.649 31.545h0.486v-0.166h-0.486v-0.215h0.529v-0.166h-0.732v0.985h0.751v-0.166h-0.548v-0.271z"></path>
<path  d="M22.166 31.545c0.172-0.025 0.258-0.117 0.258-0.271 0.006-0.043 0-0.086-0.018-0.123s-0.043-0.074-0.080-0.098c-0.086-0.043-0.191-0.062-0.289-0.055h-0.412v0.985h0.197v-0.412h0.037c0.043-0.006 0.086 0.006 0.123 0.018 0.031 0.018 0.055 0.043 0.068 0.074l0.215 0.314h0.24l-0.123-0.191c-0.049-0.098-0.129-0.178-0.215-0.24zM21.963 31.409h-0.142v-0.246h0.154c0.068-0.006 0.135 0 0.203 0.025 0.012 0.012 0.025 0.025 0.031 0.043s0.012 0.037 0.012 0.055c-0.006 0.025-0.006 0.043-0.018 0.055-0.006 0.018-0.018 0.031-0.037 0.043-0.062 0.025-0.135 0.031-0.203 0.025z"></path>
<path d="M24.062 31.545h0.492v-0.166h-0.492v-0.215h0.529v-0.166h-0.726v0.985h0.751v-0.166h-0.554v-0.271z"></path>
</symbol>
<symbol id="company3" viewBox="0 0 34 32">
<path  d="M5.227 31.394c0.012 0 0.025 0.003 0.036 0.007s0.021 0.011 0.030 0.019l0.17 0.162c-0.132 0.131-0.294 0.236-0.477 0.307-0.214 0.078-0.444 0.116-0.676 0.11-0.218 0.004-0.434-0.031-0.636-0.103-0.182-0.066-0.345-0.165-0.479-0.291-0.136-0.13-0.242-0.283-0.309-0.449-0.074-0.185-0.111-0.38-0.108-0.576-0.003-0.197 0.037-0.393 0.117-0.578 0.074-0.167 0.186-0.32 0.328-0.449 0.145-0.127 0.318-0.226 0.508-0.293 0.209-0.070 0.431-0.105 0.655-0.103 0.208-0.004 0.415 0.028 0.608 0.094 0.168 0.063 0.322 0.151 0.455 0.26l-0.142 0.173c-0.010 0.012-0.022 0.023-0.036 0.031-0.017 0.010-0.037 0.015-0.057 0.013-0.022-0.001-0.043-0.008-0.061-0.018l-0.076-0.046-0.106-0.059c-0.046-0.022-0.093-0.041-0.142-0.057-0.063-0.020-0.127-0.035-0.193-0.046-0.083-0.013-0.168-0.020-0.252-0.018-0.161-0.002-0.321 0.024-0.47 0.077-0.139 0.049-0.265 0.123-0.369 0.217-0.106 0.1-0.187 0.218-0.239 0.346-0.060 0.147-0.089 0.301-0.087 0.457-0.003 0.158 0.027 0.315 0.087 0.464 0.052 0.127 0.132 0.244 0.235 0.344 0.097 0.093 0.217 0.166 0.352 0.214 0.138 0.050 0.287 0.075 0.436 0.074 0.086 0.001 0.173-0.004 0.258-0.015 0.14-0.015 0.274-0.057 0.392-0.123 0.059-0.034 0.115-0.072 0.167-0.114 0.022-0.018 0.050-0.028 0.080-0.029z"></path>
<path  d="M10.12 30.58c0.003 0.195-0.036 0.389-0.114 0.572-0.069 0.166-0.178 0.318-0.319 0.445s-0.312 0.226-0.501 0.292c-0.415 0.138-0.873 0.138-1.288 0-0.188-0.066-0.357-0.166-0.498-0.293-0.141-0.129-0.251-0.282-0.322-0.449-0.153-0.371-0.153-0.776 0-1.147 0.072-0.167 0.182-0.32 0.322-0.451 0.142-0.123 0.311-0.218 0.498-0.282 0.414-0.14 0.874-0.14 1.288 0 0.188 0.066 0.358 0.166 0.5 0.293 0.139 0.128 0.248 0.279 0.32 0.444 0.078 0.184 0.117 0.38 0.114 0.576zM9.676 30.58c0.003-0.156-0.024-0.312-0.081-0.46-0.047-0.127-0.125-0.244-0.227-0.344-0.099-0.095-0.222-0.169-0.358-0.217-0.301-0.101-0.635-0.101-0.936 0-0.136 0.048-0.259 0.123-0.358 0.217-0.103 0.099-0.181 0.217-0.229 0.344-0.108 0.3-0.108 0.621 0 0.92 0.048 0.127 0.126 0.245 0.229 0.344 0.099 0.094 0.222 0.168 0.358 0.215 0.302 0.098 0.634 0.098 0.936 0 0.136-0.048 0.259-0.121 0.358-0.215 0.102-0.1 0.179-0.217 0.227-0.344 0.057-0.148 0.084-0.304 0.081-0.46z"></path>
<path  d="M13.46 31.062l0.044 0.103c0.017-0.037 0.032-0.070 0.049-0.103 0.016-0.035 0.034-0.068 0.055-0.101l1.083-1.71c0.021-0.029 0.040-0.048 0.061-0.053 0.029-0.008 0.059-0.011 0.089-0.009h0.32v2.781h-0.379v-2.045c0-0.026 0-0.055 0-0.087-0.002-0.032-0.002-0.064 0-0.096l-1.089 1.734c-0.014 0.026-0.036 0.048-0.064 0.063s-0.060 0.023-0.093 0.023h-0.061c-0.033 0.001-0.065-0.007-0.093-0.023s-0.050-0.037-0.063-0.064l-1.121-1.745c0 0.033 0 0.066 0 0.099s0 0.063 0 0.088v2.045h-0.367v-2.776h0.32c0.030-0.002 0.060 0.002 0.089 0.009 0.026 0.011 0.047 0.030 0.059 0.053l1.106 1.712c0.022 0.032 0.040 0.065 0.055 0.099z"></path>
<path  d="M17.534 30.924v1.042h-0.424v-2.777h0.945c0.178-0.003 0.356 0.017 0.528 0.061 0.137 0.034 0.264 0.093 0.373 0.173 0.094 0.075 0.167 0.169 0.212 0.272 0.050 0.113 0.074 0.234 0.072 0.355 0.002 0.122-0.025 0.243-0.078 0.355-0.051 0.107-0.129 0.202-0.229 0.278-0.109 0.084-0.237 0.146-0.375 0.184-0.165 0.046-0.337 0.068-0.511 0.064l-0.513-0.007zM17.534 30.626h0.513c0.111 0.001 0.222-0.013 0.328-0.042 0.087-0.026 0.168-0.066 0.237-0.12 0.064-0.051 0.113-0.114 0.144-0.184 0.035-0.074 0.052-0.154 0.051-0.234 0.005-0.077-0.010-0.154-0.043-0.226s-0.084-0.137-0.148-0.19c-0.162-0.11-0.365-0.163-0.57-0.149h-0.513v1.145z"></path>
<path  d="M23.228 31.97h-0.335c-0.034 0.001-0.067-0.008-0.093-0.026-0.024-0.017-0.043-0.039-0.055-0.064l-0.288-0.672h-1.447l-0.299 0.672c-0.011 0.025-0.029 0.046-0.053 0.063-0.027 0.019-0.061 0.029-0.095 0.028h-0.335l1.271-2.782h0.441l1.288 2.782zM21.131 30.937h1.195l-0.504-1.132c-0.039-0.085-0.070-0.172-0.095-0.261l-0.049 0.145c-0.015 0.044-0.032 0.085-0.047 0.118l-0.5 1.13z"></path>
<path  d="M25.059 29.201c0.025 0.012 0.047 0.029 0.064 0.050l1.854 2.097c0-0.033 0-0.066 0-0.098s0-0.063 0-0.092v-1.97h0.379v2.781h-0.212c-0.030 0.001-0.060-0.005-0.087-0.017-0.026-0.013-0.049-0.031-0.068-0.052l-1.852-2.095c0.002 0.032 0.002 0.064 0 0.096 0 0.031 0 0.059 0 0.085v1.983h-0.379v-2.781h0.225c0.026-0.001 0.052 0.004 0.076 0.013z"></path>
<path d="M30.478 30.863v1.105h-0.424v-1.105l-1.172-1.675h0.379c0.033-0.002 0.065 0.007 0.091 0.024 0.023 0.018 0.042 0.039 0.057 0.063l0.733 1.081c0.030 0.046 0.055 0.088 0.076 0.129s0.038 0.079 0.053 0.118l0.055-0.12c0.021-0.044 0.045-0.086 0.072-0.127l0.723-1.088c0.015-0.022 0.034-0.041 0.055-0.059 0.025-0.019 0.058-0.029 0.091-0.028h0.383l-1.174 1.683z"></path>
<path  d="M13.25 24.521c0.184 0.020 0.371 0.037 0.559 0.052 2.859-1.111 5.277-2.93 6.953-5.228s2.534-4.975 2.469-7.696l-3.15-2.737c0.641 2.896 0.341 5.89-0.865 8.647s-3.272 5.168-5.965 6.963z"></path>
<path  d="M12.125 24.393l0.085 0.015c2.878-1.789 5.072-4.286 6.299-7.17s1.43-6.021 0.582-9.006l-4.487-3.899c1.815 3.205 2.546 6.791 2.107 10.342s-2.029 6.921-4.585 9.718z"></path>
<path  d="M27.343 14.862c-0.762 2.989-2.614 5.685-5.28 7.687-0.779 0.588-1.618 1.112-2.508 1.565 2.171-0.554 4.166-1.534 5.832-2.865s2.958-2.975 3.776-4.808l-1.82-1.579z"></path>
<path  d="M26.629 14.422l-2.591-2.251c-0.050 2.567-0.889 5.075-2.432 7.264s-3.732 3.98-6.341 5.185h0.013c0.581-0 1.162-0.030 1.739-0.090 2.438-0.864 4.592-2.24 6.269-4.004s2.826-3.861 3.343-6.104z"></path>
<path  d="M12.5 2.689l-3.091-2.689c-2.763 0.928-5.14 2.559-6.819 4.679s-2.582 4.632-2.59 7.206v0c0.010 2.844 1.112 5.604 3.131 7.843s4.839 3.829 8.015 4.518c2.835-3.001 4.495-6.709 4.738-10.586s-0.942-7.72-3.385-10.971z"></path>
<path  d="M33.77 14.008c-0.011-3.374-1.559-6.608-4.305-8.994s-6.468-3.731-10.351-3.74c-1.795-0.002-3.574 0.286-5.248 0.849l18.925 16.443c0.648-1.454 0.98-2.999 0.979-4.558z"></path>
</symbol>
<symbol id="company4" viewBox="0 0 67 32">
<path  d="M10.353 9.77h0.002c1.889 0 3.42 1.361 3.42 3.040v0.002c0 1.679-1.531 3.040-3.42 3.040h-0.002c-1.889 0-3.42-1.361-3.42-3.040v-0.002c0-1.679 1.531-3.040 3.42-3.040z"></path>
<path  d="M35.601 8.798c-0.005-2.332-1.050-4.566-2.905-6.215s-4.37-2.578-6.993-2.583v0c-2.624 0.004-5.14 0.933-6.996 2.582s-2.901 3.884-2.906 6.217v12.858c0 0 19.798-1.96 19.801-12.856v-0.002z"></path>
<path  d="M0 25.876c0.005 1.622 0.732 3.177 2.023 4.325s3.040 1.794 4.865 1.799c1.825-0.005 3.574-0.651 4.865-1.798s2.018-2.701 2.023-4.323v-8.947c0 0-13.776 1.365-13.776 8.945zM6.888 27.479c-0.357 0-0.705-0.094-1.002-0.27s-0.528-0.426-0.664-0.719c-0.136-0.293-0.172-0.615-0.103-0.926s0.241-0.597 0.494-0.821c0.252-0.224 0.574-0.377 0.924-0.439s0.713-0.030 1.042 0.091c0.33 0.121 0.611 0.327 0.81 0.59s0.304 0.573 0.304 0.891c0.001 0.211-0.045 0.42-0.135 0.615s-0.223 0.373-0.391 0.522c-0.168 0.15-0.367 0.268-0.586 0.349s-0.454 0.123-0.692 0.123v-0.006z"></path>
<path  d="M23.962 27.236q0.175-0.374 0.175-0.87v-0.15q0-0.494-0.179-0.871-0.135-0.285-0.355-0.47-0.071-0.060-0.15-0.109-0.068-0.042-0.139-0.075-0.274-0.127-0.607-0.127t-0.607 0.127q-0.072 0.033-0.139 0.075-0.080 0.049-0.15 0.109-0.22 0.185-0.355 0.47-0.179 0.377-0.179 0.873v0.166q0.002 0.485 0.182 0.857 0.131 0.272 0.341 0.452 0.078 0.067 0.166 0.121 0.073 0.045 0.151 0.080 0.27 0.121 0.595 0.121 0.339 0 0.616-0.131 0.068-0.032 0.133-0.072 0.092-0.057 0.172-0.128 0.204-0.18 0.33-0.449zM26.325 26.872q0.059 0.089 0.059 0.217 0 0.101-0.044 0.177-0.034 0.059-0.095 0.103-0.138 0.1-0.385 0.1-0.391 0-0.552-0.192-0.113-0.135-0.113-0.364h-0.695q0 0.243 0.093 0.443 0.032 0.067 0.074 0.13 0.003 0.005 0.006 0.009 0.167 0.24 0.479 0.38 0.318 0.142 0.706 0.142 0.558 0 0.888-0.248 0.142-0.107 0.223-0.249 0.107-0.187 0.107-0.435 0-0.222-0.087-0.403-0.066-0.139-0.184-0.253-0.27-0.263-0.861-0.441-0.321-0.097-0.486-0.208-0.117-0.079-0.151-0.184-0.014-0.043-0.014-0.090 0-0.086 0.034-0.155 0.035-0.073 0.107-0.128 0.141-0.107 0.395-0.107 0.263 0 0.409 0.128 0.037 0.032 0.064 0.071 0.081 0.115 0.081 0.288h0.692q0-0.208-0.073-0.385-0.034-0.081-0.082-0.155-0.034-0.051-0.073-0.098-0.143-0.168-0.364-0.27-0.282-0.13-0.642-0.13-0.358 0-0.645 0.12t-0.441 0.333q-0.062 0.087-0.099 0.183-0.054 0.141-0.054 0.302 0 0.158 0.052 0.296 0.12 0.321 0.521 0.537 0.21 0.113 0.57 0.23t0.498 0.221q0.048 0.037 0.080 0.085zM53.358 26.872q0.059 0.089 0.059 0.217 0 0.101-0.044 0.177-0.034 0.059-0.095 0.103-0.138 0.1-0.385 0.1-0.391 0-0.552-0.192-0.113-0.135-0.113-0.364h-0.695q0 0.243 0.093 0.443 0.032 0.067 0.074 0.13 0.003 0.005 0.006 0.009 0.167 0.24 0.48 0.38 0.318 0.142 0.706 0.142 0.559 0 0.889-0.248 0.142-0.107 0.223-0.249 0.107-0.187 0.107-0.435 0-0.222-0.086-0.403-0.066-0.139-0.184-0.253-0.27-0.263-0.861-0.441-0.321-0.097-0.486-0.208-0.117-0.079-0.151-0.184-0.014-0.043-0.014-0.090 0-0.086 0.034-0.155 0.035-0.073 0.107-0.128 0.141-0.107 0.395-0.107 0.263 0 0.408 0.128 0.037 0.032 0.064 0.071 0.081 0.115 0.081 0.288h0.692q0-0.208-0.074-0.385-0.033-0.081-0.082-0.155-0.034-0.051-0.073-0.098-0.143-0.168-0.364-0.27-0.282-0.13-0.642-0.13-0.358 0-0.645 0.12t-0.441 0.333q-0.062 0.087-0.099 0.183-0.054 0.141-0.054 0.302 0 0.158 0.052 0.296 0.12 0.321 0.521 0.537 0.21 0.113 0.57 0.23t0.498 0.221q0.048 0.037 0.080 0.085zM19.481 26.597h1.329v-0.558h-1.329v-0.868h1.495v-0.561h-2.188v3.36h0.692v-1.373zM29.047 25.171h1.029v-0.561h-2.737v0.561h1.015v2.799h0.692v-2.799zM31.163 26.514h1.329v-0.542h-1.329v-0.801h1.555v-0.561h-2.248v3.36h2.252v-0.556h-1.56v-0.9zM33.821 26.74h0.552l0.63 1.23h0.743v-0.032l-0.727-1.373q0.302-0.136 0.451-0.366t0.149-0.573q0-0.338-0.157-0.569-0.068-0.101-0.166-0.181-0.323-0.265-0.919-0.265h-1.249v3.36h0.692v-1.23zM38.015 27.97v-1.184h0.607q0.598 0 0.936-0.285 0.117-0.099 0.194-0.223 0.144-0.233 0.144-0.556 0-0.258-0.097-0.472-0.025-0.056-0.057-0.108-0.046-0.075-0.103-0.14-0.137-0.155-0.339-0.253-0.287-0.138-0.666-0.138h-1.311v3.36h0.692zM41.063 26.514h1.329v-0.542h-1.329v-0.801h1.555v-0.561h-2.248v3.36h2.252v-0.556h-1.56v-0.9zM44.576 25.171h1.029v-0.561h-2.737v0.561h1.015v2.799h0.692v-2.799zM46.692 26.514h1.329v-0.542h-1.329v-0.801h1.555v-0.561h-2.248v3.36h2.252v-0.556h-1.56v-0.9zM49.35 26.74h0.552l0.63 1.23h0.743v-0.032l-0.727-1.373q0.302-0.136 0.451-0.366t0.149-0.573q0-0.338-0.157-0.569-0.068-0.101-0.166-0.181-0.323-0.265-0.919-0.265h-1.248v3.36h0.692v-1.23zM23.247 25.411q0.189 0.275 0.189 0.803v0.164q-0.002 0.524-0.189 0.797-0.083 0.121-0.197 0.188-0.144 0.085-0.339 0.085t-0.338-0.085q-0.12-0.070-0.206-0.199-0.189-0.284-0.189-0.799v-0.164q0.002-0.524 0.192-0.795 0.083-0.119 0.197-0.186 0.145-0.085 0.341-0.085t0.341 0.086q0.115 0.068 0.199 0.189zM34.38 26.179h-0.559v-1.008h0.556q0.279 0 0.414 0.136 0.021 0.021 0.038 0.044 0.097 0.128 0.097 0.329 0 0.179-0.084 0.298-0.026 0.037-0.059 0.068-0.004 0.003-0.007 0.006-0.142 0.126-0.397 0.126zM38.633 26.225h-0.619v-1.055h0.635q0.208 0.004 0.343 0.105 0.031 0.023 0.058 0.052 0.032 0.034 0.058 0.073 0.088 0.135 0.088 0.326 0 0.193-0.093 0.314-0.023 0.030-0.051 0.055-0.144 0.129-0.419 0.129zM49.909 26.179h-0.559v-1.008h0.556q0.279 0 0.414 0.136 0.021 0.021 0.038 0.044 0.097 0.128 0.097 0.329 0 0.179-0.084 0.298-0.026 0.037-0.059 0.068-0.003 0.003-0.007 0.006-0.142 0.126-0.397 0.126z"></path>
</symbol>
<symbol id="company5" viewBox="0 0 44 32">
<path  d="M3.35 26.742c0.172 0.194 0.263 0.438 0.258 0.688 0.009 0.163-0.023 0.326-0.092 0.476s-0.175 0.285-0.308 0.393c-0.333 0.23-0.747 0.343-1.163 0.317h-2.045v-4.361h2.003c0.395-0.024 0.788 0.078 1.11 0.29 0.129 0.099 0.232 0.224 0.299 0.366s0.098 0.296 0.089 0.45c0.012 0.241-0.071 0.477-0.233 0.667-0.155 0.173-0.37 0.293-0.61 0.341 0.271 0.045 0.516 0.177 0.691 0.373zM0.952 26.084h0.856c0.195 0.013 0.388-0.038 0.544-0.145 0.064-0.053 0.114-0.119 0.146-0.193s0.045-0.153 0.038-0.233c0.006-0.079-0.007-0.158-0.038-0.232s-0.080-0.14-0.143-0.194c-0.161-0.11-0.361-0.162-0.561-0.147h-0.842v1.144zM2.436 27.756c0.069-0.055 0.123-0.123 0.158-0.2s0.050-0.16 0.045-0.243c0.005-0.084-0.011-0.168-0.047-0.246s-0.091-0.147-0.16-0.202c-0.167-0.114-0.374-0.17-0.582-0.158h-0.898v1.199h0.91c0.205 0.011 0.407-0.043 0.575-0.151z"></path>
<path  d="M7.445 28.617l-1.114-1.704h-0.419v1.704h-0.959v-4.361h1.815c0.457-0.029 0.91 0.104 1.263 0.371 0.254 0.237 0.407 0.549 0.431 0.879s-0.080 0.659-0.296 0.925c-0.224 0.235-0.53 0.391-0.866 0.443l1.187 1.743h-1.042zM5.912 26.318h0.784c0.544 0 0.817-0.22 0.817-0.66 0.006-0.090-0.009-0.18-0.044-0.264s-0.088-0.161-0.156-0.226c-0.172-0.131-0.394-0.195-0.617-0.177h-0.793l0.009 1.327z"></path>
<path  d="M12.685 27.739h-1.91l-0.337 0.878h-1.005l1.754-4.312h1.087l1.747 4.312h-1.005l-0.33-0.878zM12.429 27.079l-0.698-1.841-0.698 1.841h1.396z"></path>
<path  d="M19.244 28.617h-0.952l-2.134-2.965v2.965h-0.949v-4.361h0.949l2.134 2.982v-2.982h0.952v4.361z"></path>
<path  d="M24.674 27.573c-0.197 0.329-0.497 0.597-0.861 0.769-0.414 0.192-0.874 0.286-1.338 0.275h-1.694v-4.361h1.694c0.463-0.011 0.922 0.081 1.338 0.268 0.364 0.168 0.664 0.433 0.861 0.761 0.196 0.355 0.298 0.747 0.298 1.144s-0.102 0.789-0.298 1.144zM23.585 27.469c0.272-0.29 0.421-0.659 0.421-1.041s-0.149-0.751-0.421-1.041c-0.328-0.262-0.756-0.396-1.191-0.371h-0.661v2.823h0.661c0.435 0.025 0.863-0.108 1.191-0.371z"></path>
<path  d="M13.281 0c0 0 12.283 4.246 12.022 10.39v10.392c0 0-12.273-4.248-12.017-10.392l-0.005-10.39z"></path>
<path  d="M36.245 18.349c2.32-1.462 5.003-2.367 7.804-2.633v-3.253c-3.227 1.139-5.965 3.204-7.804 5.886z"></path>
<path  d="M34.851 19.329c1.899-3.5 5.19-6.202 9.197-7.548v-9.373c0 0-17.492 6.048-17.122 14.797v14.795c0 0 0.779-0.271 2.006-0.778 0-0.473 0-0.95 0.056-1.43 0.362-4.062 2.471-7.826 5.863-10.464z"></path>
<path  d="M33.188 24.825c0.092-1.026 0.297-2.041 0.612-3.029-2.112 2.279-3.391 5.106-3.658 8.085-0.026 0.281-0.040 0.562-0.047 0.852 0.994-0.437 2.15-0.982 3.364-1.623-0.31-1.409-0.402-2.851-0.272-4.284z"></path>
<path  d="M33.883 24.878c-0.116 1.296-0.044 2.601 0.216 3.879 4.779-2.618 10.149-6.664 9.942-11.553v-0.426c-3.414 0.35-6.609 1.716-9.093 3.89-0.582 1.347-0.941 2.766-1.066 4.21z"></path>
</symbol>
<symbol id="company6" viewBox="0 0 68 32">
<path  d="M34.549 15.037c-0.323-0.43-0.477-0.938-0.441-1.449v-2.101c0-0.644 0.146-1.133 0.438-1.468s0.794-0.502 1.505-0.5c0.668 0 1.143 0.142 1.423 0.427 0.306 0.363 0.455 0.808 0.421 1.256v0.494h-1.195v-0.5c0.004-0.164-0.007-0.327-0.035-0.489-0.017-0.111-0.077-0.213-0.171-0.291-0.123-0.083-0.277-0.124-0.433-0.113-0.164-0.011-0.326 0.032-0.455 0.12-0.104 0.086-0.174 0.198-0.198 0.32-0.034 0.171-0.050 0.345-0.047 0.519v2.549c-0.019 0.246 0.034 0.492 0.153 0.716 0.059 0.076 0.142 0.136 0.239 0.173s0.203 0.052 0.308 0.040c0.153 0.011 0.305-0.031 0.423-0.115 0.097-0.083 0.16-0.192 0.178-0.31 0.028-0.169 0.040-0.34 0.037-0.511v-0.517h1.195v0.472c0.034 0.467-0.112 0.931-0.413 1.321-0.275 0.312-0.742 0.468-1.431 0.468s-1.208-0.167-1.502-0.513z"></path>
<path  d="M39.526 15.059c-0.302-0.327-0.453-0.803-0.453-1.434v-2.209c0-0.624 0.151-1.096 0.453-1.417s0.807-0.48 1.515-0.479c0.703 0 1.205 0.16 1.507 0.479 0.302 0.321 0.455 0.793 0.455 1.417v2.209c0 0.624-0.154 1.103-0.46 1.432s-0.807 0.494-1.502 0.494-1.21-0.167-1.515-0.491zM41.598 14.529c0.108-0.205 0.157-0.429 0.144-0.654v-2.705c0.014-0.22-0.035-0.44-0.141-0.641-0.061-0.077-0.145-0.138-0.244-0.176s-0.208-0.051-0.315-0.038c-0.107-0.013-0.217 0-0.316 0.038s-0.184 0.099-0.246 0.176c-0.109 0.2-0.158 0.42-0.144 0.641v2.718c-0.015 0.225 0.034 0.449 0.144 0.654 0.070 0.069 0.156 0.124 0.252 0.162s0.201 0.057 0.307 0.057c0.106 0 0.211-0.020 0.307-0.057s0.182-0.093 0.252-0.162v-0.013z"></path>
<path  d="M44.441 9.585h1.287l0.968 4.076 0.99-4.076h1.252l0.126 5.884h-0.926l-0.099-4.089-0.955 4.089h-0.742l-0.99-4.104-0.092 4.104h-0.935l0.116-5.884z"></path>
<path  d="M50.508 9.585h2.005c1.155 0 1.732 0.557 1.732 1.671 0 1.067-0.608 1.6-1.824 1.598h-0.683v2.615h-1.237l0.007-5.884zM52.22 12.1c0.122 0.013 0.246 0.004 0.364-0.028s0.226-0.086 0.317-0.158c0.142-0.199 0.205-0.432 0.178-0.664 0.006-0.179-0.013-0.359-0.059-0.534-0.018-0.059-0.049-0.113-0.091-0.161s-0.096-0.088-0.156-0.118c-0.172-0.071-0.362-0.104-0.552-0.094h-0.48v1.758h0.48z"></path>
<path  d="M56.029 9.585h1.329l1.364 5.884h-1.153l-0.27-1.357h-1.185l-0.277 1.357h-1.171l1.364-5.884zM57.165 13.431l-0.463-2.47-0.463 2.47h0.926z"></path>
<path  d="M59.823 9.585h0.866l1.658 3.356v-3.356h1.027v5.884h-0.824l-1.668-3.504v3.504h-1.062l0.002-5.884z"></path>
<path  d="M65.78 13.225l-1.379-3.632h1.161l0.841 2.333 0.79-2.333h1.136l-1.361 3.632v2.243h-1.188v-2.243z"></path>
<path  d="M36.46 18.041v0.308h-1.010v2.391h-0.423v-2.391h-1.015v-0.308h2.448z"></path>
<path  d="M39.625 20.74h-0.327c-0.033 0.002-0.066-0.007-0.092-0.026-0.025-0.016-0.044-0.037-0.054-0.062l-0.292-0.641h-1.401l-0.292 0.641c-0.008 0.027-0.024 0.052-0.045 0.073-0.026 0.018-0.058 0.027-0.092 0.026h-0.327l1.237-2.698h0.431l1.252 2.688zM37.576 19.738h1.168l-0.495-1.098c-0.036-0.083-0.067-0.168-0.092-0.254-0.017 0.051-0.032 0.1-0.047 0.143l-0.045 0.113-0.49 1.096z"></path>
<path  d="M41.759 20.475c0.077 0.004 0.155 0.004 0.233 0 0.067-0.006 0.133-0.017 0.198-0.032 0.061-0.013 0.12-0.029 0.178-0.049 0.054-0.019 0.109-0.043 0.166-0.066v-0.607h-0.495c-0.012 0.001-0.024-0.001-0.036-0.005s-0.022-0.009-0.031-0.017c-0.008-0.006-0.015-0.014-0.019-0.022s-0.006-0.018-0.006-0.027v-0.207h0.96v1.034c-0.078 0.049-0.161 0.091-0.248 0.128-0.088 0.038-0.18 0.068-0.275 0.092-0.101 0.026-0.205 0.044-0.309 0.056-0.12 0.011-0.241 0.017-0.361 0.017-0.213 0.002-0.425-0.033-0.624-0.1-0.185-0.064-0.354-0.16-0.495-0.282-0.138-0.123-0.246-0.268-0.319-0.427-0.078-0.179-0.117-0.369-0.114-0.56-0.003-0.192 0.035-0.384 0.111-0.564 0.071-0.16 0.18-0.305 0.319-0.427 0.141-0.121 0.31-0.217 0.495-0.28 0.212-0.069 0.437-0.103 0.663-0.1 0.115-0 0.23 0.008 0.344 0.024 0.101 0.014 0.199 0.037 0.294 0.068 0.087 0.028 0.17 0.064 0.248 0.107 0.076 0.042 0.148 0.089 0.215 0.141l-0.119 0.167c-0.009 0.015-0.023 0.028-0.040 0.037s-0.036 0.014-0.056 0.014c-0.027-0.001-0.054-0.008-0.077-0.021-0.037-0.017-0.077-0.038-0.121-0.064-0.053-0.029-0.108-0.053-0.166-0.073-0.074-0.026-0.15-0.046-0.228-0.060-0.104-0.016-0.209-0.024-0.314-0.023-0.163-0.002-0.325 0.024-0.478 0.075-0.138 0.048-0.262 0.121-0.364 0.214-0.103 0.097-0.181 0.211-0.23 0.335-0.111 0.292-0.111 0.607 0 0.9 0.054 0.127 0.139 0.243 0.247 0.34 0.101 0.093 0.225 0.165 0.361 0.214 0.157 0.047 0.324 0.065 0.49 0.053z"></path>
<path  d="M45.704 20.432h1.351v0.308h-1.765v-2.699h0.423l-0.010 2.391z"></path>
<path  d="M48.461 20.74h-0.423v-2.699h0.423v2.699z"></path>
<path  d="M50.035 18.054c0.025 0.012 0.047 0.029 0.064 0.049l1.809 2.034c-0.002-0.032-0.002-0.064 0-0.096 0-0.030 0-0.060 0-0.088v-1.923h0.369v2.709h-0.213c-0.032 0.002-0.063-0.003-0.092-0.015-0.026-0.013-0.048-0.031-0.067-0.051l-1.807-2.032c0 0.032 0 0.062 0 0.092s0 0.058 0 0.083v1.923h-0.354v-2.699h0.22c0.024 0 0.047 0.004 0.069 0.013z"></path>
<path  d="M55.393 18.041v0.297h-1.5v0.891h1.215v0.286h-1.215v0.921h1.5v0.297h-1.935v-2.692h1.935z"></path>
<path  d="M11.045 1.376l18.792 4.607v16.142l-18.792-4.604v-16.144zM9.84 0v18.305l21.2 5.198v-18.302l-21.2-5.201z"></path>
<path  d="M21.202 32l-21.202-5.203v-18.303l21.202 5.201v18.305z"></path>
<path  d="M10.192 1.169l18.547 4.549-7.887 6.811-18.549-4.551 7.89-6.809zM9.84 0l-9.84 8.495 21.202 5.2 9.838-8.495-21.2-5.2z"></path>
<path  d="M22.395 30.97l8.645-7.465-8.645-2.122v9.587z"></path>
</symbol>
<symbol id="diagram" viewBox="0 0 32 32">
<path  d="M14.926 14.965h1.066v4.798h-1.066v-4.797z"></path>
<path  d="M19.19 17.097h1.066v2.665h-1.066v-2.665z"></path>
<path  d="M10.661 18.696h1.066v1.066h-1.066v-1.066z"></path>
<path  d="M7.463 18.163h1.066v1.599h-1.066v-1.599z"></path>
<path d="M1.599 28.291h25.587c0.883 0 1.599-0.716 1.599-1.599v-2.132c0-0.883-0.716-1.599-1.599-1.599h-0.533v-13.293l3.028-2.868c0.703 0.346 1.553 0.136 2.013-0.499s0.396-1.508-0.152-2.068-1.42-0.644-2.065-0.198c-0.644 0.446-0.873 1.292-0.542 2.002l-2.281 2.163v-1.23c0-0.883-0.716-1.599-1.599-1.599h-21.322c-0.883 0-1.599 0.716-1.599 1.599v15.992h-0.533c-0.883 0-1.599 0.716-1.599 1.599v2.132c0 0.883 0.716 1.599 1.599 1.599zM30.384 4.837c0.294 0 0.533 0.239 0.533 0.533s-0.239 0.533-0.533 0.533c-0.294 0-0.533-0.239-0.533-0.533s0.239-0.533 0.533-0.533zM3.198 6.969c0-0.294 0.239-0.533 0.533-0.533h21.322c0.294 0 0.533 0.239 0.533 0.533v2.239l-1.066 1.013v-2.186c0-0.294-0.239-0.533-0.533-0.533h-19.19c-0.294 0-0.533 0.239-0.533 0.533v13.326c0 0.294 0.239 0.533 0.533 0.533h19.19c0.294 0 0.533-0.239 0.533-0.533v-9.674l1.066-1.010v12.284h-22.388v-15.992zM7.996 13.899c-0.721-0.002-1.354 0.478-1.546 1.174s0.105 1.433 0.725 1.801c0.62 0.368 1.41 0.276 1.928-0.226l1.853 0.93c0.215 0.108 0.476 0.057 0.636-0.123l3.939-4.431 3.872 2.901c0.208 0.156 0.498 0.139 0.686-0.039l3.365-3.188v8.131h-18.124v-12.26h18.124v2.66l-3.771 3.572-3.904-2.927c-0.222-0.166-0.534-0.135-0.718 0.072l-3.993 4.493-1.493-0.746c0.011-0.064 0.018-0.129 0.020-0.193 0-0.883-0.716-1.599-1.599-1.599zM8.529 15.498c0 0.294-0.239 0.533-0.533 0.533s-0.533-0.239-0.533-0.533c0-0.294 0.239-0.533 0.533-0.533s0.533 0.239 0.533 0.533zM11.727 24.026h5.33v0.533c0 0.294-0.239 0.533-0.533 0.533h-4.264c-0.294 0-0.533-0.239-0.533-0.533v-0.533zM1.066 24.56c0-0.294 0.239-0.533 0.533-0.533h9.062v0.533c0 0.883 0.716 1.599 1.599 1.599h4.264c0.883 0 1.599-0.716 1.599-1.599v-0.533h9.062c0.294 0 0.533 0.239 0.533 0.533v2.132c0 0.294-0.239 0.533-0.533 0.533h-25.587c-0.294 0-0.533-0.239-0.533-0.533v-2.132z"></path>
</symbol>
<symbol id="facebook" viewBox="0 0 16 32">
<path  d="M13.080 5.313h2.921v-5.088c-0.504-0.069-2.237-0.225-4.256-0.225-4.212 0-7.097 2.649-7.097 7.519v4.481h-4.648v5.688h4.648v14.312h5.699v-14.311h4.46l0.708-5.688h-5.169v-3.919c0.001-1.644 0.444-2.769 2.735-2.769z"></path>
</symbol>
<symbol id="instagram" viewBox="0 0 32 32">
<path d="M31.969 9.408c-0.075-1.7-0.35-2.869-0.744-3.882-0.406-1.075-1.032-2.038-1.851-2.838-0.8-0.813-1.769-1.444-2.832-1.844-1.019-0.394-2.182-0.669-3.882-0.744-1.713-0.081-2.257-0.1-6.601-0.1s-4.888 0.019-6.595 0.094c-1.7 0.075-2.869 0.35-3.882 0.744-1.075 0.406-2.038 1.031-2.838 1.85-0.813 0.8-1.444 1.769-1.844 2.832-0.394 1.019-0.669 2.182-0.744 3.882-0.081 1.713-0.1 2.257-0.1 6.601s0.019 4.888 0.094 6.595c0.075 1.7 0.35 2.869 0.744 3.882 0.406 1.075 1.038 2.038 1.85 2.838 0.8 0.813 1.769 1.444 2.832 1.844 1.019 0.394 2.181 0.669 3.882 0.744 1.706 0.075 2.25 0.094 6.595 0.094s4.888-0.019 6.595-0.094c1.7-0.075 2.869-0.35 3.882-0.744 2.151-0.831 3.851-2.532 4.682-4.682 0.394-1.019 0.669-2.182 0.744-3.882 0.075-1.707 0.094-2.25 0.094-6.595s-0.006-4.888-0.081-6.595zM29.087 22.473c-0.069 1.563-0.331 2.407-0.55 2.969-0.538 1.394-1.644 2.5-3.038 3.038-0.562 0.219-1.412 0.481-2.969 0.55-1.688 0.075-2.194 0.094-6.464 0.094s-4.782-0.019-6.464-0.094c-1.563-0.069-2.407-0.331-2.969-0.55-0.694-0.256-1.325-0.663-1.838-1.194-0.531-0.519-0.938-1.144-1.194-1.838-0.219-0.563-0.481-1.413-0.55-2.969-0.075-1.688-0.094-2.194-0.094-6.464s0.019-4.782 0.094-6.464c0.069-1.563 0.331-2.407 0.55-2.969 0.256-0.694 0.663-1.325 1.2-1.838 0.519-0.531 1.144-0.938 1.838-1.194 0.563-0.219 1.413-0.481 2.969-0.55 1.688-0.075 2.194-0.094 6.464-0.094 4.276 0 4.782 0.019 6.464 0.094 1.563 0.069 2.407 0.331 2.969 0.55 0.694 0.256 1.325 0.662 1.838 1.194 0.532 0.519 0.938 1.144 1.194 1.838 0.219 0.563 0.481 1.413 0.55 2.969 0.075 1.688 0.094 2.194 0.094 6.464s-0.019 4.77-0.094 6.457z"></path>
<path  d="M16.059 7.783c-4.538 0-8.22 3.682-8.22 8.22s3.682 8.22 8.22 8.22c4.539 0 8.22-3.682 8.22-8.22s-3.682-8.22-8.22-8.22zM16.059 21.336c-2.944 0-5.332-2.388-5.332-5.332s2.388-5.332 5.332-5.332c2.944 0 5.332 2.388 5.332 5.332s-2.388 5.332-5.332 5.332z"></path>
<path d="M26.524 7.458c0 1.060-0.859 1.919-1.919 1.919s-1.919-0.859-1.919-1.919c0-1.060 0.859-1.919 1.919-1.919s1.919 0.859 1.919 1.919z"></path>
</symbol>
<symbol id="linkedin" viewBox="0 0 32 32">
<path d="M31.992 32v-0.001h0.008v-11.736c0-5.741-1.236-10.164-7.948-10.164-3.227 0-5.392 1.771-6.276 3.449h-0.093v-2.913h-6.364v21.364h6.627v-10.579c0-2.785 0.528-5.479 3.977-5.479 3.399 0 3.449 3.179 3.449 5.657v10.401h6.62z"></path>
<path  d="M0.528 10.636h6.635v21.364h-6.635v-21.364z"></path>
<path  d="M3.843 0c-2.121 0-3.843 1.721-3.843 3.843s1.721 3.879 3.843 3.879c2.122 0 3.843-1.757 3.843-3.879-0.001-2.121-1.723-3.843-3.843-3.843v0z"></path>
</symbol>
<symbol id="mail" viewBox="0 0 43 32">
<path  d="M38.667 0h-34.667c-2.206 0-4 1.794-4 4v24c0 2.206 1.794 4 4 4h34.667c2.206 0 4-1.794 4-4v-24c0-2.206-1.794-4-4-4zM38.667 2.667c0.181 0 0.354 0.037 0.511 0.103l-17.845 15.466-17.844-15.466c0.158-0.065 0.33-0.103 0.511-0.103h34.667zM38.667 29.333h-34.667c-0.736 0-1.333-0.598-1.333-1.333v-22.413l17.793 15.421c0.251 0.217 0.563 0.326 0.874 0.326s0.622-0.108 0.874-0.326l17.793-15.421v22.413c0 0.736-0.598 1.333-1.333 1.333z"></path>
</symbol>
<symbol id="mobile" viewBox="0 0 20 32">
<path d="M17 0h-14c-1.654 0-3 1.346-3 3v26c0 1.654 1.346 3 3 3h14c1.654 0 3-1.346 3-3v-26c0-1.654-1.346-3-3-3zM3 2h14c0.552 0 1 0.448 1 1v21h-16v-21c0-0.552 0.448-1 1-1zM17 30h-14c-0.552 0-1-0.448-1-1v-3h16v3c0 0.552-0.448 1-1 1z"></path>
</symbol>
<symbol id="twiter" viewBox="0 0 39 32">
<path d="M39.385 3.788c-1.465 0.642-3.025 1.068-4.652 1.275 1.674-0.999 2.951-2.57 3.552-4.463-1.561 0.931-3.284 1.588-5.12 1.954-1.482-1.578-3.594-2.555-5.898-2.555-4.47 0-8.069 3.628-8.069 8.076 0 0.64 0.054 1.255 0.187 1.841-6.713-0.327-12.652-3.545-16.643-8.446-0.697 1.209-1.105 2.592-1.105 4.081 0 2.796 1.44 5.275 3.586 6.71-1.297-0.025-2.57-0.401-3.648-0.994 0 0.025 0 0.057 0 0.089 0 3.924 2.799 7.183 6.469 7.934-0.657 0.18-1.374 0.266-2.117 0.266-0.517 0-1.039-0.030-1.529-0.138 1.046 3.198 4.015 5.548 7.544 5.625-2.747 2.149-6.235 3.444-10.011 3.444-0.662 0-1.297-0.030-1.932-0.111 3.577 2.306 7.815 3.623 12.387 3.623 14.858 0 22.981-12.308 22.981-22.976 0-0.357-0.012-0.702-0.030-1.044 1.603-1.137 2.949-2.558 4.047-4.192z"></path>
</symbol>
<symbol id="close" viewBox="0 0 32 32">
<path fill="#fff" style="fill: var(--color1, #fff)" d="M32 16c0 8.837-7.163 16-16 16s-16-7.163-16-16c0-8.837 7.163-16 16-16s16 7.163 16 16z"></path>
<path fill="none"  stroke-linejoin="miter" stroke-linecap="butt" stroke-miterlimit="4" stroke-width="1.0667" d="M31.467 16c0 8.542-6.925 15.467-15.467 15.467s-15.467-6.925-15.467-15.467c0-8.542 6.925-15.467 15.467-15.467s15.467 6.925 15.467 15.467z"></path>
<path  d="M22.4 10.773l-1.184-1.173-4.683 4.683-4.693-4.683-1.173 1.173 4.683 4.693-4.683 4.683 1.173 1.184 4.693-4.693 4.683 4.693 1.184-1.184-4.693-4.683 4.693-4.693z"></path>
</symbol>
<symbol id="person" viewBox="0 0 32 32">
<path d="M16 16c2.933 0 5.333-2.4 5.333-5.333 0-2.951-2.4-5.333-5.333-5.333-2.951 0-5.333 2.382-5.333 5.333 0 2.933 2.382 5.333 5.333 5.333zM16 18.667c-3.573 0-10.667 1.778-10.667 5.333v1.333c0 0.729 0.587 1.333 1.333 1.333h18.667c0.729 0 1.333-0.604 1.333-1.333v-1.333c0-3.556-7.111-5.333-10.667-5.333z"></path>
</symbol>
<symbol id="email" viewBox="0 0 32 32">
<path d="M26.667 5.333h-21.333c-1.476 0-2.667 1.191-2.667 2.667v16c0 1.458 1.191 2.667 2.667 2.667h21.333c1.458 0 2.667-1.209 2.667-2.667v-16c0-1.476-1.209-2.667-2.667-2.667zM26.133 10.987l-9.44 5.902c-0.427 0.267-0.978 0.267-1.404 0l-9.422-5.902c-0.338-0.213-0.533-0.569-0.533-0.96 0-0.889 0.96-1.422 1.724-0.96l8.942 5.6 8.924-5.6c0.764-0.462 1.742 0.071 1.742 0.96 0 0.391-0.213 0.747-0.533 0.96z"></path>
</symbol>
<symbol id="phone" viewBox="0 0 32 32">
<path d="M27.052 19.988l-4.529-0.517c-1.083-0.123-2.142 0.246-2.905 1.009l-3.298 3.274c-5.022-2.56-9.157-6.671-11.717-11.742l3.274-3.298c0.788-0.763 1.157-1.822 1.034-2.905l-0.517-4.505c-0.222-1.797-1.748-3.151-3.545-3.151h-3.102c-1.994 0-3.668 1.674-3.545 3.692 0.935 15.212 13.095 27.372 28.308 28.308 1.994 0.123 3.668-1.551 3.668-3.569v-3.077c0.025-1.797-1.329-3.323-3.126-3.52z"></path>
</symbol>
</defs>
</svg>
