<svg xmlns="http://www.w3.org/2000/svg" aria-hidden="true" style="position:absolute;width:0;height:0;overflow:hidden"><defs><symbol id="antenna" viewBox="0 0 32 32"><path fill="#212121" d="m30.773 22.098-8.443-8.505.937-4.615c.242.094.499.144.758.146h.006a2.159 2.159 0 1 0-2.008-1.435l-4.96.605L8.972.161a.534.534 0 0 0-.377-.16.532.532 0 0 0-.373.155L6.709 1.66a.534.534 0 0 0 0 .754l.814.826a14.943 14.943 0 0 0 2.519 17.663.513.513 0 0 0 .146.098c-.034.18-.051.364-.052.547v6.187h-6.4a2.67 2.67 0 0 0-2.667 2.667v1.067c0 .295.239.533.533.533h24.533a.533.533 0 0 0 .533-.533v-1.067a2.67 2.67 0 0 0-2.667-2.667h-6.4v-2.742a15.09 15.09 0 0 0 3.049.32 14.854 14.854 0 0 0 7.04-1.783l.818.823a.534.534 0 0 0 .377.16.532.532 0 0 0 .373-.155l1.513-1.504a.534.534 0 0 0 0-.754zM23.28 6.233a1.066 1.066 0 1 1 .752 1.822h-.003a1.067 1.067 0 0 1-.747-1.823h-.002zm-1.256 3.505-.598 2.946-1.175-1.182 1.774-1.763zm-.606-.902-1.92 1.909-1.485-1.493 3.405-.415zM24.004 28.8a1.6 1.6 0 0 1 1.6 1.6v.533H2.137V30.4a1.6 1.6 0 0 1 1.6-1.6h20.267zm-7.467-2.133v1.067h-5.333v-1.067h5.333zM11.204 25.6v-4.053c0-1.294 1.196-2.347 2.667-2.347s2.667 1.053 2.667 2.347V25.6h-5.333zm6.4-1.696v-2.357c0-1.882-1.675-3.413-3.733-3.413a3.8 3.8 0 0 0-3.281 1.786A13.87 13.87 0 0 1 8.311 4.033l18.602 18.708a13.818 13.818 0 0 1-9.309 1.163zm11.289-.684L7.836 2.039l.755-.752 7.935 7.98c.004 0 .006.007.01.01l13.115 13.192-.757.752z" style="fill:var(--color1, #212121)"/><path fill="#2196f3" d="M13.876 20.267h-.005a1.6 1.6 0 1 0-.004 3.2h.005a1.6 1.6 0 1 0 .004-3.2zm.373 1.978a.534.534 0 0 1-.752-.756.534.534 0 0 1 .373-.155.533.533 0 0 1 .373.911h.005z" style="fill:var(--color2, #2196f3)"/></symbol><symbol id="astronaut" viewBox="0 0 32 32"><path fill="#2196f3" d="M31.974 4.524a.534.534 0 0 0-.43-.363l-1.91-.278-.855-1.731c-.179-.365-.777-.365-.956 0l-.855 1.731-1.91.278a.535.535 0 0 0-.296.91l1.383 1.348-.326 1.903c-.034.2.048.402.212.522a.53.53 0 0 0 .562.04l1.709-.899 1.709.899a.536.536 0 0 0 .775-.563l-.326-1.903 1.383-1.348a.536.536 0 0 0 .135-.547zm-2.463 1.327a.534.534 0 0 0-.153.472l.191 1.114-1-.526a.533.533 0 0 0-.498 0l-1.001.526.191-1.114a.534.534 0 0 0-.153-.472l-.81-.789 1.119-.163a.532.532 0 0 0 .402-.292l.5-1.013.5 1.013a.535.535 0 0 0 .402.292l1.119.163-.809.789zM25.067 20.522h1.067v1.067h-1.067v-1.067zM25.067 22.656h1.067v1.067h-1.067v-1.067zM26.134 21.589h1.067v1.067h-1.067v-1.067zM24 21.589h1.067v1.067H24v-1.067zM21.333 26.389H22.4v1.067h-1.067v-1.067zM21.333 28.522H22.4v1.067h-1.067v-1.067zM22.4 27.456h1.067v1.067H22.4v-1.067z" style="fill:var(--color2, #2196f3)"/><path fill="#2196f3" d="M20.267 27.456h1.067v1.067h-1.067v-1.067zM14.933 24.256H16v1.067h-1.067v-1.067zM14.933 26.389H16v1.067h-1.067v-1.067zM16 25.322h1.067v1.067H16v-1.067z" style="fill:var(--color2, #2196f3)"/><path fill="#2196f3" d="M13.867 25.322h1.067v1.067h-1.067v-1.067zM4.8 6.122h1.067v1.067H4.8V6.122zM4.8 8.255h1.067v1.067H4.8V8.255z" style="fill:var(--color2, #2196f3)"/><path fill="#2196f3" d="M5.866 7.189h1.067v1.067H5.866V7.189zM3.733 7.189H4.8v1.067H3.733V7.189z" style="fill:var(--color2, #2196f3)"/><path fill="#212121" d="M24.715 14.159a1.775 1.775 0 0 0-1.188-.705 1.778 1.778 0 0 0-1.34.352l-1.252.96-1.898 1.417-1.358-.541c2.421-1.086 4.114-3.508 4.114-6.32 0-3.823-3.123-6.933-6.961-6.933s-6.961 3.11-6.961 6.933a6.86 6.86 0 0 0 1.12 3.758l-2.764-.024h-.005c-.009 0-.015.004-.023.005a.515.515 0 0 0-.155.031l-.038.013c-.006.003-.013.003-.019.006l-3.233 1.596-.001.001-1.893.911a.397.397 0 0 0-.063.035 1.779 1.779 0 0 0-.598 2.295c.22.429.595.745 1.056.889a1.776 1.776 0 0 0 1.378-.128l1.388-.738 2.264-1.169 1.357-.008L2.2 22.211l-.002.001-1.339 1.333c-.316.315-.49.732-.49 1.178s.174.863.49 1.179c.325.323.752.485 1.179.485s.854-.162 1.18-.485l1.314-1.309 1.741-1.3.901.897-1.762 1.754-.002.001-1.339 1.333c-.316.315-.49.732-.49 1.178s.174.863.49 1.179c.325.323.753.485 1.18.485s.855-.162 1.18-.485l3.482-3.467.001-.002 1.01-1-.004-.004c.006-.006.015-.009.022-.015l5.166-5.658 3.471.494a.52.52 0 0 0 .262-.033c.018-.006.033-.015.05-.023.019-.01.039-.015.058-.027l3.213-2.133c.012-.008.018-.021.029-.029.013-.01.029-.014.041-.026l1.271-1.191c.662-.62.753-1.635.212-2.362zM2.13 17.77a.714.714 0 0 1-.558.052.717.717 0 0 1-.213-1.26l1.314-.632.449 1.312-.992.528zm3.498-1.828-1.548.8-.439-1.283 2.027-1.001-.04 1.484zm15.099-6.62a5.79 5.79 0 0 1-.599 2.559l-4.181-1.899a1.863 1.863 0 0 0-.788-1.388l1.464-4.86c2.378.756 4.105 2.974 4.105 5.588zm-11.789 0c0-3.235 2.644-5.867 5.894-5.867.253 0 .5.021.745.052l-1.432 4.754c-.019-.001-.037-.006-.057-.006-1.033 0-1.873.837-1.873 1.867s.84 1.867 1.873 1.867c.694 0 1.294-.383 1.618-.945l3.862 1.755a5.894 5.894 0 0 1-4.737 2.39c-3.25 0-5.894-2.632-5.894-5.867zm5.956.8c0 .441-.362.8-.806.8s-.806-.359-.806-.8c0-.441.362-.8.806-.8s.806.359.806.8zM2.465 25.146a.608.608 0 0 1-.854.001.592.592 0 0 1 0-.844l.962-.959.851.848-.959.955zm3.214 3.734a.608.608 0 0 1-.855.001.592.592 0 0 1 0-.844l.963-.959.852.848-.96.955zm3.481-3.469-.002.001-1.765 1.76-.852-.848 1.763-1.755.002-.001c.04-.04.065-.088.09-.135.007-.014.02-.026.026-.04.017-.041.019-.085.026-.129.003-.025.014-.047.014-.073 0-.036-.013-.07-.02-.106-.006-.032-.006-.065-.019-.095a.55.55 0 0 0-.091-.138c-.01-.012-.014-.027-.025-.038h-.001l-.001-.002-1.607-1.6c-.017-.017-.039-.024-.058-.038a.507.507 0 0 0-.087-.058.515.515 0 0 0-.093-.033.507.507 0 0 0-.103-.02.5.5 0 0 0-.095.005.53.53 0 0 0-.104.02.477.477 0 0 0-.094.045c-.02.011-.042.015-.061.029L4.23 23.486l-.901-.897 2.399-2.386 4.361 4.289-.928.919zm6.819-7.017c-.015-.002-.03.004-.045.003a.556.556 0 0 0-.3.075.492.492 0 0 0-.083.061c-.013.011-.028.017-.04.029l-4.698 5.146-4.328-4.257 2.833-2.818a.534.534 0 0 0-.379-.911l-2.219.013.028-1.607 3.104.027a6.947 6.947 0 0 0 4.981 2.101c.437 0 .864-.045 1.279-.123.04.032.079.065.13.085l2.41.96.152.758.178.885-3.003-.427zm4.041.178-.313-1.558 1.446-1.08.947 1.257-2.08 1.381zm3.754-2.831-.838.785-.931-1.236.831-.637a.735.735 0 0 1 .543-.143.718.718 0 0 1 .48.284.713.713 0 0 1-.085.947z" style="fill:var(--color1, #212121)"/><path fill="#212121" d="m13.602 18.544-2.143-2.133a.534.534 0 0 0-.753 0l-2.142 2.133a.537.537 0 0 0 0 .756l2.142 2.133a.536.536 0 0 0 .753 0l2.143-2.133a.535.535 0 0 0 0-.756zm-2.519 1.759-1.387-1.381 1.387-1.381 1.387 1.381-1.387 1.381zM17.164 5.071l-.258 1.036c.071.018 1.738.452 1.738 2.149h1.067c0-2.017-1.666-2.965-2.547-3.185zM18.644 9.322h1.067v1.067h-1.067V9.322z" style="fill:var(--color1, #212121)"/></symbol><symbol id="clock" viewBox="0 0 32 32"><path fill="#212121" d="M31.297 15.301C31.295 6.849 24.442-.002 15.989 0S.686 6.855.688 15.308a15.304 15.304 0 0 0 10.649 14.576.668.668 0 0 0 .53-.065.637.637 0 0 0 .283-.356l3.865-12.25a1.912 1.912 0 1 0-.84-3.635l-5.106-5.107a.637.637 0 0 0-.902.902l5.103 5.109a1.876 1.876 0 0 0 .536 2.309l-3.683 11.673C3.845 25.783.119 17.71 2.8 10.432S13.554-.572 20.832 2.109s11.004 10.754 8.324 18.032a14.042 14.042 0 0 1-7.462 7.973l-.398-1.874a.638.638 0 0 0-1.048-.344l-3.837 3.426a.637.637 0 0 0 .231 1.084l4.899 1.563a.638.638 0 0 0 .819-.74l-.391-1.839a15.255 15.255 0 0 0 9.329-14.089zm-15.305-.637a.638.638 0 1 1 0 1.277.638.638 0 0 1 0-1.277zm2.101 14.864 2.184-1.948.603 2.84-2.787-.892z" style="fill:var(--color1, #212121)"/><path fill="#2196f3" d="M15.354 3.185V4.46a.638.638 0 1 0 1.276 0V3.185a.638.638 0 0 0-1.276 0zM3.876 14.664a.638.638 0 0 0 0 1.276h1.275a.638.638 0 1 0 0-1.276H3.876zM28.108 15.939a.638.638 0 1 0 0-1.276h-1.275a.638.638 0 0 0 0 1.276h1.275z" style="fill:var(--color2, #2196f3)"/></symbol><symbol id="company1" viewBox="0 0 28 32"><path fill="#afb1b8" d="m4.111 0 4.802 4.546L0 4.541v22.054h23.296v-8.432l4.796 4.541V.001H4.11zm18.975 4.74v12.889L9.471 4.74h13.615zm-4.227 18.629H3.687V8.536h1.072v13.828h14.1v1.004zM10.874 30.8a.557.557 0 0 0-.092.309c0 .205.072.372.216.5.145.127.338.191.579.191q.271 0 .485-.11.072-.037.137-.086l.137.162h.472l-.358-.423q.211-.288.211-.738h-.353a.973.973 0 0 1-.102.447l-.47-.555.166-.12a.944.944 0 0 0 .253-.254.542.542 0 0 0 .077-.281q0-.115-.043-.212t-.128-.175a.613.613 0 0 0-.435-.157.649.649 0 0 0-.468.167.594.594 0 0 0-.174.452.6.6 0 0 0 .055.243c.038.084.104.185.199.304-.181.129-.302.242-.363.336zm4.627.783c.167-.146.263-.349.288-.609h-.422c-.022.174-.075.298-.159.373s-.209.112-.375.112a.472.472 0 0 1-.415-.207q-.141-.207-.141-.602v-.216c.002-.26.052-.457.151-.59a.495.495 0 0 1 .425-.202c.158 0 .278.039.36.117.083.077.134.203.154.378h.422c-.027-.267-.122-.473-.286-.619s-.38-.219-.649-.219a.98.98 0 0 0-.529.142c-.152.095-.268.23-.35.405s-.122.377-.122.607v.228c.003.224.045.421.125.59s.194.301.341.393a.96.96 0 0 0 .514.137c.278 0 .5-.073.667-.217zm2.487-.341c.083-.181.124-.39.124-.629v-.135a1.478 1.478 0 0 0-.127-.624q-.097-.208-.256-.34-.047-.039-.1-.072c-.153-.096-.328-.144-.527-.144s-.375.049-.529.146q-.041.026-.079.056-.173.137-.277.361a1.484 1.484 0 0 0-.125.629v.137c.001.233.043.439.127.617a.966.966 0 0 0 .358.413.983.983 0 0 0 .529.144c.2 0 .376-.048.529-.144a.941.941 0 0 0 .355-.415zm-10.719-1.91-.56 1.154-.56-1.154h-.47l.818 1.539v.897h.425v-.897l.816-1.539H7.27zm.704 2.435.197-.567h.944l.199.567h.442l-.922-2.436h-.38l-.92 2.436h.44zm3.563-1.507c-.115-.142-.172-.259-.172-.353 0-.081.023-.149.07-.202s.11-.08.189-.08c.074 0 .134.023.182.069a.214.214 0 0 1 .072.162.301.301 0 0 1-.104.236l-.052.042-.186.127zm5.999-.395c.103.144.154.351.154.621v.127c0 .274-.051.483-.152.626a.494.494 0 0 1-.432.214.506.506 0 0 1-.435-.219c-.104-.146-.156-.353-.156-.621v-.141c.002-.262.055-.464.157-.607a.501.501 0 0 1 .43-.216c.187 0 .332.072.433.216zm-8.893-.017.353 1.01h-.706l.353-1.01zm3.331 1.491a.623.623 0 0 1-.385.137q-.148 0-.248-.07-.023-.016-.043-.036a.367.367 0 0 1-.109-.274c0-.13.067-.247.201-.348l.052-.037.532.627z" style="fill:var(--color3, #afb1b8)"/></symbol><symbol id="company2" viewBox="0 0 26 32"><path fill="#afb1b8" d="M11.188 1.565h.073c.135 0 .281.014.425.026.636.045 1.268.14 1.889.285V.349a11.38 11.38 0 0 0-1.95-.311A15.84 15.84 0 0 0 10.837 0h-.228a15.9 15.9 0 0 0-3.913.504 15.836 15.836 0 0 0-4.151 1.689v15.145a16.875 16.875 0 0 1 3.957-1.542 17.273 17.273 0 0 1 3.322-.51h.045c.188-.009.375-.015.568-.016v-1.552a18.28 18.28 0 0 0-4.317.574c-.522.136-1.027.282-1.5.445l-.54.183V3.111L4.311 3A15.078 15.078 0 0 1 9.92 1.569a.4.4 0 0 1 .049 0c.214-.011.43-.016.642-.016h.243c.112.003.224.005.336.012zm2.76 1.561c.339.026.689.038 1.044.038a16.75 16.75 0 0 0 4.114-.528 16.958 16.958 0 0 0 3.956-1.543v14.875a15.918 15.918 0 0 1-4.153 1.689 15.948 15.948 0 0 1-3.913.503c-1 .008-1.997-.11-2.968-.35V2.839c.229.053.466.102.706.142.394.066.809.115 1.214.145zm7.571.115-.54.182c-.497.167-.997.316-1.5.449-1.465.376-2.971.57-4.483.575-.352 0-.676-.009-.989-.03l-.43-.028v12.148l.37.033c.343.03.696.045 1.052.045a14.364 14.364 0 0 0 3.531-.457c.95-.238 1.874-.57 2.759-.991l.231-.111V3.243zM3.593 22.514a.807.807 0 0 0-.601-.243.895.895 0 0 0-.347.065.778.778 0 0 0-.444.449.893.893 0 0 0-.062.335v2.023a.94.94 0 0 0 .08.415.718.718 0 0 0 .48.415c.098.028.2.042.302.042a.855.855 0 0 0 .839-.851v-.227h-.529v.18a.458.458 0 0 1-.031.18.315.315 0 0 1-.077.114.38.38 0 0 1-.222.077.266.266 0 0 1-.249-.109.479.479 0 0 1-.07-.271v-1.886a.643.643 0 0 1 .065-.302c.027-.043.066-.077.112-.098s.097-.03.147-.024a.28.28 0 0 1 .236.114c.059.078.09.173.088.271v.175h.523v-.206a.953.953 0 0 0-.242-.639zM6.736 22.49a.92.92 0 0 0-1.197 0 .833.833 0 0 0-.205.283.943.943 0 0 0-.077.392v1.941a.932.932 0 0 0 .077.397.791.791 0 0 0 .205.271.837.837 0 0 0 .279.171.92.92 0 0 0 .632 0 .849.849 0 0 0 .486-.442.934.934 0 0 0 .077-.397v-1.941a.943.943 0 0 0-.077-.392.867.867 0 0 0-.2-.283zm-.247 2.617a.355.355 0 0 1-.105.28.386.386 0 0 1-.498 0 .352.352 0 0 1-.105-.28v-1.941a.355.355 0 0 1 .105-.28.386.386 0 0 1 .498 0 .352.352 0 0 1 .105.28v1.941zM10.863 25.973v-3.674h-.509l-.668 1.945h-.009l-.673-1.945h-.503v3.674h.525v-2.235h.009l.514 1.58h.262l.518-1.58h.009v2.235h.525zM13.844 22.557a.727.727 0 0 0-.297-.201 1.168 1.168 0 0 0-.38-.057h-.78v3.674h.523v-1.435h.27a.964.964 0 0 0 .472-.1.759.759 0 0 0 .287-.281.875.875 0 0 0 .12-.32c.021-.138.03-.278.028-.418a2.107 2.107 0 0 0-.051-.525.785.785 0 0 0-.193-.338zm-.269 1.12a.45.45 0 0 1-.049.191.296.296 0 0 1-.135.129.538.538 0 0 1-.247.046h-.239v-1.249h.27a.506.506 0 0 1 .236.046.296.296 0 0 1 .123.136.537.537 0 0 1 .046.205v.244c0 .085.005.174 0 .252h-.005zM16.324 22.299h-.429l-.809 3.674h.524l.154-.789h.714l.154.789h.524l-.83-3.674zm-.483 2.384.258-1.332h.009l.256 1.332h-.524zM19.707 24.513h-.009l-.791-2.213h-.503v3.674h.523v-2.209h.011l.8 2.209h.492V22.3h-.524v2.213zM22.906 22.299l-.421 1.461h-.011l-.421-1.461h-.555l.719 2.121v1.553h.523V24.42l.719-2.121h-.555zM2.133 27.011h.252v.708h.171v-.708h.251v-.145h-.675v.145zM4.254 26.866l-.331.853h.182l.07-.194h.34l.073.194h.186l-.339-.853h-.182zm-.027.515.116-.316.116.316h-.232zM6.351 27.404h.197v.11a.332.332 0 0 1-.202.072c-.034.002-.069-.004-.1-.019s-.059-.036-.081-.063a.352.352 0 0 1-.063-.222c0-.19.082-.285.246-.285a.18.18 0 0 1 .192.136l.169-.033c-.036-.167-.156-.251-.362-.251a.426.426 0 0 0-.298.11.413.413 0 0 0-.122.328.465.465 0 0 0 .109.32.408.408 0 0 0 .324.125.513.513 0 0 0 .362-.136v-.336h-.37v.144zM8.492 26.866h-.173v.853h.598v-.145h-.425v-.708zM10.13 26.866h.173v.853h-.173v-.853zM12.073 27.435l-.349-.57h-.167v.853h.161v-.557l.343.557h.171v-.853h-.158v.57zM13.673 27.343h.425v-.145h-.425v-.187h.457v-.145h-.63v.853h.648v-.145h-.475v-.231zM17.553 27.202h-.336v-.336h-.171v.853h.171v-.373h.336v.373h.171v-.853h-.171v.336zM19.163 27.343h.426v-.145h-.426v-.187h.459v-.145h-.63v.853h.646v-.145h-.475v-.231zM21.346 27.343c.148-.023.224-.102.224-.237.004-.036-.001-.073-.016-.107s-.038-.062-.068-.083a.479.479 0 0 0-.25-.05h-.362v.853h.171v-.357h.034a.231.231 0 0 1 .107.019.181.181 0 0 1 .061.062l.186.271h.205l-.104-.167a.6.6 0 0 0-.189-.205zm-.173-.118h-.127v-.214h.135a.445.445 0 0 1 .174.02c.012.011.022.025.029.04a.116.116 0 0 1-.004.097.114.114 0 0 1-.032.037.486.486 0 0 1-.174.02zM22.992 27.343h.425v-.145h-.425v-.187h.459v-.145h-.631v.853h.648v-.145h-.475v-.231z" style="fill:var(--color3, #afb1b8)"/></symbol><symbol id="company3" viewBox="0 0 34 32"><path fill="#afb1b8" d="M5.227 31.394a.095.095 0 0 1 .066.026l.17.162a1.389 1.389 0 0 1-.477.307 1.838 1.838 0 0 1-.676.11 1.798 1.798 0 0 1-.636-.103 1.388 1.388 0 0 1-.479-.291 1.296 1.296 0 0 1-.309-.449 1.488 1.488 0 0 1-.108-.576 1.347 1.347 0 0 1 .445-1.027c.145-.127.318-.226.508-.293.209-.07.431-.105.655-.103.208-.004.415.028.608.094.168.063.322.151.455.26l-.142.173a.134.134 0 0 1-.036.031.094.094 0 0 1-.057.013.14.14 0 0 1-.061-.018l-.076-.046-.106-.059a1.169 1.169 0 0 0-.335-.103 1.418 1.418 0 0 0-.252-.018 1.355 1.355 0 0 0-.47.077 1.09 1.09 0 0 0-.369.217.988.988 0 0 0-.239.346c-.06.147-.089.301-.087.457a1.18 1.18 0 0 0 .087.464.983.983 0 0 0 .587.558c.138.05.287.075.436.074.086.001.173-.004.258-.015a1.029 1.029 0 0 0 .559-.237.132.132 0 0 1 .08-.029zM10.12 30.58c.003.195-.036.389-.114.572-.069.166-.178.318-.319.445s-.312.226-.501.292a2.055 2.055 0 0 1-1.288 0 1.47 1.47 0 0 1-.498-.293 1.302 1.302 0 0 1-.322-.449 1.49 1.49 0 0 1 0-1.147c.072-.167.182-.32.322-.451.142-.123.311-.218.498-.282.414-.14.874-.14 1.288 0 .188.066.358.166.5.293a1.328 1.328 0 0 1 .434 1.02zm-.444 0a1.214 1.214 0 0 0-.081-.46.943.943 0 0 0-.585-.561 1.484 1.484 0 0 0-.936 0 1.01 1.01 0 0 0-.358.217.94.94 0 0 0-.229.344c-.108.3-.108.621 0 .92a.94.94 0 0 0 .587.559c.302.098.634.098.936 0 .136-.048.259-.121.358-.215a.956.956 0 0 0 .227-.344c.057-.148.084-.304.081-.46zM13.46 31.062l.044.103c.017-.037.032-.07.049-.103a.825.825 0 0 1 .055-.101l1.083-1.71c.021-.029.04-.048.061-.053a.267.267 0 0 1 .089-.009h.32v2.781h-.379v-2.132a.769.769 0 0 1 0-.096l-1.089 1.734c-.014.026-.036.048-.064.063s-.06.023-.093.023h-.061c-.033.001-.065-.007-.093-.023s-.05-.037-.063-.064l-1.121-1.745V31.962h-.367v-2.776h.32c.03-.002.06.002.089.009.026.011.047.03.059.053l1.106 1.712c.022.032.04.065.055.099zM17.534 30.924v1.042h-.424v-2.777h.945c.178-.003.356.017.528.061.137.034.264.093.373.173a.72.72 0 0 1 .212.272c.05.113.074.234.072.355a.762.762 0 0 1-.307.633 1.086 1.086 0 0 1-.375.184 1.752 1.752 0 0 1-.511.064l-.513-.007zm0-.298h.513c.111.001.222-.013.328-.042a.717.717 0 0 0 .237-.12.531.531 0 0 0 .195-.418c.005-.077-.01-.154-.043-.226s-.084-.137-.148-.19a.909.909 0 0 0-.57-.149h-.513v1.145zM23.228 31.97h-.335a.156.156 0 0 1-.148-.09l-.288-.672H21.01l-.299.672a.158.158 0 0 1-.148.091h-.335l1.271-2.782h.441l1.288 2.782zm-2.097-1.033h1.195l-.504-1.132a1.773 1.773 0 0 1-.095-.261l-.049.145a1.317 1.317 0 0 1-.047.118l-.5 1.13zM25.059 29.201a.185.185 0 0 1 .064.05l1.854 2.097v-2.16h.379v2.781h-.212a.199.199 0 0 1-.087-.017.232.232 0 0 1-.068-.052l-1.852-2.095a.769.769 0 0 1 0 .096v2.068h-.379v-2.781h.225a.196.196 0 0 1 .076.013zM30.478 30.863v1.105h-.424v-1.105l-1.172-1.675h.379a.15.15 0 0 1 .091.024.243.243 0 0 1 .057.063l.733 1.081a1.43 1.43 0 0 1 .129.247l.055-.12c.021-.044.045-.086.072-.127l.723-1.088a.306.306 0 0 1 .055-.059.145.145 0 0 1 .091-.028h.383l-1.174 1.683zM13.25 24.521c.184.02.371.037.559.052 2.859-1.111 5.277-2.93 6.953-5.228s2.534-4.975 2.469-7.696l-3.15-2.737c.641 2.896.341 5.89-.865 8.647s-3.272 5.168-5.965 6.963z" style="fill:var(--color3, #afb1b8)"/><path fill="#afb1b8" d="m12.125 24.393.085.015c2.878-1.789 5.072-4.286 6.299-7.17s1.43-6.021.582-9.006l-4.487-3.899c1.815 3.205 2.546 6.791 2.107 10.342s-2.029 6.921-4.585 9.718zM27.343 14.862c-.762 2.989-2.614 5.685-5.28 7.687a16.842 16.842 0 0 1-2.508 1.565c2.171-.554 4.166-1.534 5.832-2.865s2.958-2.975 3.776-4.808l-1.82-1.579z" style="fill:var(--color3, #afb1b8)"/><path fill="#afb1b8" d="m26.629 14.422-2.591-2.251c-.05 2.567-.889 5.075-2.432 7.264s-3.732 3.98-6.341 5.185h.013c.581 0 1.162-.03 1.739-.09 2.438-.864 4.592-2.24 6.269-4.004s2.826-3.861 3.343-6.104zM12.5 2.689 9.409 0C6.646.928 4.269 2.559 2.59 4.679S.008 9.311 0 11.885c.01 2.844 1.112 5.604 3.131 7.843s4.839 3.829 8.015 4.518c2.835-3.001 4.495-6.709 4.738-10.586s-.942-7.72-3.385-10.971zM33.77 14.008c-.011-3.374-1.559-6.608-4.305-8.994s-6.468-3.731-10.351-3.74a16.433 16.433 0 0 0-5.248.849l18.925 16.443c.648-1.454.98-2.999.979-4.558z" style="fill:var(--color3, #afb1b8)"/></symbol><symbol id="company4" viewBox="0 0 67 32"><path fill="#afb1b8" d="M10.353 9.77h.002c1.889 0 3.42 1.361 3.42 3.04v.002c0 1.679-1.531 3.04-3.42 3.04h-.002c-1.889 0-3.42-1.361-3.42-3.04v-.002c0-1.679 1.531-3.04 3.42-3.04zM35.601 8.798c-.005-2.332-1.05-4.566-2.905-6.215S28.326.005 25.703 0c-2.624.004-5.14.933-6.996 2.582s-2.901 3.884-2.906 6.217v12.858s19.798-1.96 19.801-12.856v-.002zM0 25.876c.005 1.622.732 3.177 2.023 4.325S5.063 31.995 6.888 32c1.825-.005 3.574-.651 4.865-1.798s2.018-2.701 2.023-4.323v-8.947S0 18.297 0 25.877zm6.888 1.603c-.357 0-.705-.094-1.002-.27s-.528-.426-.664-.719-.172-.615-.103-.926.241-.597.494-.821c.252-.224.574-.377.924-.439s.713-.03 1.042.091c.33.121.611.327.81.59a1.472 1.472 0 0 1 .169 1.506c-.09.195-.223.373-.391.522-.168.15-.367.268-.586.349s-.454.123-.692.123v-.006zM23.962 27.236q.175-.374.175-.87v-.15q0-.494-.179-.871-.135-.285-.355-.47-.071-.06-.15-.109-.068-.042-.139-.075-.274-.127-.607-.127t-.607.127q-.072.033-.139.075-.08.049-.15.109-.22.185-.355.47-.179.377-.179.873v.166q.002.485.182.857.131.272.341.452.078.067.166.121.073.045.151.08.27.121.595.121.339 0 .616-.131.068-.032.133-.072.092-.057.172-.128.204-.18.33-.449zm2.363-.364q.059.089.059.217 0 .101-.044.177-.034.059-.095.103-.138.1-.385.1-.391 0-.552-.192-.113-.135-.113-.364H24.5q0 .243.093.443.032.067.074.13l.006.009q.167.24.479.38.318.142.706.142.558 0 .888-.248.142-.107.223-.249.107-.187.107-.435 0-.222-.087-.403-.066-.139-.184-.253-.27-.263-.861-.441-.321-.097-.486-.208-.117-.079-.151-.184-.014-.043-.014-.09 0-.086.034-.155.035-.073.107-.128.141-.107.395-.107.263 0 .409.128.037.032.064.071.081.115.081.288h.692q0-.208-.073-.385-.034-.081-.082-.155-.034-.051-.073-.098-.143-.168-.364-.27-.282-.13-.642-.13-.358 0-.645.12t-.441.333q-.062.087-.099.183-.054.141-.054.302 0 .158.052.296.12.321.521.537.21.113.57.23t.498.221q.048.037.08.085zm27.033 0q.059.089.059.217 0 .101-.044.177-.034.059-.095.103-.138.1-.385.1-.391 0-.552-.192-.113-.135-.113-.364h-.695q0 .243.093.443.032.067.074.13l.006.009q.167.24.48.38.318.142.706.142.559 0 .889-.248.142-.107.223-.249.107-.187.107-.435 0-.222-.086-.403-.066-.139-.184-.253-.27-.263-.861-.441-.321-.097-.486-.208-.117-.079-.151-.184-.014-.043-.014-.09 0-.086.034-.155.035-.073.107-.128.141-.107.395-.107.263 0 .408.128.037.032.064.071.081.115.081.288h.692q0-.208-.074-.385-.033-.081-.082-.155-.034-.051-.073-.098-.143-.168-.364-.27-.282-.13-.642-.13-.358 0-.645.12t-.441.333q-.062.087-.099.183-.054.141-.054.302 0 .158.052.296.12.321.521.537.21.113.57.23t.498.221q.048.037.08.085zm-33.877-.275h1.329v-.558h-1.329v-.868h1.495v-.561h-2.188v3.36h.692v-1.373zm9.566-1.426h1.029v-.561h-2.737v.561h1.015v2.799h.692v-2.799zm2.116 1.343h1.329v-.542h-1.329v-.801h1.555v-.561H30.47v3.36h2.252v-.556h-1.56v-.9zm2.658.226h.552l.63 1.23h.743v-.032l-.727-1.373q.302-.136.451-.366t.149-.573q0-.338-.157-.569-.068-.101-.166-.181-.323-.265-.919-.265h-1.249v3.36h.692v-1.23zm4.194 1.23v-1.184h.607q.598 0 .936-.285.117-.099.194-.223.144-.233.144-.556 0-.258-.097-.472-.025-.056-.057-.108-.046-.075-.103-.14-.137-.155-.339-.253-.287-.138-.666-.138h-1.311v3.36h.692zm3.048-1.456h1.329v-.542h-1.329v-.801h1.555v-.561H40.37v3.36h2.252v-.556h-1.56v-.9zm3.513-1.343h1.029v-.561h-2.737v.561h1.015v2.799h.692v-2.799zm2.116 1.343h1.329v-.542h-1.329v-.801h1.555v-.561h-2.248v3.36h2.252v-.556h-1.56v-.9zm2.658.226h.552l.63 1.23h.743v-.032l-.727-1.373q.302-.136.451-.366t.149-.573q0-.338-.157-.569-.068-.101-.166-.181-.323-.265-.919-.265h-1.248v3.36h.692v-1.23zm-26.103-1.329q.189.275.189.803v.164q-.002.524-.189.797-.083.121-.197.188-.144.085-.339.085t-.338-.085q-.12-.07-.206-.199-.189-.284-.189-.799v-.164q.002-.524.192-.795.083-.119.197-.186.145-.085.341-.085t.341.086q.115.068.199.189zm11.133.768h-.559v-1.008h.556q.279 0 .414.136.021.021.038.044.097.128.097.329 0 .179-.084.298-.026.037-.059.068l-.007.006q-.142.126-.397.126zm4.253.046h-.619V25.17h.635q.208.004.343.105.031.023.058.052.032.034.058.073.088.135.088.326 0 .193-.093.314-.023.03-.051.055-.144.129-.419.129zm11.276-.046h-.559v-1.008h.556q.279 0 .414.136.021.021.038.044.097.128.097.329 0 .179-.084.298-.026.037-.059.068l-.007.006q-.142.126-.397.126z" style="fill:var(--color3, #afb1b8)"/></symbol><symbol id="company5" viewBox="0 0 44 32"><path fill="#afb1b8" d="M3.35 26.742c.172.194.263.438.258.688.009.163-.023.326-.092.476s-.175.285-.308.393c-.333.23-.747.343-1.163.317H0v-4.361h2.003c.395-.024.788.078 1.11.29.129.099.232.224.299.366s.098.296.089.45a.953.953 0 0 1-.233.667 1.11 1.11 0 0 1-.61.341c.271.045.516.177.691.373zm-2.398-.658h.856a.862.862 0 0 0 .544-.145c.064-.053.114-.119.146-.193s.045-.153.038-.233a.5.5 0 0 0-.181-.426.882.882 0 0 0-.561-.147H.952v1.144zm1.484 1.672c.069-.055.123-.123.158-.2s.05-.16.045-.243c.005-.084-.011-.168-.047-.246s-.091-.147-.16-.202a.94.94 0 0 0-.582-.158H.952v1.199h.91a.97.97 0 0 0 .575-.151zM7.445 28.617l-1.114-1.704h-.419v1.704h-.959v-4.361h1.815c.457-.029.91.104 1.263.371.254.237.407.549.431.879s-.08.659-.296.925c-.224.235-.53.391-.866.443l1.187 1.743H7.445zm-1.533-2.299h.784c.544 0 .817-.22.817-.66.006-.09-.009-.18-.044-.264s-.088-.161-.156-.226a.903.903 0 0 0-.617-.177h-.793l.009 1.327zM12.685 27.739h-1.91l-.337.878H9.433l1.754-4.312h1.087l1.747 4.312h-1.005l-.33-.878zm-.256-.66-.698-1.841-.698 1.841h1.396zM19.244 28.617h-.952l-2.134-2.965v2.965h-.949v-4.361h.949l2.134 2.982v-2.982h.952v4.361zM24.674 27.573a1.988 1.988 0 0 1-.861.769 3.016 3.016 0 0 1-1.338.275h-1.694v-4.361h1.694a3.09 3.09 0 0 1 1.338.268c.364.168.664.433.861.761.196.355.298.747.298 1.144s-.102.789-.298 1.144zm-1.089-.104c.272-.29.421-.659.421-1.041s-.149-.751-.421-1.041a1.753 1.753 0 0 0-1.191-.371h-.661v2.823h.661c.435.025.863-.108 1.191-.371zM13.281 0s12.283 4.246 12.022 10.39v10.392S13.03 16.534 13.286 10.39L13.281 0zM36.245 18.349c2.32-1.462 5.003-2.367 7.804-2.633v-3.253c-3.227 1.139-5.965 3.204-7.804 5.886z" style="fill:var(--color3, #afb1b8)"/><path fill="#afb1b8" d="M34.851 19.329c1.899-3.5 5.19-6.202 9.197-7.548V2.408S26.556 8.456 26.926 17.205V32s.779-.271 2.006-.778c0-.473 0-.95.056-1.43.362-4.062 2.471-7.826 5.863-10.464z" style="fill:var(--color3, #afb1b8)"/><path fill="#afb1b8" d="M33.188 24.825a14.12 14.12 0 0 1 .612-3.029c-2.112 2.279-3.391 5.106-3.658 8.085-.026.281-.04.562-.047.852.994-.437 2.15-.982 3.364-1.623a14.022 14.022 0 0 1-.272-4.284zM33.883 24.878a13.436 13.436 0 0 0 .216 3.879c4.779-2.618 10.149-6.664 9.942-11.553v-.426c-3.414.35-6.609 1.716-9.093 3.89a13.554 13.554 0 0 0-1.066 4.21z" style="fill:var(--color3, #afb1b8)"/></symbol><symbol id="company6" viewBox="0 0 68 32"><path fill="#afb1b8" d="M34.549 15.037a2.152 2.152 0 0 1-.441-1.449v-2.101c0-.644.146-1.133.438-1.468s.794-.502 1.505-.5c.668 0 1.143.142 1.423.427.306.363.455.808.421 1.256v.494H36.7v-.5a2.505 2.505 0 0 0-.035-.489.472.472 0 0 0-.171-.291.69.69 0 0 0-.433-.113.725.725 0 0 0-.455.12.559.559 0 0 0-.198.32c-.034.171-.05.345-.047.519v2.549c-.019.246.034.492.153.716.059.076.142.136.239.173s.203.052.308.04a.654.654 0 0 0 .423-.115.512.512 0 0 0 .178-.31c.028-.169.04-.34.037-.511v-.517h1.195v.472c.034.467-.112.931-.413 1.321-.275.312-.742.468-1.431.468s-1.208-.167-1.502-.513zM39.526 15.059c-.302-.327-.453-.803-.453-1.434v-2.209c0-.624.151-1.096.453-1.417s.807-.48 1.515-.479c.703 0 1.205.16 1.507.479.302.321.455.793.455 1.417v2.209c0 .624-.154 1.103-.46 1.432s-.807.494-1.502.494-1.21-.167-1.515-.491zm2.072-.53c.108-.205.157-.429.144-.654V11.17c.014-.22-.035-.44-.141-.641-.061-.077-.145-.138-.244-.176s-.208-.051-.315-.038c-.107-.013-.217 0-.316.038s-.184.099-.246.176c-.109.2-.158.42-.144.641v2.718c-.015.225.034.449.144.654.07.069.156.124.252.162s.201.057.307.057c.106 0 .211-.02.307-.057s.182-.093.252-.162v-.013zM44.441 9.585h1.287l.968 4.076.99-4.076h1.252l.126 5.884h-.926l-.099-4.089-.955 4.089h-.742l-.99-4.104-.092 4.104h-.935l.116-5.884zM50.508 9.585h2.005c1.155 0 1.732.557 1.732 1.671 0 1.067-.608 1.6-1.824 1.598h-.683v2.615h-1.237l.007-5.884zM52.22 12.1c.122.013.246.004.364-.028s.226-.086.317-.158a.95.95 0 0 0 .178-.664 1.856 1.856 0 0 0-.059-.534c-.018-.059-.049-.113-.091-.161s-.096-.088-.156-.118a1.277 1.277 0 0 0-.552-.094h-.48v1.758h.48zM56.029 9.585h1.329l1.364 5.884h-1.153l-.27-1.357h-1.185l-.277 1.357h-1.171l1.364-5.884zm1.136 3.846-.463-2.47-.463 2.47h.926zM59.823 9.585h.866l1.658 3.356V9.585h1.027v5.884h-.824l-1.668-3.504v3.504H59.82l.002-5.884zM65.78 13.225l-1.379-3.632h1.161l.841 2.333.79-2.333h1.136l-1.361 3.632v2.243H65.78v-2.243zM36.46 18.041v.308h-1.01v2.391h-.423v-2.391h-1.015v-.308h2.448zM39.625 20.74h-.327a.142.142 0 0 1-.092-.026.134.134 0 0 1-.054-.062l-.292-.641h-1.401l-.292.641a.175.175 0 0 1-.045.073.153.153 0 0 1-.092.026h-.327l1.237-2.698h.431l1.252 2.688zm-2.049-1.002h1.168l-.495-1.098a2.143 2.143 0 0 1-.092-.254l-.047.143-.045.113-.49 1.096zM41.759 20.475c.077.004.155.004.233 0 .067-.006.133-.017.198-.032.061-.013.12-.029.178-.049.054-.019.109-.043.166-.066v-.607h-.495c-.012.001-.024-.001-.036-.005s-.022-.009-.031-.017c-.008-.006-.015-.014-.019-.022s-.006-.018-.006-.027v-.207h.96v1.034a1.758 1.758 0 0 1-.523.22 2.3 2.3 0 0 1-.309.056c-.12.011-.241.017-.361.017a1.906 1.906 0 0 1-.624-.1 1.512 1.512 0 0 1-.495-.282 1.3 1.3 0 0 1-.319-.427 1.347 1.347 0 0 1-.114-.56 1.395 1.395 0 0 1 .111-.564c.071-.16.18-.305.319-.427.141-.121.31-.217.495-.28.212-.069.437-.103.663-.1.115 0 .23.008.344.024.101.014.199.037.294.068.087.028.17.064.248.107.076.042.148.089.215.141l-.119.167c-.009.015-.023.028-.04.037s-.036.014-.056.014a.17.17 0 0 1-.077-.021 1.33 1.33 0 0 1-.121-.064 1.071 1.071 0 0 0-.166-.073 1.47 1.47 0 0 0-.542-.083 1.458 1.458 0 0 0-.478.075 1.052 1.052 0 0 0-.364.214.931.931 0 0 0-.23.335 1.258 1.258 0 0 0 0 .9.971.971 0 0 0 .247.34c.101.093.225.165.361.214.157.047.324.065.49.053zM45.704 20.432h1.351v.308H45.29v-2.699h.423l-.01 2.391zM48.461 20.74h-.423v-2.699h.423v2.699zM50.035 18.054a.195.195 0 0 1 .064.049l1.809 2.034a.769.769 0 0 1 0-.096V18.03h.369v2.709h-.213a.205.205 0 0 1-.092-.015.243.243 0 0 1-.067-.051l-1.807-2.032v2.098h-.354V18.04h.22a.18.18 0 0 1 .069.013zM55.393 18.041v.297h-1.5v.891h1.215v.286h-1.215v.921h1.5v.297h-1.935v-2.692h1.935zM11.045 1.376l18.792 4.607v16.142l-18.792-4.604V1.377zM9.84 0v18.305l21.2 5.198V5.201L9.84 0z" style="fill:var(--color3, #afb1b8)"/><path fill="#afb1b8" d="M21.202 32 0 26.797V8.494l21.202 5.201V32z" style="fill:var(--color3, #afb1b8)"/><path fill="#afb1b8" d="m10.192 1.169 18.547 4.549-7.887 6.811L2.303 7.978l7.89-6.809zM9.84 0 0 8.495l21.202 5.2L31.04 5.2 9.84 0zM22.395 30.97l8.645-7.465-8.645-2.122v9.587z" style="fill:var(--color3, #afb1b8)"/></symbol><symbol id="diagram" viewBox="0 0 32 32"><path fill="#2196f3" d="M14.926 14.965h1.066v4.798h-1.066v-4.797zM19.19 17.097h1.066v2.665H19.19v-2.665zM10.661 18.696h1.066v1.066h-1.066v-1.066zM7.463 18.163h1.066v1.599H7.463v-1.599z" style="fill:var(--color2, #2196f3)"/><path fill="#212121" d="M1.599 28.291h25.587a1.6 1.6 0 0 0 1.599-1.599V24.56a1.6 1.6 0 0 0-1.599-1.599h-.533V9.668L29.681 6.8a1.608 1.608 0 1 0-.746-.763L26.654 8.2V6.97a1.6 1.6 0 0 0-1.599-1.599H3.733A1.6 1.6 0 0 0 2.134 6.97v15.992h-.533a1.6 1.6 0 0 0-1.599 1.599v2.132a1.6 1.6 0 0 0 1.599 1.599zM30.384 4.837a.533.533 0 1 1 0 1.067.533.533 0 0 1 0-1.067zM3.198 6.969c0-.294.239-.533.533-.533h21.322c.294 0 .533.239.533.533v2.239l-1.066 1.013V8.035a.533.533 0 0 0-.533-.533H4.797a.533.533 0 0 0-.533.533v13.326c0 .294.239.533.533.533h19.19a.533.533 0 0 0 .533-.533v-9.674l1.066-1.01v12.284H3.198V6.969zm4.798 6.93a1.598 1.598 0 1 0 1.107 2.749l1.853.93a.532.532 0 0 0 .636-.123l3.939-4.431 3.872 2.901a.533.533 0 0 0 .686-.039l3.365-3.188v8.131H5.33V8.569h18.124v2.66l-3.771 3.572-3.904-2.927a.533.533 0 0 0-.718.072l-3.993 4.493-1.493-.746c.011-.064.018-.129.02-.193a1.6 1.6 0 0 0-1.599-1.599zm.533 1.599a.533.533 0 1 1-1.067 0 .533.533 0 0 1 1.067 0zm3.198 8.528h5.33v.533a.533.533 0 0 1-.533.533H12.26a.533.533 0 0 1-.533-.533v-.533zm-10.661.534c0-.294.239-.533.533-.533h9.062v.533a1.6 1.6 0 0 0 1.599 1.599h4.264a1.6 1.6 0 0 0 1.599-1.599v-.533h9.062c.294 0 .533.239.533.533v2.132a.533.533 0 0 1-.533.533H1.598a.533.533 0 0 1-.533-.533V24.56z" style="fill:var(--color1, #212121)"/></symbol><symbol id="facebook" viewBox="0 0 16 32"><path fill="#afb1b8" d="M13.08 5.313h2.921V.225C15.497.156 13.764 0 11.745 0 7.533 0 4.648 2.649 4.648 7.519V12H0v5.688h4.648V32h5.699V17.689h4.46l.708-5.688h-5.169V8.082c.001-1.644.444-2.769 2.735-2.769z" style="fill:var(--color3, #afb1b8)"/></symbol><symbol id="instagram" viewBox="0 0 32 32"><path fill="#afb1b8" d="M31.969 9.408c-.075-1.7-.35-2.869-.744-3.882a7.806 7.806 0 0 0-1.851-2.838A7.867 7.867 0 0 0 26.542.844C25.523.45 24.36.175 22.66.1 20.947.019 20.403 0 16.059 0s-4.888.019-6.595.094c-1.7.075-2.869.35-3.882.744a7.803 7.803 0 0 0-2.838 1.85A7.867 7.867 0 0 0 .9 5.52C.506 6.539.231 7.702.156 9.402c-.081 1.713-.1 2.257-.1 6.601s.019 4.888.094 6.595c.075 1.7.35 2.869.744 3.882a7.895 7.895 0 0 0 1.85 2.838 7.867 7.867 0 0 0 2.832 1.844c1.019.394 2.181.669 3.882.744 1.706.075 2.25.094 6.595.094s4.888-.019 6.595-.094c1.7-.075 2.869-.35 3.882-.744a8.181 8.181 0 0 0 4.682-4.682c.394-1.019.669-2.182.744-3.882.075-1.707.094-2.25.094-6.595s-.006-4.888-.081-6.595zm-2.882 13.065c-.069 1.563-.331 2.407-.55 2.969a5.31 5.31 0 0 1-3.038 3.038c-.562.219-1.412.481-2.969.55-1.688.075-2.194.094-6.464.094s-4.782-.019-6.464-.094c-1.563-.069-2.407-.331-2.969-.55a4.926 4.926 0 0 1-1.838-1.194 4.974 4.974 0 0 1-1.194-1.838c-.219-.563-.481-1.413-.55-2.969-.075-1.688-.094-2.194-.094-6.464s.019-4.782.094-6.464c.069-1.563.331-2.407.55-2.969a4.868 4.868 0 0 1 1.2-1.838A4.974 4.974 0 0 1 6.639 3.55c.563-.219 1.413-.481 2.969-.55 1.688-.075 2.194-.094 6.464-.094 4.276 0 4.782.019 6.464.094 1.563.069 2.407.331 2.969.55a4.914 4.914 0 0 1 1.838 1.194 4.961 4.961 0 0 1 1.194 1.838c.219.563.481 1.413.55 2.969.075 1.688.094 2.194.094 6.464s-.019 4.77-.094 6.457z" style="fill:var(--color3, #afb1b8)"/><path fill="#afb1b8" d="M16.059 7.783c-4.538 0-8.22 3.682-8.22 8.22s3.682 8.22 8.22 8.22c4.539 0 8.22-3.682 8.22-8.22s-3.682-8.22-8.22-8.22zm0 13.553a5.333 5.333 0 0 1 0-10.664 5.333 5.333 0 0 1 0 10.664zM26.524 7.458a1.919 1.919 0 1 1-3.838 0 1.919 1.919 0 0 1 3.838 0z" style="fill:var(--color3, #afb1b8)"/></symbol><symbol id="linkedin" viewBox="0 0 32 32"><path fill="#afb1b8" d="M31.992 32v-.001H32V20.263c0-5.741-1.236-10.164-7.948-10.164-3.227 0-5.392 1.771-6.276 3.449h-.093v-2.913h-6.364v21.364h6.627V21.42c0-2.785.528-5.479 3.977-5.479 3.399 0 3.449 3.179 3.449 5.657v10.401h6.62zM.528 10.636h6.635V32H.528V10.636zM3.843 0C1.722 0 0 1.721 0 3.843s1.721 3.879 3.843 3.879 3.843-1.757 3.843-3.879A3.846 3.846 0 0 0 3.843 0z" style="fill:var(--color3, #afb1b8)"/></symbol><symbol id="mail" viewBox="0 0 43 32"><path  d="M38.667 0H4C1.794 0 0 1.794 0 4v24c0 2.206 1.794 4 4 4h34.667c2.206 0 4-1.794 4-4V4c0-2.206-1.794-4-4-4zm0 2.667c.181 0 .354.037.511.103L21.333 18.236 3.489 2.77A1.34 1.34 0 0 1 4 2.667h34.667zm0 26.666H4A1.334 1.334 0 0 1 2.667 28V5.587L20.46 21.008a1.335 1.335 0 0 0 1.748 0L40.001 5.587V28c0 .736-.598 1.333-1.333 1.333z" "/></symbol><symbol id="mobile" viewBox="0 0 20 32"><path fill="#757575" d="M17 0H3C1.346 0 0 1.346 0 3v26c0 1.654 1.346 3 3 3h14c1.654 0 3-1.346 3-3V3c0-1.654-1.346-3-3-3zM3 2h14a1 1 0 0 1 1 1v21H2V3a1 1 0 0 1 1-1zm14 28H3a1 1 0 0 1-1-1v-3h16v3a1 1 0 0 1-1 1z" style="fill:var(--color4, #757575)"/></symbol><symbol id="twiter" viewBox="0 0 39 32"><path fill="#afb1b8" d="M39.385 3.788a16.86 16.86 0 0 1-4.652 1.275A8.029 8.029 0 0 0 38.285.6a16.11 16.11 0 0 1-5.12 1.954 8.091 8.091 0 0 0-5.898-2.555c-4.47 0-8.069 3.628-8.069 8.076 0 .64.054 1.255.187 1.841C12.672 9.589 6.733 6.371 2.742 1.47a8.126 8.126 0 0 0-1.105 4.081 8.087 8.087 0 0 0 3.586 6.71 7.981 7.981 0 0 1-3.648-.994v.089c0 3.924 2.799 7.183 6.469 7.934a8.047 8.047 0 0 1-2.117.266c-.517 0-1.039-.03-1.529-.138 1.046 3.198 4.015 5.548 7.544 5.625a16.223 16.223 0 0 1-10.011 3.444c-.662 0-1.297-.03-1.932-.111 3.577 2.306 7.815 3.623 12.387 3.623 14.858 0 22.981-12.308 22.981-22.976 0-.357-.012-.702-.03-1.044 1.603-1.137 2.949-2.558 4.047-4.192z" style="fill:var(--color3, #afb1b8)"/></symbol></defs></svg>