<svg width="20.000000" height="16.250000" viewBox="0 0 20 16.25" fill="none" xmlns="http://www.w3.org/2000/svg" xmlns:xlink="http://www.w3.org/1999/xlink">
	<desc>
			Created with Pixso.
	</desc>
	<defs/>
	<path id="Vector" d="M20 1.92377C19.2562 2.25 18.4637 2.46625 17.6375 2.57123C18.4875 2.06372 19.1362 1.26624 19.4413 0.304993C18.6488 0.777527 17.7738 1.11127 16.8413 1.29749C16.0887 0.496277 15.0162 0 13.8462 0C11.5763 0 9.74878 1.84253 9.74878 4.10126C9.74878 4.42627 9.77625 4.73877 9.84375 5.03625C6.43506 4.87 3.4187 3.23627 1.39246 0.747498C1.0387 1.36127 0.831299 2.06372 0.831299 2.82001C0.831299 4.23999 1.5625 5.49878 2.65247 6.22748C1.99377 6.21503 1.34753 6.02374 0.800049 5.72247C0.800049 5.73499 0.800049 5.75122 0.800049 5.76752C0.800049 7.76001 2.22119 9.41498 4.08496 9.79626C3.75122 9.88751 3.38745 9.93127 3.01001 9.93127C2.74756 9.93127 2.48254 9.91626 2.23376 9.86127C2.76501 11.485 4.27246 12.6788 6.06494 12.7175C4.67004 13.8088 2.8988 14.4662 0.981201 14.4662C0.64502 14.4662 0.32251 14.4512 0 14.41C1.81628 15.5812 3.96875 16.25 6.29004 16.25C13.835 16.25 17.96 10 17.96 4.58252C17.96 4.40125 17.9537 4.22626 17.9449 4.05249C18.7588 3.47498 19.4425 2.75372 20 1.92377Z" fill="#AFB1B8" fill-opacity="1.000000" fill-rule="nonzero"/>
</svg>
